<?xml version="1.0" standalone="no"?>
<!DOCTYPE svg PUBLIC "-//W3C//DTD SVG 20010904//EN"
 "http://www.w3.org/TR/2001/REC-SVG-20010904/DTD/svg10.dtd">
<svg version="1.0" xmlns="http://www.w3.org/2000/svg"
 width="512.000000pt" height="512.000000pt" viewBox="0 0 512.000000 512.000000"
 preserveAspectRatio="xMidYMid meet">
<metadata>
Created by potrace 1.14, written by Peter Selinger 2001-2017
</metadata>
<g transform="translate(0.000000,512.000000) scale(0.100000,-0.100000)"
fill="#000000" stroke="none">
<path d="M0 3075 l0 -915 223 -1 c122 0 480 -1 795 -2 l573 0 -3 -136 -3 -136
-790 0 -790 0 -3 -105 -3 -105 901 0 c495 0 900 2 901 5 4 29 2 656 -2 668 -7
18 -135 20 -1456 22 l-133 0 0 705 0 705 1708 1 c2629 1 2413 5 2555 -42 210
-69 371 -232 421 -424 22 -85 23 -1394 1 -1498 -44 -210 -225 -383 -477 -454
-57 -16 -112 -18 -578 -18 -575 0 -571 0 -715 72 -191 95 -306 236 -340 415
-10 56 -14 192 -14 583 0 281 0 516 0 523 -1 9 -29 12 -105 12 l-103 0 -1
-372 c0 -205 -1 -382 -2 -393 -1 -11 -10 16 -20 60 -68 300 -265 548 -513 646
-46 18 -93 31 -167 44 -19 4 -277 7 -572 7 -485 1 -537 2 -540 17 -2 9 -3 72
-3 141 l0 125 1796 1 1796 1 1 -656 c0 -361 -2 -663 -4 -671 -4 -14 -59 -16
-492 -15 -268 1 -492 2 -498 3 -8 2 -11 149 -10 529 l1 528 -102 0 c-97 1
-103 -1 -104 -20 0 -11 -2 -293 -3 -628 -2 -431 0 -609 8 -615 8 -6 1376 -9
1408 -3 3 0 6 397 7 881 l1 880 -2005 0 c-1903 0 -2005 -1 -2006 -17 -1 -23
-1 -629 0 -663 l1 -25 618 -1 c605 0 684 -3 749 -23 142 -43 301 -190 370
-341 131 -286 93 -597 -102 -832 -83 -101 -213 -174 -340 -192 -22 -3 -444 -5
-937 -6 l-898 0 0 -105 0 -106 943 4 c518 2 949 6 957 9 8 2 33 8 55 13 66 12
216 91 281 147 62 54 132 130 162 177 9 14 19 28 23 31 12 9 56 105 82 176 23
63 46 164 50 215 2 29 11 11 14 -29 13 -172 78 -320 199 -450 104 -113 248
-205 384 -246 136 -42 194 -45 725 -42 488 2 514 3 594 24 340 89 589 341 640
647 6 37 9 342 8 790 l-2 730 -33 95 c-73 209 -212 365 -421 470 -62 31 -159
66 -210 75 -14 3 -37 8 -51 12 -14 4 -1009 9 -2212 10 l-2188 3 0 -915z"/>
</g>
</svg>
