<svg xmlns="http://www.w3.org/2000/svg" viewBox="0 0 81.21 19.98"><polygon points="0.43 1.7 0 2.13 0.85 2.13 0.85 1.27 0.43 1.7 0.43 1.7" fill="#fff" fill-rule="evenodd"/><polygon points="1.7 0.42 1.28 0.85 2.13 0.85 2.13 0 1.7 0.42 1.7 0.42" fill="#fff" fill-rule="evenodd"/><polygon points="1.28 1.27 1.28 2.13 2.13 2.13 2.13 1.27 1.28 1.27 1.28 1.27" fill="#fff" fill-rule="evenodd"/><polygon points="2.55 0 2.55 0.85 3.4 0.85 3.4 0 2.55 0 2.55 0" fill="#fff" fill-rule="evenodd"/><polygon points="3.83 0 3.83 0.85 4.68 0.85 4.68 0 3.83 0 3.83 0" fill="#fff" fill-rule="evenodd"/><polygon points="5.11 0 5.11 0.85 5.96 0.85 5.96 0 5.11 0 5.11 0" fill="#fff" fill-rule="evenodd"/><polygon points="6.38 0 6.38 0.85 7.23 0.85 7.23 0 6.38 0 6.38 0" fill="#fff" fill-rule="evenodd"/><polygon points="7.65 0 7.65 0.85 8.5 0.85 8.5 0 7.65 0 7.65 0" fill="#fff" fill-rule="evenodd"/><polygon points="8.93 0 8.93 0.85 9.78 0.85 9.78 0 8.93 0 8.93 0" fill="#fff" fill-rule="evenodd"/><polygon points="10.21 0 10.21 0.85 11.06 0.85 11.06 0 10.21 0 10.21 0" fill="#fff" fill-rule="evenodd"/><polygon points="11.48 0 11.48 0.85 12.33 0.85 12.33 0 11.48 0 11.48 0" fill="#fff" fill-rule="evenodd"/><polygon points="13.18 0.42 13.61 0.85 12.76 0.85 12.76 0 13.18 0.42 13.18 0.42" fill="#fff" fill-rule="evenodd"/><polygon points="14.46 1.7 14.88 2.13 14.03 2.13 14.03 1.27 14.46 1.7 14.46 1.7" fill="#fff" fill-rule="evenodd"/><polygon points="12.76 1.27 12.76 2.13 13.61 2.13 13.61 1.27 12.76 1.27 12.76 1.27" fill="#fff" fill-rule="evenodd"/><polygon points="14.03 2.55 14.03 3.4 14.88 3.4 14.88 2.55 14.03 2.55 14.03 2.55" fill="#fff" fill-rule="evenodd"/><polygon points="14.03 3.83 14.03 4.68 14.88 4.68 14.88 3.83 14.03 3.83 14.03 3.83" fill="#fff" fill-rule="evenodd"/><polygon points="14.03 5.1 14.03 5.95 14.88 5.95 14.88 5.1 14.03 5.1 14.03 5.1" fill="#fff" fill-rule="evenodd"/><polygon points="12.76 5.1 12.76 5.95 13.61 5.95 13.61 5.1 12.76 5.1 12.76 5.1" fill="#fff" fill-rule="evenodd"/><polygon points="11.48 5.1 11.48 5.95 12.33 5.95 12.33 5.1 11.48 5.1 11.48 5.1" fill="#fff" fill-rule="evenodd"/><polygon points="10.21 5.1 10.21 5.95 11.06 5.95 11.06 5.1 10.21 5.1 10.21 5.1" fill="#fff" fill-rule="evenodd"/><polygon points="12.76 3.83 12.76 4.68 13.61 4.68 13.61 3.83 12.76 3.83 12.76 3.83" fill="#fff" fill-rule="evenodd"/><polygon points="11.48 3.83 11.48 4.68 12.33 4.68 12.33 3.83 11.48 3.83 11.48 3.83" fill="#fff" fill-rule="evenodd"/><polygon points="10.21 3.83 10.21 4.68 11.06 4.68 11.06 3.83 10.21 3.83 10.21 3.83" fill="#fff" fill-rule="evenodd"/><polygon points="12.76 2.55 12.76 3.4 13.61 3.4 13.61 2.55 12.76 2.55 12.76 2.55" fill="#fff" fill-rule="evenodd"/><polygon points="11.48 2.55 11.48 3.4 12.33 3.4 12.33 2.55 11.48 2.55 11.48 2.55" fill="#fff" fill-rule="evenodd"/><polygon points="10.21 2.55 10.21 3.4 11.06 3.4 11.06 2.55 10.21 2.55 10.21 2.55" fill="#fff" fill-rule="evenodd"/><polygon points="11.48 1.27 11.48 2.13 12.33 2.13 12.33 1.27 11.48 1.27 11.48 1.27" fill="#fff" fill-rule="evenodd"/><polygon points="10.21 1.27 10.21 2.13 11.06 2.13 11.06 1.27 10.21 1.27 10.21 1.27" fill="#fff" fill-rule="evenodd"/><polygon points="8.93 1.27 8.93 2.13 9.78 2.13 9.78 1.27 8.93 1.27 8.93 1.27" fill="#fff" fill-rule="evenodd"/><polygon points="8.93 2.55 8.93 3.4 9.78 3.4 9.78 2.55 8.93 2.55 8.93 2.55" fill="#fff" fill-rule="evenodd"/><polygon points="8.93 3.83 8.93 4.68 9.78 4.68 9.78 3.83 8.93 3.83 8.93 3.83" fill="#fff" fill-rule="evenodd"/><polygon points="7.65 3.83 7.65 4.68 8.5 4.68 8.5 3.83 7.65 3.83 7.65 3.83" fill="#fff" fill-rule="evenodd"/><polygon points="6.38 3.83 6.38 4.68 7.23 4.68 7.23 3.83 6.38 3.83 6.38 3.83" fill="#fff" fill-rule="evenodd"/><polygon points="5.11 3.83 5.11 4.68 5.96 4.68 5.96 3.83 5.11 3.83 5.11 3.83" fill="#fff" fill-rule="evenodd"/><polygon points="7.65 2.55 7.65 3.4 8.5 3.4 8.5 2.55 7.65 2.55 7.65 2.55" fill="#fff" fill-rule="evenodd"/><polygon points="6.38 2.55 6.38 3.4 7.23 3.4 7.23 2.55 6.38 2.55 6.38 2.55" fill="#fff" fill-rule="evenodd"/><polygon points="5.11 2.55 5.11 3.4 5.96 3.4 5.96 2.55 5.11 2.55 5.11 2.55" fill="#fff" fill-rule="evenodd"/><polygon points="7.65 1.27 7.65 2.13 8.5 2.13 8.5 1.27 7.65 1.27 7.65 1.27" fill="#fff" fill-rule="evenodd"/><polygon points="6.38 1.27 6.38 2.13 7.23 2.13 7.23 1.27 6.38 1.27 6.38 1.27" fill="#fff" fill-rule="evenodd"/><polygon points="5.11 1.27 5.11 2.13 5.96 2.13 5.96 1.27 5.11 1.27 5.11 1.27" fill="#fff" fill-rule="evenodd"/><polygon points="3.83 2.55 3.83 3.4 4.68 3.4 4.68 2.55 3.83 2.55 3.83 2.55" fill="#fff" fill-rule="evenodd"/><polygon points="3.83 3.83 3.83 4.68 4.68 4.68 4.68 3.83 3.83 3.83 3.83 3.83" fill="#fff" fill-rule="evenodd"/><polygon points="3.83 5.1 3.83 5.95 4.68 5.95 4.68 5.1 3.83 5.1 3.83 5.1" fill="#fff" fill-rule="evenodd"/><polygon points="2.55 5.1 2.55 5.95 3.4 5.95 3.4 5.1 2.55 5.1 2.55 5.1" fill="#fff" fill-rule="evenodd"/><polygon points="1.28 5.1 1.28 5.95 2.13 5.95 2.13 5.1 1.28 5.1 1.28 5.1" fill="#fff" fill-rule="evenodd"/><polygon points="0 5.1 0 5.95 0.85 5.95 0.85 5.1 0 5.1 0 5.1" fill="#fff" fill-rule="evenodd"/><polygon points="2.55 3.83 2.55 4.68 3.4 4.68 3.4 3.83 2.55 3.83 2.55 3.83" fill="#fff" fill-rule="evenodd"/><polygon points="1.28 3.83 1.28 4.68 2.13 4.68 2.13 3.83 1.28 3.83 1.28 3.83" fill="#fff" fill-rule="evenodd"/><polygon points="0 3.83 0 4.68 0.85 4.68 0.85 3.83 0 3.83 0 3.83" fill="#fff" fill-rule="evenodd"/><polygon points="2.55 2.55 2.55 3.4 3.4 3.4 3.4 2.55 2.55 2.55 2.55 2.55" fill="#fff" fill-rule="evenodd"/><polygon points="1.28 2.55 1.28 3.4 2.13 3.4 2.13 2.55 1.28 2.55 1.28 2.55" fill="#fff" fill-rule="evenodd"/><polygon points="0 2.55 0 3.4 0.85 3.4 0.85 2.55 0 2.55 0 2.55" fill="#fff" fill-rule="evenodd"/><polygon points="3.83 1.27 3.83 2.13 4.68 2.13 4.68 1.27 3.83 1.27 3.83 1.27" fill="#fff" fill-rule="evenodd"/><polygon points="2.55 1.27 2.55 2.13 3.4 2.13 3.4 1.27 2.55 1.27 2.55 1.27" fill="#fff" fill-rule="evenodd"/><polygon points="3.83 6.38 3.83 7.23 4.68 7.23 4.68 6.38 3.83 6.38 3.83 6.38" fill="#fff" fill-rule="evenodd"/><polygon points="2.55 6.38 2.55 7.23 3.4 7.23 3.4 6.38 2.55 6.38 2.55 6.38" fill="#fff" fill-rule="evenodd"/><polygon points="1.28 6.38 1.28 7.23 2.13 7.23 2.13 6.38 1.28 6.38 1.28 6.38" fill="#fff" fill-rule="evenodd"/><polygon points="0 6.38 0 7.23 0.85 7.23 0.85 6.38 0 6.38 0 6.38" fill="#fff" fill-rule="evenodd"/><polygon points="3.83 7.65 3.83 8.5 4.68 8.5 4.68 7.65 3.83 7.65 3.83 7.65" fill="#fff" fill-rule="evenodd"/><polygon points="5.11 7.65 5.11 8.5 5.96 8.5 5.96 7.65 5.11 7.65 5.11 7.65" fill="#fff" fill-rule="evenodd"/><polygon points="6.38 7.65 6.38 8.5 7.23 8.5 7.23 7.65 6.38 7.65 6.38 7.65" fill="#fff" fill-rule="evenodd"/><polygon points="7.65 7.65 7.65 8.5 8.5 8.5 8.5 7.65 7.65 7.65 7.65 7.65" fill="#fff" fill-rule="evenodd"/><polygon points="8.93 7.65 8.93 8.5 9.78 8.5 9.78 7.65 8.93 7.65 8.93 7.65" fill="#fff" fill-rule="evenodd"/><polygon points="10.21 7.65 10.21 8.5 11.06 8.5 11.06 7.65 10.21 7.65 10.21 7.65" fill="#fff" fill-rule="evenodd"/><polygon points="11.48 7.65 11.48 8.5 12.33 8.5 12.33 7.65 11.48 7.65 11.48 7.65" fill="#fff" fill-rule="evenodd"/><polygon points="13.18 8.08 13.61 8.5 12.76 8.5 12.76 7.65 13.18 8.08 13.18 8.08" fill="#fff" fill-rule="evenodd"/><polygon points="14.46 9.36 14.88 9.78 14.03 9.78 14.03 8.93 14.46 9.36 14.46 9.36" fill="#fff" fill-rule="evenodd"/><polygon points="12.76 8.93 12.76 9.78 13.61 9.78 13.61 8.93 12.76 8.93 12.76 8.93" fill="#fff" fill-rule="evenodd"/><polygon points="11.48 8.93 11.48 9.78 12.33 9.78 12.33 8.93 11.48 8.93 11.48 8.93" fill="#fff" fill-rule="evenodd"/><polygon points="10.21 8.93 10.21 9.78 11.06 9.78 11.06 8.93 10.21 8.93 10.21 8.93" fill="#fff" fill-rule="evenodd"/><polygon points="8.93 8.93 8.93 9.78 9.78 9.78 9.78 8.93 8.93 8.93 8.93 8.93" fill="#fff" fill-rule="evenodd"/><polygon points="7.65 8.93 7.65 9.78 8.5 9.78 8.5 8.93 7.65 8.93 7.65 8.93" fill="#fff" fill-rule="evenodd"/><polygon points="6.38 8.93 6.38 9.78 7.23 9.78 7.23 8.93 6.38 8.93 6.38 8.93" fill="#fff" fill-rule="evenodd"/><polygon points="5.11 8.93 5.11 9.78 5.96 9.78 5.96 8.93 5.11 8.93 5.11 8.93" fill="#fff" fill-rule="evenodd"/><polygon points="3.83 8.93 3.83 9.78 4.68 9.78 4.68 8.93 3.83 8.93 3.83 8.93" fill="#fff" fill-rule="evenodd"/><polygon points="0 7.65 0 8.5 0.85 8.5 0.85 7.65 0 7.65 0 7.65" fill="#fff" fill-rule="evenodd"/><polygon points="1.28 7.65 1.28 8.5 2.13 8.5 2.13 7.65 1.28 7.65 1.28 7.65" fill="#fff" fill-rule="evenodd"/><polygon points="2.55 7.65 2.55 8.5 3.4 8.5 3.4 7.65 2.55 7.65 2.55 7.65" fill="#fff" fill-rule="evenodd"/><polygon points="2.55 8.93 2.55 9.78 3.4 9.78 3.4 8.93 2.55 8.93 2.55 8.93" fill="#fff" fill-rule="evenodd"/><polygon points="1.28 8.93 1.28 9.78 2.13 9.78 2.13 8.93 1.28 8.93 1.28 8.93" fill="#fff" fill-rule="evenodd"/><polygon points="0 8.93 0 9.78 0.85 9.78 0.85 8.93 0 8.93 0 8.93" fill="#fff" fill-rule="evenodd"/><polygon points="0.43 10.63 0 10.21 0.85 10.21 0.85 11.06 0.43 10.63 0.43 10.63" fill="#fff" fill-rule="evenodd"/><polygon points="1.7 11.9 1.28 11.48 2.13 11.48 2.13 12.33 1.7 11.9 1.7 11.9" fill="#fff" fill-rule="evenodd"/><polygon points="1.28 10.21 1.28 11.06 2.13 11.06 2.13 10.21 1.28 10.21 1.28 10.21" fill="#fff" fill-rule="evenodd"/><polygon points="6.38 10.21 6.38 11.06 7.23 11.06 7.23 10.21 6.38 10.21 6.38 10.21" fill="#fff" fill-rule="evenodd"/><polygon points="7.65 10.21 7.65 11.06 8.5 11.06 8.5 10.21 7.65 10.21 7.65 10.21" fill="#fff" fill-rule="evenodd"/><polygon points="8.93 10.21 8.93 11.06 9.78 11.06 9.78 10.21 8.93 10.21 8.93 10.21" fill="#fff" fill-rule="evenodd"/><polygon points="10.21 10.21 10.21 11.06 11.06 11.06 11.06 10.21 10.21 10.21 10.21 10.21" fill="#fff" fill-rule="evenodd"/><polygon points="11.48 10.21 11.48 11.06 12.33 11.06 12.33 10.21 11.48 10.21 11.48 10.21" fill="#fff" fill-rule="evenodd"/><polygon points="12.76 10.21 12.76 11.06 13.61 11.06 13.61 10.21 12.76 10.21 12.76 10.21" fill="#fff" fill-rule="evenodd"/><polygon points="14.03 10.21 14.03 11.06 14.88 11.06 14.88 10.21 14.03 10.21 14.03 10.21" fill="#fff" fill-rule="evenodd"/><polygon points="14.03 11.48 14.03 12.33 14.88 12.33 14.88 11.48 14.03 11.48 14.03 11.48" fill="#fff" fill-rule="evenodd"/><polygon points="12.76 11.48 12.76 12.33 13.61 12.33 13.61 11.48 12.76 11.48 12.76 11.48" fill="#fff" fill-rule="evenodd"/><polygon points="11.48 11.48 11.48 12.33 12.33 12.33 12.33 11.48 11.48 11.48 11.48 11.48" fill="#fff" fill-rule="evenodd"/><polygon points="10.21 11.48 10.21 12.33 11.06 12.33 11.06 11.48 10.21 11.48 10.21 11.48" fill="#fff" fill-rule="evenodd"/><polygon points="8.93 11.48 8.93 12.33 9.78 12.33 9.78 11.48 8.93 11.48 8.93 11.48" fill="#fff" fill-rule="evenodd"/><polygon points="7.65 11.48 7.65 12.33 8.5 12.33 8.5 11.48 7.65 11.48 7.65 11.48" fill="#fff" fill-rule="evenodd"/><polygon points="6.38 11.48 6.38 12.33 7.23 12.33 7.23 11.48 6.38 11.48 6.38 11.48" fill="#fff" fill-rule="evenodd"/><polygon points="2.55 10.21 2.55 11.06 3.4 11.06 3.4 10.21 2.55 10.21 2.55 10.21" fill="#fff" fill-rule="evenodd"/><polygon points="3.83 10.21 3.83 11.06 4.68 11.06 4.68 10.21 3.83 10.21 3.83 10.21" fill="#fff" fill-rule="evenodd"/><polygon points="5.11 10.21 5.11 11.06 5.96 11.06 5.96 10.21 5.11 10.21 5.11 10.21" fill="#fff" fill-rule="evenodd"/><polygon points="5.11 11.48 5.11 12.33 5.96 12.33 5.96 11.48 5.11 11.48 5.11 11.48" fill="#fff" fill-rule="evenodd"/><polygon points="3.83 11.48 3.83 12.33 4.68 12.33 4.68 11.48 3.83 11.48 3.83 11.48" fill="#fff" fill-rule="evenodd"/><polygon points="2.55 11.48 2.55 12.33 3.4 12.33 3.4 11.48 2.55 11.48 2.55 11.48" fill="#fff" fill-rule="evenodd"/><polygon points="14.03 12.75 14.03 13.6 14.88 13.6 14.88 12.75 14.03 12.75 14.03 12.75" fill="#fff" fill-rule="evenodd"/><polygon points="14.03 14.03 14.03 14.88 14.88 14.88 14.88 14.03 14.03 14.03 14.03 14.03" fill="#fff" fill-rule="evenodd"/><polygon points="14.03 15.31 14.03 16.16 14.88 16.16 14.88 15.31 14.03 15.31 14.03 15.31" fill="#fff" fill-rule="evenodd"/><polygon points="12.76 15.31 12.76 16.16 13.61 16.16 13.61 15.31 12.76 15.31 12.76 15.31" fill="#fff" fill-rule="evenodd"/><polygon points="11.48 15.31 11.48 16.16 12.33 16.16 12.33 15.31 11.48 15.31 11.48 15.31" fill="#fff" fill-rule="evenodd"/><polygon points="10.21 15.31 10.21 16.16 11.06 16.16 11.06 15.31 10.21 15.31 10.21 15.31" fill="#fff" fill-rule="evenodd"/><polygon points="12.76 14.03 12.76 14.88 13.61 14.88 13.61 14.03 12.76 14.03 12.76 14.03" fill="#fff" fill-rule="evenodd"/><polygon points="11.48 14.03 11.48 14.88 12.33 14.88 12.33 14.03 11.48 14.03 11.48 14.03" fill="#fff" fill-rule="evenodd"/><polygon points="10.21 14.03 10.21 14.88 11.06 14.88 11.06 14.03 10.21 14.03 10.21 14.03" fill="#fff" fill-rule="evenodd"/><polygon points="12.76 12.75 12.76 13.6 13.61 13.6 13.61 12.75 12.76 12.75 12.76 12.75" fill="#fff" fill-rule="evenodd"/><polygon points="11.48 12.75 11.48 13.6 12.33 13.6 12.33 12.75 11.48 12.75 11.48 12.75" fill="#fff" fill-rule="evenodd"/><polygon points="10.21 12.75 10.21 13.6 11.06 13.6 11.06 12.75 10.21 12.75 10.21 12.75" fill="#fff" fill-rule="evenodd"/><polygon points="14.03 16.58 14.03 17.43 14.88 17.43 14.88 16.58 14.03 16.58 14.03 16.58" fill="#fff" fill-rule="evenodd"/><polygon points="12.76 16.58 12.76 17.43 13.61 17.43 13.61 16.58 12.76 16.58 12.76 16.58" fill="#fff" fill-rule="evenodd"/><polygon points="11.48 16.58 11.48 17.43 12.33 17.43 12.33 16.58 11.48 16.58 11.48 16.58" fill="#fff" fill-rule="evenodd"/><polygon points="10.21 16.58 10.21 17.43 11.06 17.43 11.06 16.58 10.21 16.58 10.21 16.58" fill="#fff" fill-rule="evenodd"/><polygon points="14.46 18.28 14.88 17.86 14.03 17.86 14.03 18.71 14.46 18.28 14.46 18.28" fill="#fff" fill-rule="evenodd"/><polygon points="13.18 19.55 13.61 19.13 12.76 19.13 12.76 19.98 13.18 19.55 13.18 19.55" fill="#fff" fill-rule="evenodd"/><polygon points="12.76 17.86 12.76 18.71 13.61 18.71 13.61 17.86 12.76 17.86 12.76 17.86" fill="#fff" fill-rule="evenodd"/><polygon points="0.43 18.28 0 17.86 0.85 17.86 0.85 18.71 0.43 18.28 0.43 18.28" fill="#fff" fill-rule="evenodd"/><polygon points="1.7 19.55 1.28 19.13 2.13 19.13 2.13 19.98 1.7 19.55 1.7 19.55" fill="#fff" fill-rule="evenodd"/><polygon points="1.28 17.86 1.28 18.71 2.13 18.71 2.13 17.86 1.28 17.86 1.28 17.86" fill="#fff" fill-rule="evenodd"/><polygon points="6.38 17.86 6.38 18.71 7.23 18.71 7.23 17.86 6.38 17.86 6.38 17.86" fill="#fff" fill-rule="evenodd"/><polygon points="7.65 17.86 7.65 18.71 8.5 18.71 8.5 17.86 7.65 17.86 7.65 17.86" fill="#fff" fill-rule="evenodd"/><polygon points="8.93 17.86 8.93 18.71 9.78 18.71 9.78 17.86 8.93 17.86 8.93 17.86" fill="#fff" fill-rule="evenodd"/><polygon points="10.21 17.86 10.21 18.71 11.06 18.71 11.06 17.86 10.21 17.86 10.21 17.86" fill="#fff" fill-rule="evenodd"/><polygon points="11.48 17.86 11.48 18.71 12.33 18.71 12.33 17.86 11.48 17.86 11.48 17.86" fill="#fff" fill-rule="evenodd"/><polygon points="11.48 19.13 11.48 19.98 12.33 19.98 12.33 19.13 11.48 19.13 11.48 19.13" fill="#fff" fill-rule="evenodd"/><polygon points="10.21 19.13 10.21 19.98 11.06 19.98 11.06 19.13 10.21 19.13 10.21 19.13" fill="#fff" fill-rule="evenodd"/><polygon points="8.93 19.13 8.93 19.98 9.78 19.98 9.78 19.13 8.93 19.13 8.93 19.13" fill="#fff" fill-rule="evenodd"/><polygon points="7.65 19.13 7.65 19.98 8.5 19.98 8.5 19.13 7.65 19.13 7.65 19.13" fill="#fff" fill-rule="evenodd"/><polygon points="6.38 19.13 6.38 19.98 7.23 19.98 7.23 19.13 6.38 19.13 6.38 19.13" fill="#fff" fill-rule="evenodd"/><polygon points="2.55 17.86 2.55 18.71 3.4 18.71 3.4 17.86 2.55 17.86 2.55 17.86" fill="#fff" fill-rule="evenodd"/><polygon points="3.83 17.86 3.83 18.71 4.68 18.71 4.68 17.86 3.83 17.86 3.83 17.86" fill="#fff" fill-rule="evenodd"/><polygon points="5.11 17.86 5.11 18.71 5.96 18.71 5.96 17.86 5.11 17.86 5.11 17.86" fill="#fff" fill-rule="evenodd"/><polygon points="5.11 19.13 5.11 19.98 5.96 19.98 5.96 19.13 5.11 19.13 5.11 19.13" fill="#fff" fill-rule="evenodd"/><polygon points="3.83 19.13 3.83 19.98 4.68 19.98 4.68 19.13 3.83 19.13 3.83 19.13" fill="#fff" fill-rule="evenodd"/><polygon points="2.55 19.13 2.55 19.98 3.4 19.98 3.4 19.13 2.55 19.13 2.55 19.13" fill="#fff" fill-rule="evenodd"/><polygon points="1.28 15.31 1.28 16.16 2.13 16.16 2.13 15.31 1.28 15.31 1.28 15.31" fill="#fff" fill-rule="evenodd"/><polygon points="2.55 15.31 2.55 16.16 3.4 16.16 3.4 15.31 2.55 15.31 2.55 15.31" fill="#fff" fill-rule="evenodd"/><polygon points="3.83 15.31 3.83 16.16 4.68 16.16 4.68 15.31 3.83 15.31 3.83 15.31" fill="#fff" fill-rule="evenodd"/><polygon points="5.11 15.31 5.11 16.16 5.96 16.16 5.96 15.31 5.11 15.31 5.11 15.31" fill="#fff" fill-rule="evenodd"/><polygon points="6.38 15.31 6.38 16.16 7.23 16.16 7.23 15.31 6.38 15.31 6.38 15.31" fill="#fff" fill-rule="evenodd"/><polygon points="7.65 15.31 7.65 16.16 8.5 16.16 8.5 15.31 7.65 15.31 7.65 15.31" fill="#fff" fill-rule="evenodd"/><polygon points="8.93 15.31 8.93 16.16 9.78 16.16 9.78 15.31 8.93 15.31 8.93 15.31" fill="#fff" fill-rule="evenodd"/><polygon points="8.93 16.58 8.93 17.43 9.78 17.43 9.78 16.58 8.93 16.58 8.93 16.58" fill="#fff" fill-rule="evenodd"/><polygon points="7.65 16.58 7.65 17.43 8.5 17.43 8.5 16.58 7.65 16.58 7.65 16.58" fill="#fff" fill-rule="evenodd"/><polygon points="6.38 16.58 6.38 17.43 7.23 17.43 7.23 16.58 6.38 16.58 6.38 16.58" fill="#fff" fill-rule="evenodd"/><polygon points="5.11 16.58 5.11 17.43 5.96 17.43 5.96 16.58 5.11 16.58 5.11 16.58" fill="#fff" fill-rule="evenodd"/><polygon points="3.83 16.58 3.83 17.43 4.68 17.43 4.68 16.58 3.83 16.58 3.83 16.58" fill="#fff" fill-rule="evenodd"/><polygon points="2.55 16.58 2.55 17.43 3.4 17.43 3.4 16.58 2.55 16.58 2.55 16.58" fill="#fff" fill-rule="evenodd"/><polygon points="1.28 16.58 1.28 17.43 2.13 17.43 2.13 16.58 1.28 16.58 1.28 16.58" fill="#fff" fill-rule="evenodd"/><polygon points="0 15.31 0 16.16 0.85 16.16 0.85 15.31 0 15.31 0 15.31" fill="#fff" fill-rule="evenodd"/><polygon points="0 16.58 0 17.43 0.85 17.43 0.85 16.58 0 16.58 0 16.58" fill="#fff" fill-rule="evenodd"/><polygon points="3.83 14.03 3.83 14.88 4.68 14.88 4.68 14.03 3.83 14.03 3.83 14.03" fill="#fff" fill-rule="evenodd"/><polygon points="2.55 14.03 2.55 14.88 3.4 14.88 3.4 14.03 2.55 14.03 2.55 14.03" fill="#fff" fill-rule="evenodd"/><polygon points="1.28 14.03 1.28 14.88 2.13 14.88 2.13 14.03 1.28 14.03 1.28 14.03" fill="#fff" fill-rule="evenodd"/><polygon points="0 14.03 0 14.88 0.85 14.88 0.85 14.03 0 14.03 0 14.03" fill="#fff" fill-rule="evenodd"/><polygon points="17.86 0 17.86 0.85 18.71 0.85 18.71 0 17.86 0 17.86 0" fill="#fff" fill-rule="evenodd"/><polygon points="19.13 0 19.13 0.85 19.98 0.85 19.98 0 19.13 0 19.13 0" fill="#fff" fill-rule="evenodd"/><polygon points="20.41 0 20.41 0.85 21.26 0.85 21.26 0 20.41 0 20.41 0" fill="#fff" fill-rule="evenodd"/><polygon points="21.69 0 21.69 0.85 22.54 0.85 22.54 0 21.69 0 21.69 0" fill="#fff" fill-rule="evenodd"/><polygon points="21.69 1.27 21.69 2.13 22.54 2.13 22.54 1.27 21.69 1.27 21.69 1.27" fill="#fff" fill-rule="evenodd"/><polygon points="20.41 1.27 20.41 2.13 21.26 2.13 21.26 1.27 20.41 1.27 20.41 1.27" fill="#fff" fill-rule="evenodd"/><polygon points="19.13 1.27 19.13 2.13 19.98 2.13 19.98 1.27 19.13 1.27 19.13 1.27" fill="#fff" fill-rule="evenodd"/><polygon points="17.86 1.27 17.86 2.13 18.71 2.13 18.71 1.27 17.86 1.27 17.86 1.27" fill="#fff" fill-rule="evenodd"/><polygon points="19.13 2.55 19.13 3.4 19.98 3.4 19.98 2.55 19.13 2.55 19.13 2.55" fill="#fff" fill-rule="evenodd"/><polygon points="20.41 2.55 20.41 3.4 21.26 3.4 21.26 2.55 20.41 2.55 20.41 2.55" fill="#fff" fill-rule="evenodd"/><polygon points="21.69 2.55 21.69 3.4 22.54 3.4 22.54 2.55 21.69 2.55 21.69 2.55" fill="#fff" fill-rule="evenodd"/><polygon points="21.69 3.83 21.69 4.68 22.54 4.68 22.54 3.83 21.69 3.83 21.69 3.83" fill="#fff" fill-rule="evenodd"/><polygon points="20.41 3.83 20.41 4.68 21.26 4.68 21.26 3.83 20.41 3.83 20.41 3.83" fill="#fff" fill-rule="evenodd"/><polygon points="19.13 3.83 19.13 4.68 19.98 4.68 19.98 3.83 19.13 3.83 19.13 3.83" fill="#fff" fill-rule="evenodd"/><polygon points="17.86 2.55 17.86 3.4 18.71 3.4 18.71 2.55 17.86 2.55 17.86 2.55" fill="#fff" fill-rule="evenodd"/><polygon points="17.86 3.83 17.86 4.68 18.71 4.68 18.71 3.83 17.86 3.83 17.86 3.83" fill="#fff" fill-rule="evenodd"/><polygon points="17.86 5.1 17.86 5.95 18.71 5.95 18.71 5.1 17.86 5.1 17.86 5.1" fill="#fff" fill-rule="evenodd"/><polygon points="19.13 5.1 19.13 5.95 19.98 5.95 19.98 5.1 19.13 5.1 19.13 5.1" fill="#fff" fill-rule="evenodd"/><polygon points="20.41 5.1 20.41 5.95 21.26 5.95 21.26 5.1 20.41 5.1 20.41 5.1" fill="#fff" fill-rule="evenodd"/><polygon points="21.69 5.1 21.69 5.95 22.54 5.95 22.54 5.1 21.69 5.1 21.69 5.1" fill="#fff" fill-rule="evenodd"/><polygon points="21.69 6.38 21.69 7.23 22.54 7.23 22.54 6.38 21.69 6.38 21.69 6.38" fill="#fff" fill-rule="evenodd"/><polygon points="20.41 6.38 20.41 7.23 21.26 7.23 21.26 6.38 20.41 6.38 20.41 6.38" fill="#fff" fill-rule="evenodd"/><polygon points="19.13 6.38 19.13 7.23 19.98 7.23 19.98 6.38 19.13 6.38 19.13 6.38" fill="#fff" fill-rule="evenodd"/><polygon points="17.86 6.38 17.86 7.23 18.71 7.23 18.71 6.38 17.86 6.38 17.86 6.38" fill="#fff" fill-rule="evenodd"/><polygon points="19.13 7.65 19.13 8.5 19.98 8.5 19.98 7.65 19.13 7.65 19.13 7.65" fill="#fff" fill-rule="evenodd"/><polygon points="20.41 7.65 20.41 8.5 21.26 8.5 21.26 7.65 20.41 7.65 20.41 7.65" fill="#fff" fill-rule="evenodd"/><polygon points="21.69 7.65 21.69 8.5 22.54 8.5 22.54 7.65 21.69 7.65 21.69 7.65" fill="#fff" fill-rule="evenodd"/><polygon points="21.69 8.93 21.69 9.78 22.54 9.78 22.54 8.93 21.69 8.93 21.69 8.93" fill="#fff" fill-rule="evenodd"/><polygon points="20.41 8.93 20.41 9.78 21.26 9.78 21.26 8.93 20.41 8.93 20.41 8.93" fill="#fff" fill-rule="evenodd"/><polygon points="19.13 8.93 19.13 9.78 19.98 9.78 19.98 8.93 19.13 8.93 19.13 8.93" fill="#fff" fill-rule="evenodd"/><polygon points="17.86 7.65 17.86 8.5 18.71 8.5 18.71 7.65 17.86 7.65 17.86 7.65" fill="#fff" fill-rule="evenodd"/><polygon points="17.86 8.93 17.86 9.78 18.71 9.78 18.71 8.93 17.86 8.93 17.86 8.93" fill="#fff" fill-rule="evenodd"/><polygon points="19.13 10.21 19.13 11.06 19.98 11.06 19.98 10.21 19.13 10.21 19.13 10.21" fill="#fff" fill-rule="evenodd"/><polygon points="20.41 10.21 20.41 11.06 21.26 11.06 21.26 10.21 20.41 10.21 20.41 10.21" fill="#fff" fill-rule="evenodd"/><polygon points="21.69 10.21 21.69 11.06 22.54 11.06 22.54 10.21 21.69 10.21 21.69 10.21" fill="#fff" fill-rule="evenodd"/><polygon points="21.69 11.48 21.69 12.33 22.54 12.33 22.54 11.48 21.69 11.48 21.69 11.48" fill="#fff" fill-rule="evenodd"/><polygon points="20.41 11.48 20.41 12.33 21.26 12.33 21.26 11.48 20.41 11.48 20.41 11.48" fill="#fff" fill-rule="evenodd"/><polygon points="19.13 11.48 19.13 12.33 19.98 12.33 19.98 11.48 19.13 11.48 19.13 11.48" fill="#fff" fill-rule="evenodd"/><polygon points="17.86 10.21 17.86 11.06 18.71 11.06 18.71 10.21 17.86 10.21 17.86 10.21" fill="#fff" fill-rule="evenodd"/><polygon points="17.86 11.48 17.86 12.33 18.71 12.33 18.71 11.48 17.86 11.48 17.86 11.48" fill="#fff" fill-rule="evenodd"/><polygon points="19.13 12.75 19.13 13.6 19.98 13.6 19.98 12.75 19.13 12.75 19.13 12.75" fill="#fff" fill-rule="evenodd"/><polygon points="20.41 12.75 20.41 13.6 21.26 13.6 21.26 12.75 20.41 12.75 20.41 12.75" fill="#fff" fill-rule="evenodd"/><polygon points="21.69 12.75 21.69 13.6 22.54 13.6 22.54 12.75 21.69 12.75 21.69 12.75" fill="#fff" fill-rule="evenodd"/><polygon points="21.69 14.03 21.69 14.88 22.54 14.88 22.54 14.03 21.69 14.03 21.69 14.03" fill="#fff" fill-rule="evenodd"/><polygon points="20.41 14.03 20.41 14.88 21.26 14.88 21.26 14.03 20.41 14.03 20.41 14.03" fill="#fff" fill-rule="evenodd"/><polygon points="19.13 14.03 19.13 14.88 19.98 14.88 19.98 14.03 19.13 14.03 19.13 14.03" fill="#fff" fill-rule="evenodd"/><polygon points="17.86 12.75 17.86 13.6 18.71 13.6 18.71 12.75 17.86 12.75 17.86 12.75" fill="#fff" fill-rule="evenodd"/><polygon points="17.86 14.03 17.86 14.88 18.71 14.88 18.71 14.03 17.86 14.03 17.86 14.03" fill="#fff" fill-rule="evenodd"/><polygon points="19.13 15.31 19.13 16.16 19.98 16.16 19.98 15.31 19.13 15.31 19.13 15.31" fill="#fff" fill-rule="evenodd"/><polygon points="20.41 15.31 20.41 16.16 21.26 16.16 21.26 15.31 20.41 15.31 20.41 15.31" fill="#fff" fill-rule="evenodd"/><polygon points="21.69 15.31 21.69 16.16 22.54 16.16 22.54 15.31 21.69 15.31 21.69 15.31" fill="#fff" fill-rule="evenodd"/><polygon points="21.69 16.58 21.69 17.43 22.54 17.43 22.54 16.58 21.69 16.58 21.69 16.58" fill="#fff" fill-rule="evenodd"/><polygon points="20.41 16.58 20.41 17.43 21.26 17.43 21.26 16.58 20.41 16.58 20.41 16.58" fill="#fff" fill-rule="evenodd"/><polygon points="19.13 16.58 19.13 17.43 19.98 17.43 19.98 16.58 19.13 16.58 19.13 16.58" fill="#fff" fill-rule="evenodd"/><polygon points="17.86 15.31 17.86 16.16 18.71 16.16 18.71 15.31 17.86 15.31 17.86 15.31" fill="#fff" fill-rule="evenodd"/><polygon points="17.86 16.58 17.86 17.43 18.71 17.43 18.71 16.58 17.86 16.58 17.86 16.58" fill="#fff" fill-rule="evenodd"/><polygon points="19.13 17.86 19.13 18.71 19.98 18.71 19.98 17.86 19.13 17.86 19.13 17.86" fill="#fff" fill-rule="evenodd"/><polygon points="20.41 17.86 20.41 18.71 21.26 18.71 21.26 17.86 20.41 17.86 20.41 17.86" fill="#fff" fill-rule="evenodd"/><polygon points="21.69 17.86 21.69 18.71 22.54 18.71 22.54 17.86 21.69 17.86 21.69 17.86" fill="#fff" fill-rule="evenodd"/><polygon points="21.69 19.13 21.69 19.98 22.54 19.98 22.54 19.13 21.69 19.13 21.69 19.13" fill="#fff" fill-rule="evenodd"/><polygon points="20.41 19.13 20.41 19.98 21.26 19.98 21.26 19.13 20.41 19.13 20.41 19.13" fill="#fff" fill-rule="evenodd"/><polygon points="19.13 19.13 19.13 19.98 19.98 19.98 19.98 19.13 19.13 19.13 19.13 19.13" fill="#fff" fill-rule="evenodd"/><polygon points="17.86 17.86 17.86 18.71 18.71 18.71 18.71 17.86 17.86 17.86 17.86 17.86" fill="#fff" fill-rule="evenodd"/><polygon points="17.86 19.13 17.86 19.98 18.71 19.98 18.71 19.13 17.86 19.13 17.86 19.13" fill="#fff" fill-rule="evenodd"/><polygon points="24.24 7.65 24.24 8.5 25.09 8.5 25.09 7.65 24.24 7.65 24.24 7.65" fill="#fff" fill-rule="evenodd"/><polygon points="25.51 7.65 25.51 8.5 26.36 8.5 26.36 7.65 25.51 7.65 25.51 7.65" fill="#fff" fill-rule="evenodd"/><polygon points="26.79 7.65 26.79 8.5 27.64 8.5 27.64 7.65 26.79 7.65 26.79 7.65" fill="#fff" fill-rule="evenodd"/><polygon points="26.79 8.93 26.79 9.78 27.64 9.78 27.64 8.93 26.79 8.93 26.79 8.93" fill="#fff" fill-rule="evenodd"/><polygon points="25.51 8.93 25.51 9.78 26.36 9.78 26.36 8.93 25.51 8.93 25.51 8.93" fill="#fff" fill-rule="evenodd"/><polygon points="24.24 8.93 24.24 9.78 25.09 9.78 25.09 8.93 24.24 8.93 24.24 8.93" fill="#fff" fill-rule="evenodd"/><polygon points="22.96 7.65 22.96 8.5 23.81 8.5 23.81 7.65 22.96 7.65 22.96 7.65" fill="#fff" fill-rule="evenodd"/><polygon points="22.96 8.93 22.96 9.78 23.81 9.78 23.81 8.93 22.96 8.93 22.96 8.93" fill="#fff" fill-rule="evenodd"/><polygon points="24.24 10.21 24.24 11.06 25.09 11.06 25.09 10.21 24.24 10.21 24.24 10.21" fill="#fff" fill-rule="evenodd"/><polygon points="25.51 10.21 25.51 11.06 26.36 11.06 26.36 10.21 25.51 10.21 25.51 10.21" fill="#fff" fill-rule="evenodd"/><polygon points="26.79 10.21 26.79 11.06 27.64 11.06 27.64 10.21 26.79 10.21 26.79 10.21" fill="#fff" fill-rule="evenodd"/><polygon points="26.79 11.48 26.79 12.33 27.64 12.33 27.64 11.48 26.79 11.48 26.79 11.48" fill="#fff" fill-rule="evenodd"/><polygon points="25.51 11.48 25.51 12.33 26.36 12.33 26.36 11.48 25.51 11.48 25.51 11.48" fill="#fff" fill-rule="evenodd"/><polygon points="24.24 11.48 24.24 12.33 25.09 12.33 25.09 11.48 24.24 11.48 24.24 11.48" fill="#fff" fill-rule="evenodd"/><polygon points="22.96 10.21 22.96 11.06 23.81 11.06 23.81 10.21 22.96 10.21 22.96 10.21" fill="#fff" fill-rule="evenodd"/><polygon points="22.96 11.48 22.96 12.33 23.81 12.33 23.81 11.48 22.96 11.48 22.96 11.48" fill="#fff" fill-rule="evenodd"/><polygon points="28.07 0 28.07 0.85 28.92 0.85 28.92 0 28.07 0 28.07 0" fill="#fff" fill-rule="evenodd"/><polygon points="29.34 0 29.34 0.85 30.19 0.85 30.19 0 29.34 0 29.34 0" fill="#fff" fill-rule="evenodd"/><polygon points="30.61 0 30.61 0.85 31.46 0.85 31.46 0 30.61 0 30.61 0" fill="#fff" fill-rule="evenodd"/><polygon points="31.89 0 31.89 0.85 32.74 0.85 32.74 0 31.89 0 31.89 0" fill="#fff" fill-rule="evenodd"/><polygon points="31.89 1.27 31.89 2.13 32.74 2.13 32.74 1.27 31.89 1.27 31.89 1.27" fill="#fff" fill-rule="evenodd"/><polygon points="30.61 1.27 30.61 2.13 31.46 2.13 31.46 1.27 30.61 1.27 30.61 1.27" fill="#fff" fill-rule="evenodd"/><polygon points="29.34 1.27 29.34 2.13 30.19 2.13 30.19 1.27 29.34 1.27 29.34 1.27" fill="#fff" fill-rule="evenodd"/><polygon points="28.07 1.27 28.07 2.13 28.92 2.13 28.92 1.27 28.07 1.27 28.07 1.27" fill="#fff" fill-rule="evenodd"/><polygon points="29.34 2.55 29.34 3.4 30.19 3.4 30.19 2.55 29.34 2.55 29.34 2.55" fill="#fff" fill-rule="evenodd"/><polygon points="30.61 2.55 30.61 3.4 31.46 3.4 31.46 2.55 30.61 2.55 30.61 2.55" fill="#fff" fill-rule="evenodd"/><polygon points="31.89 2.55 31.89 3.4 32.74 3.4 32.74 2.55 31.89 2.55 31.89 2.55" fill="#fff" fill-rule="evenodd"/><polygon points="31.89 3.83 31.89 4.68 32.74 4.68 32.74 3.83 31.89 3.83 31.89 3.83" fill="#fff" fill-rule="evenodd"/><polygon points="30.61 3.83 30.61 4.68 31.46 4.68 31.46 3.83 30.61 3.83 30.61 3.83" fill="#fff" fill-rule="evenodd"/><polygon points="29.34 3.83 29.34 4.68 30.19 4.68 30.19 3.83 29.34 3.83 29.34 3.83" fill="#fff" fill-rule="evenodd"/><polygon points="28.07 2.55 28.07 3.4 28.92 3.4 28.92 2.55 28.07 2.55 28.07 2.55" fill="#fff" fill-rule="evenodd"/><polygon points="28.07 3.83 28.07 4.68 28.92 4.68 28.92 3.83 28.07 3.83 28.07 3.83" fill="#fff" fill-rule="evenodd"/><polygon points="28.07 5.1 28.07 5.95 28.92 5.95 28.92 5.1 28.07 5.1 28.07 5.1" fill="#fff" fill-rule="evenodd"/><polygon points="29.34 5.1 29.34 5.95 30.19 5.95 30.19 5.1 29.34 5.1 29.34 5.1" fill="#fff" fill-rule="evenodd"/><polygon points="30.61 5.1 30.61 5.95 31.46 5.95 31.46 5.1 30.61 5.1 30.61 5.1" fill="#fff" fill-rule="evenodd"/><polygon points="31.89 5.1 31.89 5.95 32.74 5.95 32.74 5.1 31.89 5.1 31.89 5.1" fill="#fff" fill-rule="evenodd"/><polygon points="31.89 6.38 31.89 7.23 32.74 7.23 32.74 6.38 31.89 6.38 31.89 6.38" fill="#fff" fill-rule="evenodd"/><polygon points="30.61 6.38 30.61 7.23 31.46 7.23 31.46 6.38 30.61 6.38 30.61 6.38" fill="#fff" fill-rule="evenodd"/><polygon points="29.34 6.38 29.34 7.23 30.19 7.23 30.19 6.38 29.34 6.38 29.34 6.38" fill="#fff" fill-rule="evenodd"/><polygon points="28.07 6.38 28.07 7.23 28.92 7.23 28.92 6.38 28.07 6.38 28.07 6.38" fill="#fff" fill-rule="evenodd"/><polygon points="29.34 7.65 29.34 8.5 30.19 8.5 30.19 7.65 29.34 7.65 29.34 7.65" fill="#fff" fill-rule="evenodd"/><polygon points="30.61 7.65 30.61 8.5 31.46 8.5 31.46 7.65 30.61 7.65 30.61 7.65" fill="#fff" fill-rule="evenodd"/><polygon points="31.89 7.65 31.89 8.5 32.74 8.5 32.74 7.65 31.89 7.65 31.89 7.65" fill="#fff" fill-rule="evenodd"/><polygon points="31.89 8.93 31.89 9.78 32.74 9.78 32.74 8.93 31.89 8.93 31.89 8.93" fill="#fff" fill-rule="evenodd"/><polygon points="30.61 8.93 30.61 9.78 31.46 9.78 31.46 8.93 30.61 8.93 30.61 8.93" fill="#fff" fill-rule="evenodd"/><polygon points="29.34 8.93 29.34 9.78 30.19 9.78 30.19 8.93 29.34 8.93 29.34 8.93" fill="#fff" fill-rule="evenodd"/><polygon points="28.07 7.65 28.07 8.5 28.92 8.5 28.92 7.65 28.07 7.65 28.07 7.65" fill="#fff" fill-rule="evenodd"/><polygon points="28.07 8.93 28.07 9.78 28.92 9.78 28.92 8.93 28.07 8.93 28.07 8.93" fill="#fff" fill-rule="evenodd"/><polygon points="29.34 10.21 29.34 11.06 30.19 11.06 30.19 10.21 29.34 10.21 29.34 10.21" fill="#fff" fill-rule="evenodd"/><polygon points="30.61 10.21 30.61 11.06 31.46 11.06 31.46 10.21 30.61 10.21 30.61 10.21" fill="#fff" fill-rule="evenodd"/><polygon points="31.89 10.21 31.89 11.06 32.74 11.06 32.74 10.21 31.89 10.21 31.89 10.21" fill="#fff" fill-rule="evenodd"/><polygon points="31.89 11.48 31.89 12.33 32.74 12.33 32.74 11.48 31.89 11.48 31.89 11.48" fill="#fff" fill-rule="evenodd"/><polygon points="30.61 11.48 30.61 12.33 31.46 12.33 31.46 11.48 30.61 11.48 30.61 11.48" fill="#fff" fill-rule="evenodd"/><polygon points="29.34 11.48 29.34 12.33 30.19 12.33 30.19 11.48 29.34 11.48 29.34 11.48" fill="#fff" fill-rule="evenodd"/><polygon points="28.07 10.21 28.07 11.06 28.92 11.06 28.92 10.21 28.07 10.21 28.07 10.21" fill="#fff" fill-rule="evenodd"/><polygon points="28.07 11.48 28.07 12.33 28.92 12.33 28.92 11.48 28.07 11.48 28.07 11.48" fill="#fff" fill-rule="evenodd"/><polygon points="29.34 12.75 29.34 13.6 30.19 13.6 30.19 12.75 29.34 12.75 29.34 12.75" fill="#fff" fill-rule="evenodd"/><polygon points="30.61 12.75 30.61 13.6 31.46 13.6 31.46 12.75 30.61 12.75 30.61 12.75" fill="#fff" fill-rule="evenodd"/><polygon points="31.89 12.75 31.89 13.6 32.74 13.6 32.74 12.75 31.89 12.75 31.89 12.75" fill="#fff" fill-rule="evenodd"/><polygon points="31.89 14.03 31.89 14.88 32.74 14.88 32.74 14.03 31.89 14.03 31.89 14.03" fill="#fff" fill-rule="evenodd"/><polygon points="30.61 14.03 30.61 14.88 31.46 14.88 31.46 14.03 30.61 14.03 30.61 14.03" fill="#fff" fill-rule="evenodd"/><polygon points="29.34 14.03 29.34 14.88 30.19 14.88 30.19 14.03 29.34 14.03 29.34 14.03" fill="#fff" fill-rule="evenodd"/><polygon points="28.07 12.75 28.07 13.6 28.92 13.6 28.92 12.75 28.07 12.75 28.07 12.75" fill="#fff" fill-rule="evenodd"/><polygon points="28.07 14.03 28.07 14.88 28.92 14.88 28.92 14.03 28.07 14.03 28.07 14.03" fill="#fff" fill-rule="evenodd"/><polygon points="29.34 15.31 29.34 16.16 30.19 16.16 30.19 15.31 29.34 15.31 29.34 15.31" fill="#fff" fill-rule="evenodd"/><polygon points="30.61 15.31 30.61 16.16 31.46 16.16 31.46 15.31 30.61 15.31 30.61 15.31" fill="#fff" fill-rule="evenodd"/><polygon points="31.89 15.31 31.89 16.16 32.74 16.16 32.74 15.31 31.89 15.31 31.89 15.31" fill="#fff" fill-rule="evenodd"/><polygon points="31.89 16.58 31.89 17.43 32.74 17.43 32.74 16.58 31.89 16.58 31.89 16.58" fill="#fff" fill-rule="evenodd"/><polygon points="30.61 16.58 30.61 17.43 31.46 17.43 31.46 16.58 30.61 16.58 30.61 16.58" fill="#fff" fill-rule="evenodd"/><polygon points="29.34 16.58 29.34 17.43 30.19 17.43 30.19 16.58 29.34 16.58 29.34 16.58" fill="#fff" fill-rule="evenodd"/><polygon points="28.07 15.31 28.07 16.16 28.92 16.16 28.92 15.31 28.07 15.31 28.07 15.31" fill="#fff" fill-rule="evenodd"/><polygon points="28.07 16.58 28.07 17.43 28.92 17.43 28.92 16.58 28.07 16.58 28.07 16.58" fill="#fff" fill-rule="evenodd"/><polygon points="29.34 17.86 29.34 18.71 30.19 18.71 30.19 17.86 29.34 17.86 29.34 17.86" fill="#fff" fill-rule="evenodd"/><polygon points="30.61 17.86 30.61 18.71 31.46 18.71 31.46 17.86 30.61 17.86 30.61 17.86" fill="#fff" fill-rule="evenodd"/><polygon points="31.89 17.86 31.89 18.71 32.74 18.71 32.74 17.86 31.89 17.86 31.89 17.86" fill="#fff" fill-rule="evenodd"/><polygon points="31.89 19.13 31.89 19.98 32.74 19.98 32.74 19.13 31.89 19.13 31.89 19.13" fill="#fff" fill-rule="evenodd"/><polygon points="30.61 19.13 30.61 19.98 31.46 19.98 31.46 19.13 30.61 19.13 30.61 19.13" fill="#fff" fill-rule="evenodd"/><polygon points="29.34 19.13 29.34 19.98 30.19 19.98 30.19 19.13 29.34 19.13 29.34 19.13" fill="#fff" fill-rule="evenodd"/><polygon points="28.07 17.86 28.07 18.71 28.92 18.71 28.92 17.86 28.07 17.86 28.07 17.86" fill="#fff" fill-rule="evenodd"/><polygon points="28.07 19.13 28.07 19.98 28.92 19.98 28.92 19.13 28.07 19.13 28.07 19.13" fill="#fff" fill-rule="evenodd"/><polygon points="36.99 7.65 36.99 8.5 37.84 8.5 37.84 7.65 36.99 7.65 36.99 7.65" fill="#fff" fill-rule="evenodd"/><polygon points="38.27 7.65 38.27 8.5 39.12 8.5 39.12 7.65 38.27 7.65 38.27 7.65" fill="#fff" fill-rule="evenodd"/><polygon points="39.55 7.65 39.55 8.5 40.4 8.5 40.4 7.65 39.55 7.65 39.55 7.65" fill="#fff" fill-rule="evenodd"/><polygon points="39.55 8.93 39.55 9.78 40.4 9.78 40.4 8.93 39.55 8.93 39.55 8.93" fill="#fff" fill-rule="evenodd"/><polygon points="38.27 8.93 38.27 9.78 39.12 9.78 39.12 8.93 38.27 8.93 38.27 8.93" fill="#fff" fill-rule="evenodd"/><polygon points="36.99 8.93 36.99 9.78 37.84 9.78 37.84 8.93 36.99 8.93 36.99 8.93" fill="#fff" fill-rule="evenodd"/><polygon points="35.72 7.65 35.72 8.5 36.57 8.5 36.57 7.65 35.72 7.65 35.72 7.65" fill="#fff" fill-rule="evenodd"/><polygon points="35.72 8.93 35.72 9.78 36.57 9.78 36.57 8.93 35.72 8.93 35.72 8.93" fill="#fff" fill-rule="evenodd"/><polygon points="36.99 10.21 36.99 11.06 37.84 11.06 37.84 10.21 36.99 10.21 36.99 10.21" fill="#fff" fill-rule="evenodd"/><polygon points="38.27 10.21 38.27 11.06 39.12 11.06 39.12 10.21 38.27 10.21 38.27 10.21" fill="#fff" fill-rule="evenodd"/><polygon points="39.55 10.21 39.55 11.06 40.4 11.06 40.4 10.21 39.55 10.21 39.55 10.21" fill="#fff" fill-rule="evenodd"/><polygon points="39.55 11.48 39.55 12.33 40.4 12.33 40.4 11.48 39.55 11.48 39.55 11.48" fill="#fff" fill-rule="evenodd"/><polygon points="38.27 11.48 38.27 12.33 39.12 12.33 39.12 11.48 38.27 11.48 38.27 11.48" fill="#fff" fill-rule="evenodd"/><polygon points="36.99 11.48 36.99 12.33 37.84 12.33 37.84 11.48 36.99 11.48 36.99 11.48" fill="#fff" fill-rule="evenodd"/><polygon points="35.72 10.21 35.72 11.06 36.57 11.06 36.57 10.21 35.72 10.21 35.72 10.21" fill="#fff" fill-rule="evenodd"/><polygon points="35.72 11.48 35.72 12.33 36.57 12.33 36.57 11.48 35.72 11.48 35.72 11.48" fill="#fff" fill-rule="evenodd"/><polygon points="42.09 7.65 42.09 8.5 42.94 8.5 42.94 7.65 42.09 7.65 42.09 7.65" fill="#fff" fill-rule="evenodd"/><polygon points="42.09 8.93 42.09 9.78 42.94 9.78 42.94 8.93 42.09 8.93 42.09 8.93" fill="#fff" fill-rule="evenodd"/><polygon points="40.82 7.65 40.82 8.5 41.67 8.5 41.67 7.65 40.82 7.65 40.82 7.65" fill="#fff" fill-rule="evenodd"/><polygon points="40.82 8.93 40.82 9.78 41.67 9.78 41.67 8.93 40.82 8.93 40.82 8.93" fill="#fff" fill-rule="evenodd"/><polygon points="42.09 10.21 42.09 11.06 42.94 11.06 42.94 10.21 42.09 10.21 42.09 10.21" fill="#fff" fill-rule="evenodd"/><polygon points="42.09 11.48 42.09 12.33 42.94 12.33 42.94 11.48 42.09 11.48 42.09 11.48" fill="#fff" fill-rule="evenodd"/><polygon points="40.82 10.21 40.82 11.06 41.67 11.06 41.67 10.21 40.82 10.21 40.82 10.21" fill="#fff" fill-rule="evenodd"/><polygon points="40.82 11.48 40.82 12.33 41.67 12.33 41.67 11.48 40.82 11.48 40.82 11.48" fill="#fff" fill-rule="evenodd"/><polygon points="48.47 8.93 48.47 9.78 49.32 9.78 49.32 8.93 48.47 8.93 48.47 8.93" fill="#fff" fill-rule="evenodd"/><polygon points="49.75 8.93 49.75 9.78 50.6 9.78 50.6 8.93 49.75 8.93 49.75 8.93" fill="#fff" fill-rule="evenodd"/><polygon points="52.3 8.93 52.3 9.78 53.15 9.78 53.15 8.93 52.3 8.93 52.3 8.93" fill="#fff" fill-rule="evenodd"/><polygon points="51.02 8.93 51.02 9.78 51.88 9.78 51.88 8.93 51.02 8.93 51.02 8.93" fill="#fff" fill-rule="evenodd"/><polygon points="48.47 10.21 48.47 11.06 49.32 11.06 49.32 10.21 48.47 10.21 48.47 10.21" fill="#fff" fill-rule="evenodd"/><polygon points="49.75 10.21 49.75 11.06 50.6 11.06 50.6 10.21 49.75 10.21 49.75 10.21" fill="#fff" fill-rule="evenodd"/><polygon points="52.3 10.21 52.3 11.06 53.15 11.06 53.15 10.21 52.3 10.21 52.3 10.21" fill="#fff" fill-rule="evenodd"/><polygon points="51.02 10.21 51.02 11.06 51.88 11.06 51.88 10.21 51.02 10.21 51.02 10.21" fill="#fff" fill-rule="evenodd"/><polygon points="52.3 11.48 52.3 12.33 53.15 12.33 53.15 11.48 52.3 11.48 52.3 11.48" fill="#fff" fill-rule="evenodd"/><polygon points="51.02 11.48 51.02 12.33 51.88 12.33 51.88 11.48 51.02 11.48 51.02 11.48" fill="#fff" fill-rule="evenodd"/><polygon points="49.75 11.48 49.75 12.33 50.6 12.33 50.6 11.48 49.75 11.48 49.75 11.48" fill="#fff" fill-rule="evenodd"/><polygon points="48.47 11.48 48.47 12.33 49.32 12.33 49.32 11.48 48.47 11.48 48.47 11.48" fill="#fff" fill-rule="evenodd"/><polygon points="49.75 12.75 49.75 13.6 50.6 13.6 50.6 12.75 49.75 12.75 49.75 12.75" fill="#fff" fill-rule="evenodd"/><polygon points="51.02 12.75 51.02 13.6 51.88 13.6 51.88 12.75 51.02 12.75 51.02 12.75" fill="#fff" fill-rule="evenodd"/><polygon points="52.3 12.75 52.3 13.6 53.15 13.6 53.15 12.75 52.3 12.75 52.3 12.75" fill="#fff" fill-rule="evenodd"/><polygon points="52.3 14.03 52.3 14.88 53.15 14.88 53.15 14.03 52.3 14.03 52.3 14.03" fill="#fff" fill-rule="evenodd"/><polygon points="51.02 14.03 51.02 14.88 51.88 14.88 51.88 14.03 51.02 14.03 51.02 14.03" fill="#fff" fill-rule="evenodd"/><polygon points="49.75 14.03 49.75 14.88 50.6 14.88 50.6 14.03 49.75 14.03 49.75 14.03" fill="#fff" fill-rule="evenodd"/><polygon points="48.47 12.75 48.47 13.6 49.32 13.6 49.32 12.75 48.47 12.75 48.47 12.75" fill="#fff" fill-rule="evenodd"/><polygon points="48.47 14.03 48.47 14.88 49.32 14.88 49.32 14.03 48.47 14.03 48.47 14.03" fill="#fff" fill-rule="evenodd"/><polygon points="49.75 15.31 49.75 16.16 50.6 16.16 50.6 15.31 49.75 15.31 49.75 15.31" fill="#fff" fill-rule="evenodd"/><polygon points="51.02 15.31 51.02 16.16 51.88 16.16 51.88 15.31 51.02 15.31 51.02 15.31" fill="#fff" fill-rule="evenodd"/><polygon points="52.3 15.31 52.3 16.16 53.15 16.16 53.15 15.31 52.3 15.31 52.3 15.31" fill="#fff" fill-rule="evenodd"/><polygon points="52.3 16.58 52.3 17.43 53.15 17.43 53.15 16.58 52.3 16.58 52.3 16.58" fill="#fff" fill-rule="evenodd"/><polygon points="51.02 16.58 51.02 17.43 51.88 17.43 51.88 16.58 51.02 16.58 51.02 16.58" fill="#fff" fill-rule="evenodd"/><polygon points="49.75 16.58 49.75 17.43 50.6 17.43 50.6 16.58 49.75 16.58 49.75 16.58" fill="#fff" fill-rule="evenodd"/><polygon points="48.47 15.31 48.47 16.16 49.32 16.16 49.32 15.31 48.47 15.31 48.47 15.31" fill="#fff" fill-rule="evenodd"/><polygon points="48.47 16.58 48.47 17.43 49.32 17.43 49.32 16.58 48.47 16.58 48.47 16.58" fill="#fff" fill-rule="evenodd"/><polygon points="49.75 17.86 49.75 18.71 50.6 18.71 50.6 17.86 49.75 17.86 49.75 17.86" fill="#fff" fill-rule="evenodd"/><polygon points="51.02 17.86 51.02 18.71 51.88 18.71 51.88 17.86 51.02 17.86 51.02 17.86" fill="#fff" fill-rule="evenodd"/><polygon points="52.3 17.86 52.3 18.71 53.15 18.71 53.15 17.86 52.3 17.86 52.3 17.86" fill="#fff" fill-rule="evenodd"/><polygon points="52.3 19.13 52.3 19.98 53.15 19.98 53.15 19.13 52.3 19.13 52.3 19.13" fill="#fff" fill-rule="evenodd"/><polygon points="51.02 19.13 51.02 19.98 51.88 19.98 51.88 19.13 51.02 19.13 51.02 19.13" fill="#fff" fill-rule="evenodd"/><polygon points="49.75 19.13 49.75 19.98 50.6 19.98 50.6 19.13 49.75 19.13 49.75 19.13" fill="#fff" fill-rule="evenodd"/><polygon points="48.47 17.86 48.47 18.71 49.32 18.71 49.32 17.86 48.47 17.86 48.47 17.86" fill="#fff" fill-rule="evenodd"/><polygon points="48.47 19.13 48.47 19.98 49.32 19.98 49.32 19.13 48.47 19.13 48.47 19.13" fill="#fff" fill-rule="evenodd"/><polygon points="48.47 0 48.47 0.85 49.32 0.85 49.32 0 48.47 0 48.47 0" fill="#fff" fill-rule="evenodd"/><polygon points="49.75 0 49.75 0.85 50.6 0.85 50.6 0 49.75 0 49.75 0" fill="#fff" fill-rule="evenodd"/><polygon points="51.02 0 51.02 0.85 51.88 0.85 51.88 0 51.02 0 51.02 0" fill="#fff" fill-rule="evenodd"/><polygon points="52.3 0 52.3 0.85 53.15 0.85 53.15 0 52.3 0 52.3 0" fill="#fff" fill-rule="evenodd"/><polygon points="52.3 1.27 52.3 2.13 53.15 2.13 53.15 1.27 52.3 1.27 52.3 1.27" fill="#fff" fill-rule="evenodd"/><polygon points="51.02 1.27 51.02 2.13 51.88 2.13 51.88 1.27 51.02 1.27 51.02 1.27" fill="#fff" fill-rule="evenodd"/><polygon points="49.75 1.27 49.75 2.13 50.6 2.13 50.6 1.27 49.75 1.27 49.75 1.27" fill="#fff" fill-rule="evenodd"/><polygon points="48.47 1.27 48.47 2.13 49.32 2.13 49.32 1.27 48.47 1.27 48.47 1.27" fill="#fff" fill-rule="evenodd"/><polygon points="49.75 2.55 49.75 3.4 50.6 3.4 50.6 2.55 49.75 2.55 49.75 2.55" fill="#fff" fill-rule="evenodd"/><polygon points="51.02 2.55 51.02 3.4 51.88 3.4 51.88 2.55 51.02 2.55 51.02 2.55" fill="#fff" fill-rule="evenodd"/><polygon points="52.3 2.55 52.3 3.4 53.15 3.4 53.15 2.55 52.3 2.55 52.3 2.55" fill="#fff" fill-rule="evenodd"/><polygon points="52.3 3.83 52.3 4.68 53.15 4.68 53.15 3.83 52.3 3.83 52.3 3.83" fill="#fff" fill-rule="evenodd"/><polygon points="51.02 3.83 51.02 4.68 51.88 4.68 51.88 3.83 51.02 3.83 51.02 3.83" fill="#fff" fill-rule="evenodd"/><polygon points="49.75 3.83 49.75 4.68 50.6 4.68 50.6 3.83 49.75 3.83 49.75 3.83" fill="#fff" fill-rule="evenodd"/><polygon points="48.47 2.55 48.47 3.4 49.32 3.4 49.32 2.55 48.47 2.55 48.47 2.55" fill="#fff" fill-rule="evenodd"/><polygon points="48.47 3.83 48.47 4.68 49.32 4.68 49.32 3.83 48.47 3.83 48.47 3.83" fill="#fff" fill-rule="evenodd"/><polygon points="48.47 5.1 48.47 5.95 49.32 5.95 49.32 5.1 48.47 5.1 48.47 5.1" fill="#fff" fill-rule="evenodd"/><polygon points="49.75 5.1 49.75 5.95 50.6 5.95 50.6 5.1 49.75 5.1 49.75 5.1" fill="#fff" fill-rule="evenodd"/><polygon points="51.02 5.1 51.02 5.95 51.88 5.95 51.88 5.1 51.02 5.1 51.02 5.1" fill="#fff" fill-rule="evenodd"/><polygon points="52.3 5.1 52.3 5.95 53.15 5.95 53.15 5.1 52.3 5.1 52.3 5.1" fill="#fff" fill-rule="evenodd"/><polygon points="52.3 6.38 52.3 7.23 53.15 7.23 53.15 6.38 52.3 6.38 52.3 6.38" fill="#fff" fill-rule="evenodd"/><polygon points="51.02 6.38 51.02 7.23 51.88 7.23 51.88 6.38 51.02 6.38 51.02 6.38" fill="#fff" fill-rule="evenodd"/><polygon points="49.75 6.38 49.75 7.23 50.6 7.23 50.6 6.38 49.75 6.38 49.75 6.38" fill="#fff" fill-rule="evenodd"/><polygon points="48.47 6.38 48.47 7.23 49.32 7.23 49.32 6.38 48.47 6.38 48.47 6.38" fill="#fff" fill-rule="evenodd"/><polygon points="49.75 7.65 49.75 8.5 50.6 8.5 50.6 7.65 49.75 7.65 49.75 7.65" fill="#fff" fill-rule="evenodd"/><polygon points="51.02 7.65 51.02 8.5 51.88 8.5 51.88 7.65 51.02 7.65 51.02 7.65" fill="#fff" fill-rule="evenodd"/><polygon points="52.3 7.65 52.3 8.5 53.15 8.5 53.15 7.65 52.3 7.65 52.3 7.65" fill="#fff" fill-rule="evenodd"/><polygon points="48.47 7.65 48.47 8.5 49.32 8.5 49.32 7.65 48.47 7.65 48.47 7.65" fill="#fff" fill-rule="evenodd"/><polygon points="44.65 0 44.65 0.85 45.5 0.85 45.5 0 44.65 0 44.65 0" fill="#fff" fill-rule="evenodd"/><polygon points="45.92 0 45.92 0.85 46.77 0.85 46.77 0 45.92 0 45.92 0" fill="#fff" fill-rule="evenodd"/><polygon points="47.2 0 47.2 0.85 48.05 0.85 48.05 0 47.2 0 47.2 0" fill="#fff" fill-rule="evenodd"/><polygon points="47.2 1.27 47.2 2.13 48.05 2.13 48.05 1.27 47.2 1.27 47.2 1.27" fill="#fff" fill-rule="evenodd"/><polygon points="45.92 1.27 45.92 2.13 46.77 2.13 46.77 1.27 45.92 1.27 45.92 1.27" fill="#fff" fill-rule="evenodd"/><polygon points="44.65 1.27 44.65 2.13 45.5 2.13 45.5 1.27 44.65 1.27 44.65 1.27" fill="#fff" fill-rule="evenodd"/><polygon points="45.92 2.55 45.92 3.4 46.77 3.4 46.77 2.55 45.92 2.55 45.92 2.55" fill="#fff" fill-rule="evenodd"/><polygon points="47.2 2.55 47.2 3.4 48.05 3.4 48.05 2.55 47.2 2.55 47.2 2.55" fill="#fff" fill-rule="evenodd"/><polygon points="47.2 3.83 47.2 4.68 48.05 4.68 48.05 3.83 47.2 3.83 47.2 3.83" fill="#fff" fill-rule="evenodd"/><polygon points="45.92 3.83 45.92 4.68 46.77 4.68 46.77 3.83 45.92 3.83 45.92 3.83" fill="#fff" fill-rule="evenodd"/><polygon points="44.65 2.55 44.65 3.4 45.5 3.4 45.5 2.55 44.65 2.55 44.65 2.55" fill="#fff" fill-rule="evenodd"/><polygon points="44.65 3.83 44.65 4.68 45.5 4.68 45.5 3.83 44.65 3.83 44.65 3.83" fill="#fff" fill-rule="evenodd"/><polygon points="56.55 1.7 56.13 2.13 56.98 2.13 56.98 1.27 56.55 1.7 56.55 1.7" fill="#fff" fill-rule="evenodd"/><polygon points="57.83 0.42 57.4 0.85 58.25 0.85 58.25 0 57.83 0.42 57.83 0.42" fill="#fff" fill-rule="evenodd"/><polygon points="57.4 1.27 57.4 2.13 58.25 2.13 58.25 1.27 57.4 1.27 57.4 1.27" fill="#fff" fill-rule="evenodd"/><polygon points="58.68 0 58.68 0.85 59.53 0.85 59.53 0 58.68 0 58.68 0" fill="#fff" fill-rule="evenodd"/><polygon points="59.95 0 59.95 0.85 60.8 0.85 60.8 0 59.95 0 59.95 0" fill="#fff" fill-rule="evenodd"/><polygon points="61.23 0 61.23 0.85 62.08 0.85 62.08 0 61.23 0 61.23 0" fill="#fff" fill-rule="evenodd"/><polygon points="62.51 0 62.51 0.85 63.36 0.85 63.36 0 62.51 0 62.51 0" fill="#fff" fill-rule="evenodd"/><polygon points="63.78 0 63.78 0.85 64.63 0.85 64.63 0 63.78 0 63.78 0" fill="#fff" fill-rule="evenodd"/><polygon points="65.05 0 65.05 0.85 65.9 0.85 65.9 0 65.05 0 65.05 0" fill="#fff" fill-rule="evenodd"/><polygon points="66.33 0 66.33 0.85 67.18 0.85 67.18 0 66.33 0 66.33 0" fill="#fff" fill-rule="evenodd"/><polygon points="67.61 0 67.61 0.85 68.46 0.85 68.46 0 67.61 0 67.61 0" fill="#fff" fill-rule="evenodd"/><polygon points="69.31 0.42 69.73 0.85 68.88 0.85 68.88 0 69.31 0.42 69.31 0.42" fill="#fff" fill-rule="evenodd"/><polygon points="70.58 1.7 71.01 2.13 70.16 2.13 70.16 1.27 70.58 1.7 70.58 1.7" fill="#fff" fill-rule="evenodd"/><polygon points="68.88 1.27 68.88 2.13 69.73 2.13 69.73 1.27 68.88 1.27 68.88 1.27" fill="#fff" fill-rule="evenodd"/><polygon points="70.16 2.55 70.16 3.4 71.01 3.4 71.01 2.55 70.16 2.55 70.16 2.55" fill="#fff" fill-rule="evenodd"/><polygon points="70.16 3.83 70.16 4.68 71.01 4.68 71.01 3.83 70.16 3.83 70.16 3.83" fill="#fff" fill-rule="evenodd"/><polygon points="70.16 5.1 70.16 5.95 71.01 5.95 71.01 5.1 70.16 5.1 70.16 5.1" fill="#fff" fill-rule="evenodd"/><polygon points="68.88 5.1 68.88 5.95 69.73 5.95 69.73 5.1 68.88 5.1 68.88 5.1" fill="#fff" fill-rule="evenodd"/><polygon points="67.61 5.1 67.61 5.95 68.46 5.95 68.46 5.1 67.61 5.1 67.61 5.1" fill="#fff" fill-rule="evenodd"/><polygon points="66.33 5.1 66.33 5.95 67.18 5.95 67.18 5.1 66.33 5.1 66.33 5.1" fill="#fff" fill-rule="evenodd"/><polygon points="68.88 3.83 68.88 4.68 69.73 4.68 69.73 3.83 68.88 3.83 68.88 3.83" fill="#fff" fill-rule="evenodd"/><polygon points="67.61 3.83 67.61 4.68 68.46 4.68 68.46 3.83 67.61 3.83 67.61 3.83" fill="#fff" fill-rule="evenodd"/><polygon points="66.33 3.83 66.33 4.68 67.18 4.68 67.18 3.83 66.33 3.83 66.33 3.83" fill="#fff" fill-rule="evenodd"/><polygon points="68.88 2.55 68.88 3.4 69.73 3.4 69.73 2.55 68.88 2.55 68.88 2.55" fill="#fff" fill-rule="evenodd"/><polygon points="67.61 2.55 67.61 3.4 68.46 3.4 68.46 2.55 67.61 2.55 67.61 2.55" fill="#fff" fill-rule="evenodd"/><polygon points="66.33 2.55 66.33 3.4 67.18 3.4 67.18 2.55 66.33 2.55 66.33 2.55" fill="#fff" fill-rule="evenodd"/><polygon points="67.61 1.27 67.61 2.13 68.46 2.13 68.46 1.27 67.61 1.27 67.61 1.27" fill="#fff" fill-rule="evenodd"/><polygon points="66.33 1.27 66.33 2.13 67.18 2.13 67.18 1.27 66.33 1.27 66.33 1.27" fill="#fff" fill-rule="evenodd"/><polygon points="65.05 1.27 65.05 2.13 65.9 2.13 65.9 1.27 65.05 1.27 65.05 1.27" fill="#fff" fill-rule="evenodd"/><polygon points="65.05 2.55 65.05 3.4 65.9 3.4 65.9 2.55 65.05 2.55 65.05 2.55" fill="#fff" fill-rule="evenodd"/><polygon points="65.05 3.83 65.05 4.68 65.9 4.68 65.9 3.83 65.05 3.83 65.05 3.83" fill="#fff" fill-rule="evenodd"/><polygon points="63.78 3.83 63.78 4.68 64.63 4.68 64.63 3.83 63.78 3.83 63.78 3.83" fill="#fff" fill-rule="evenodd"/><polygon points="62.51 3.83 62.51 4.68 63.36 4.68 63.36 3.83 62.51 3.83 62.51 3.83" fill="#fff" fill-rule="evenodd"/><polygon points="61.23 3.83 61.23 4.68 62.08 4.68 62.08 3.83 61.23 3.83 61.23 3.83" fill="#fff" fill-rule="evenodd"/><polygon points="63.78 2.55 63.78 3.4 64.63 3.4 64.63 2.55 63.78 2.55 63.78 2.55" fill="#fff" fill-rule="evenodd"/><polygon points="62.51 2.55 62.51 3.4 63.36 3.4 63.36 2.55 62.51 2.55 62.51 2.55" fill="#fff" fill-rule="evenodd"/><polygon points="61.23 2.55 61.23 3.4 62.08 3.4 62.08 2.55 61.23 2.55 61.23 2.55" fill="#fff" fill-rule="evenodd"/><polygon points="63.78 1.27 63.78 2.13 64.63 2.13 64.63 1.27 63.78 1.27 63.78 1.27" fill="#fff" fill-rule="evenodd"/><polygon points="62.51 1.27 62.51 2.13 63.36 2.13 63.36 1.27 62.51 1.27 62.51 1.27" fill="#fff" fill-rule="evenodd"/><polygon points="61.23 1.27 61.23 2.13 62.08 2.13 62.08 1.27 61.23 1.27 61.23 1.27" fill="#fff" fill-rule="evenodd"/><polygon points="59.95 2.55 59.95 3.4 60.8 3.4 60.8 2.55 59.95 2.55 59.95 2.55" fill="#fff" fill-rule="evenodd"/><polygon points="59.95 3.83 59.95 4.68 60.8 4.68 60.8 3.83 59.95 3.83 59.95 3.83" fill="#fff" fill-rule="evenodd"/><polygon points="59.95 5.1 59.95 5.95 60.8 5.95 60.8 5.1 59.95 5.1 59.95 5.1" fill="#fff" fill-rule="evenodd"/><polygon points="58.68 5.1 58.68 5.95 59.53 5.95 59.53 5.1 58.68 5.1 58.68 5.1" fill="#fff" fill-rule="evenodd"/><polygon points="57.4 5.1 57.4 5.95 58.25 5.95 58.25 5.1 57.4 5.1 57.4 5.1" fill="#fff" fill-rule="evenodd"/><polygon points="56.13 5.1 56.13 5.95 56.98 5.95 56.98 5.1 56.13 5.1 56.13 5.1" fill="#fff" fill-rule="evenodd"/><polygon points="58.68 3.83 58.68 4.68 59.53 4.68 59.53 3.83 58.68 3.83 58.68 3.83" fill="#fff" fill-rule="evenodd"/><polygon points="57.4 3.83 57.4 4.68 58.25 4.68 58.25 3.83 57.4 3.83 57.4 3.83" fill="#fff" fill-rule="evenodd"/><polygon points="56.13 3.83 56.13 4.68 56.98 4.68 56.98 3.83 56.13 3.83 56.13 3.83" fill="#fff" fill-rule="evenodd"/><polygon points="58.68 2.55 58.68 3.4 59.53 3.4 59.53 2.55 58.68 2.55 58.68 2.55" fill="#fff" fill-rule="evenodd"/><polygon points="57.4 2.55 57.4 3.4 58.25 3.4 58.25 2.55 57.4 2.55 57.4 2.55" fill="#fff" fill-rule="evenodd"/><polygon points="56.13 2.55 56.13 3.4 56.98 3.4 56.98 2.55 56.13 2.55 56.13 2.55" fill="#fff" fill-rule="evenodd"/><polygon points="59.95 1.27 59.95 2.13 60.8 2.13 60.8 1.27 59.95 1.27 59.95 1.27" fill="#fff" fill-rule="evenodd"/><polygon points="58.68 1.27 58.68 2.13 59.53 2.13 59.53 1.27 58.68 1.27 58.68 1.27" fill="#fff" fill-rule="evenodd"/><polygon points="56.13 8.93 56.13 9.78 56.98 9.78 56.98 8.93 56.13 8.93 56.13 8.93" fill="#fff" fill-rule="evenodd"/><polygon points="57.4 8.93 57.4 9.78 58.25 9.78 58.25 8.93 57.4 8.93 57.4 8.93" fill="#fff" fill-rule="evenodd"/><polygon points="59.95 8.93 59.95 9.78 60.8 9.78 60.8 8.93 59.95 8.93 59.95 8.93" fill="#fff" fill-rule="evenodd"/><polygon points="58.68 8.93 58.68 9.78 59.53 9.78 59.53 8.93 58.68 8.93 58.68 8.93" fill="#fff" fill-rule="evenodd"/><polygon points="56.13 10.21 56.13 11.06 56.98 11.06 56.98 10.21 56.13 10.21 56.13 10.21" fill="#fff" fill-rule="evenodd"/><polygon points="57.4 10.21 57.4 11.06 58.25 11.06 58.25 10.21 57.4 10.21 57.4 10.21" fill="#fff" fill-rule="evenodd"/><polygon points="59.95 10.21 59.95 11.06 60.8 11.06 60.8 10.21 59.95 10.21 59.95 10.21" fill="#fff" fill-rule="evenodd"/><polygon points="58.68 10.21 58.68 11.06 59.53 11.06 59.53 10.21 58.68 10.21 58.68 10.21" fill="#fff" fill-rule="evenodd"/><polygon points="59.95 11.48 59.95 12.33 60.8 12.33 60.8 11.48 59.95 11.48 59.95 11.48" fill="#fff" fill-rule="evenodd"/><polygon points="58.68 11.48 58.68 12.33 59.53 12.33 59.53 11.48 58.68 11.48 58.68 11.48" fill="#fff" fill-rule="evenodd"/><polygon points="57.4 11.48 57.4 12.33 58.25 12.33 58.25 11.48 57.4 11.48 57.4 11.48" fill="#fff" fill-rule="evenodd"/><polygon points="56.13 11.48 56.13 12.33 56.98 12.33 56.98 11.48 56.13 11.48 56.13 11.48" fill="#fff" fill-rule="evenodd"/><polygon points="57.4 12.75 57.4 13.6 58.25 13.6 58.25 12.75 57.4 12.75 57.4 12.75" fill="#fff" fill-rule="evenodd"/><polygon points="58.68 12.75 58.68 13.6 59.53 13.6 59.53 12.75 58.68 12.75 58.68 12.75" fill="#fff" fill-rule="evenodd"/><polygon points="59.95 12.75 59.95 13.6 60.8 13.6 60.8 12.75 59.95 12.75 59.95 12.75" fill="#fff" fill-rule="evenodd"/><polygon points="56.13 12.75 56.13 13.6 56.98 13.6 56.98 12.75 56.13 12.75 56.13 12.75" fill="#fff" fill-rule="evenodd"/><polygon points="59.95 6.38 59.95 7.23 60.8 7.23 60.8 6.38 59.95 6.38 59.95 6.38" fill="#fff" fill-rule="evenodd"/><polygon points="58.68 6.38 58.68 7.23 59.53 7.23 59.53 6.38 58.68 6.38 58.68 6.38" fill="#fff" fill-rule="evenodd"/><polygon points="57.4 6.38 57.4 7.23 58.25 7.23 58.25 6.38 57.4 6.38 57.4 6.38" fill="#fff" fill-rule="evenodd"/><polygon points="56.13 6.38 56.13 7.23 56.98 7.23 56.98 6.38 56.13 6.38 56.13 6.38" fill="#fff" fill-rule="evenodd"/><polygon points="57.4 7.65 57.4 8.5 58.25 8.5 58.25 7.65 57.4 7.65 57.4 7.65" fill="#fff" fill-rule="evenodd"/><polygon points="58.68 7.65 58.68 8.5 59.53 8.5 59.53 7.65 58.68 7.65 58.68 7.65" fill="#fff" fill-rule="evenodd"/><polygon points="59.95 7.65 59.95 8.5 60.8 8.5 60.8 7.65 59.95 7.65 59.95 7.65" fill="#fff" fill-rule="evenodd"/><polygon points="56.13 7.65 56.13 8.5 56.98 8.5 56.98 7.65 56.13 7.65 56.13 7.65" fill="#fff" fill-rule="evenodd"/><polygon points="66.33 8.93 66.33 9.78 67.18 9.78 67.18 8.93 66.33 8.93 66.33 8.93" fill="#fff" fill-rule="evenodd"/><polygon points="67.61 8.93 67.61 9.78 68.46 9.78 68.46 8.93 67.61 8.93 67.61 8.93" fill="#fff" fill-rule="evenodd"/><polygon points="70.16 8.93 70.16 9.78 71.01 9.78 71.01 8.93 70.16 8.93 70.16 8.93" fill="#fff" fill-rule="evenodd"/><polygon points="68.88 8.93 68.88 9.78 69.73 9.78 69.73 8.93 68.88 8.93 68.88 8.93" fill="#fff" fill-rule="evenodd"/><polygon points="66.33 10.21 66.33 11.06 67.18 11.06 67.18 10.21 66.33 10.21 66.33 10.21" fill="#fff" fill-rule="evenodd"/><polygon points="67.61 10.21 67.61 11.06 68.46 11.06 68.46 10.21 67.61 10.21 67.61 10.21" fill="#fff" fill-rule="evenodd"/><polygon points="70.16 10.21 70.16 11.06 71.01 11.06 71.01 10.21 70.16 10.21 70.16 10.21" fill="#fff" fill-rule="evenodd"/><polygon points="68.88 10.21 68.88 11.06 69.73 11.06 69.73 10.21 68.88 10.21 68.88 10.21" fill="#fff" fill-rule="evenodd"/><polygon points="70.16 11.48 70.16 12.33 71.01 12.33 71.01 11.48 70.16 11.48 70.16 11.48" fill="#fff" fill-rule="evenodd"/><polygon points="68.88 11.48 68.88 12.33 69.73 12.33 69.73 11.48 68.88 11.48 68.88 11.48" fill="#fff" fill-rule="evenodd"/><polygon points="67.61 11.48 67.61 12.33 68.46 12.33 68.46 11.48 67.61 11.48 67.61 11.48" fill="#fff" fill-rule="evenodd"/><polygon points="66.33 11.48 66.33 12.33 67.18 12.33 67.18 11.48 66.33 11.48 66.33 11.48" fill="#fff" fill-rule="evenodd"/><polygon points="67.61 12.75 67.61 13.6 68.46 13.6 68.46 12.75 67.61 12.75 67.61 12.75" fill="#fff" fill-rule="evenodd"/><polygon points="68.88 12.75 68.88 13.6 69.73 13.6 69.73 12.75 68.88 12.75 68.88 12.75" fill="#fff" fill-rule="evenodd"/><polygon points="70.16 12.75 70.16 13.6 71.01 13.6 71.01 12.75 70.16 12.75 70.16 12.75" fill="#fff" fill-rule="evenodd"/><polygon points="66.33 12.75 66.33 13.6 67.18 13.6 67.18 12.75 66.33 12.75 66.33 12.75" fill="#fff" fill-rule="evenodd"/><polygon points="70.16 6.38 70.16 7.23 71.01 7.23 71.01 6.38 70.16 6.38 70.16 6.38" fill="#fff" fill-rule="evenodd"/><polygon points="68.88 6.38 68.88 7.23 69.73 7.23 69.73 6.38 68.88 6.38 68.88 6.38" fill="#fff" fill-rule="evenodd"/><polygon points="67.61 6.38 67.61 7.23 68.46 7.23 68.46 6.38 67.61 6.38 67.61 6.38" fill="#fff" fill-rule="evenodd"/><polygon points="66.33 6.38 66.33 7.23 67.18 7.23 67.18 6.38 66.33 6.38 66.33 6.38" fill="#fff" fill-rule="evenodd"/><polygon points="67.61 7.65 67.61 8.5 68.46 8.5 68.46 7.65 67.61 7.65 67.61 7.65" fill="#fff" fill-rule="evenodd"/><polygon points="68.88 7.65 68.88 8.5 69.73 8.5 69.73 7.65 68.88 7.65 68.88 7.65" fill="#fff" fill-rule="evenodd"/><polygon points="70.16 7.65 70.16 8.5 71.01 8.5 71.01 7.65 70.16 7.65 70.16 7.65" fill="#fff" fill-rule="evenodd"/><polygon points="66.33 7.65 66.33 8.5 67.18 8.5 67.18 7.65 66.33 7.65 66.33 7.65" fill="#fff" fill-rule="evenodd"/><polygon points="70.16 14.03 70.16 14.88 71.01 14.88 71.01 14.03 70.16 14.03 70.16 14.03" fill="#fff" fill-rule="evenodd"/><polygon points="70.16 15.31 70.16 16.16 71.01 16.16 71.01 15.31 70.16 15.31 70.16 15.31" fill="#fff" fill-rule="evenodd"/><polygon points="68.88 15.31 68.88 16.16 69.73 16.16 69.73 15.31 68.88 15.31 68.88 15.31" fill="#fff" fill-rule="evenodd"/><polygon points="67.61 15.31 67.61 16.16 68.46 16.16 68.46 15.31 67.61 15.31 67.61 15.31" fill="#fff" fill-rule="evenodd"/><polygon points="66.33 15.31 66.33 16.16 67.18 16.16 67.18 15.31 66.33 15.31 66.33 15.31" fill="#fff" fill-rule="evenodd"/><polygon points="68.88 14.03 68.88 14.88 69.73 14.88 69.73 14.03 68.88 14.03 68.88 14.03" fill="#fff" fill-rule="evenodd"/><polygon points="67.61 14.03 67.61 14.88 68.46 14.88 68.46 14.03 67.61 14.03 67.61 14.03" fill="#fff" fill-rule="evenodd"/><polygon points="66.33 14.03 66.33 14.88 67.18 14.88 67.18 14.03 66.33 14.03 66.33 14.03" fill="#fff" fill-rule="evenodd"/><polygon points="70.16 16.58 70.16 17.43 71.01 17.43 71.01 16.58 70.16 16.58 70.16 16.58" fill="#fff" fill-rule="evenodd"/><polygon points="68.88 16.58 68.88 17.43 69.73 17.43 69.73 16.58 68.88 16.58 68.88 16.58" fill="#fff" fill-rule="evenodd"/><polygon points="67.61 16.58 67.61 17.43 68.46 17.43 68.46 16.58 67.61 16.58 67.61 16.58" fill="#fff" fill-rule="evenodd"/><polygon points="66.33 16.58 66.33 17.43 67.18 17.43 67.18 16.58 66.33 16.58 66.33 16.58" fill="#fff" fill-rule="evenodd"/><polygon points="70.58 18.28 71.01 17.86 70.16 17.86 70.16 18.71 70.58 18.28 70.58 18.28" fill="#fff" fill-rule="evenodd"/><polygon points="69.31 19.55 69.73 19.13 68.88 19.13 68.88 19.98 69.31 19.55 69.31 19.55" fill="#fff" fill-rule="evenodd"/><polygon points="68.88 17.86 68.88 18.71 69.73 18.71 69.73 17.86 68.88 17.86 68.88 17.86" fill="#fff" fill-rule="evenodd"/><polygon points="56.55 18.28 56.13 17.86 56.98 17.86 56.98 18.71 56.55 18.28 56.55 18.28" fill="#fff" fill-rule="evenodd"/><polygon points="57.83 19.55 57.4 19.13 58.25 19.13 58.25 19.98 57.83 19.55 57.83 19.55" fill="#fff" fill-rule="evenodd"/><polygon points="57.4 17.86 57.4 18.71 58.25 18.71 58.25 17.86 57.4 17.86 57.4 17.86" fill="#fff" fill-rule="evenodd"/><polygon points="62.51 17.86 62.51 18.71 63.36 18.71 63.36 17.86 62.51 17.86 62.51 17.86" fill="#fff" fill-rule="evenodd"/><polygon points="63.78 17.86 63.78 18.71 64.63 18.71 64.63 17.86 63.78 17.86 63.78 17.86" fill="#fff" fill-rule="evenodd"/><polygon points="65.05 17.86 65.05 18.71 65.9 18.71 65.9 17.86 65.05 17.86 65.05 17.86" fill="#fff" fill-rule="evenodd"/><polygon points="66.33 17.86 66.33 18.71 67.18 18.71 67.18 17.86 66.33 17.86 66.33 17.86" fill="#fff" fill-rule="evenodd"/><polygon points="67.61 17.86 67.61 18.71 68.46 18.71 68.46 17.86 67.61 17.86 67.61 17.86" fill="#fff" fill-rule="evenodd"/><polygon points="67.61 19.13 67.61 19.98 68.46 19.98 68.46 19.13 67.61 19.13 67.61 19.13" fill="#fff" fill-rule="evenodd"/><polygon points="66.33 19.13 66.33 19.98 67.18 19.98 67.18 19.13 66.33 19.13 66.33 19.13" fill="#fff" fill-rule="evenodd"/><polygon points="65.05 19.13 65.05 19.98 65.9 19.98 65.9 19.13 65.05 19.13 65.05 19.13" fill="#fff" fill-rule="evenodd"/><polygon points="63.78 19.13 63.78 19.98 64.63 19.98 64.63 19.13 63.78 19.13 63.78 19.13" fill="#fff" fill-rule="evenodd"/><polygon points="62.51 19.13 62.51 19.98 63.36 19.98 63.36 19.13 62.51 19.13 62.51 19.13" fill="#fff" fill-rule="evenodd"/><polygon points="58.68 17.86 58.68 18.71 59.53 18.71 59.53 17.86 58.68 17.86 58.68 17.86" fill="#fff" fill-rule="evenodd"/><polygon points="59.95 17.86 59.95 18.71 60.8 18.71 60.8 17.86 59.95 17.86 59.95 17.86" fill="#fff" fill-rule="evenodd"/><polygon points="61.23 17.86 61.23 18.71 62.08 18.71 62.08 17.86 61.23 17.86 61.23 17.86" fill="#fff" fill-rule="evenodd"/><polygon points="61.23 19.13 61.23 19.98 62.08 19.98 62.08 19.13 61.23 19.13 61.23 19.13" fill="#fff" fill-rule="evenodd"/><polygon points="59.95 19.13 59.95 19.98 60.8 19.98 60.8 19.13 59.95 19.13 59.95 19.13" fill="#fff" fill-rule="evenodd"/><polygon points="58.68 19.13 58.68 19.98 59.53 19.98 59.53 19.13 58.68 19.13 58.68 19.13" fill="#fff" fill-rule="evenodd"/><polygon points="57.4 15.31 57.4 16.16 58.25 16.16 58.25 15.31 57.4 15.31 57.4 15.31" fill="#fff" fill-rule="evenodd"/><polygon points="58.68 15.31 58.68 16.16 59.53 16.16 59.53 15.31 58.68 15.31 58.68 15.31" fill="#fff" fill-rule="evenodd"/><polygon points="59.95 15.31 59.95 16.16 60.8 16.16 60.8 15.31 59.95 15.31 59.95 15.31" fill="#fff" fill-rule="evenodd"/><polygon points="61.23 15.31 61.23 16.16 62.08 16.16 62.08 15.31 61.23 15.31 61.23 15.31" fill="#fff" fill-rule="evenodd"/><polygon points="62.51 15.31 62.51 16.16 63.36 16.16 63.36 15.31 62.51 15.31 62.51 15.31" fill="#fff" fill-rule="evenodd"/><polygon points="63.78 15.31 63.78 16.16 64.63 16.16 64.63 15.31 63.78 15.31 63.78 15.31" fill="#fff" fill-rule="evenodd"/><polygon points="65.05 15.31 65.05 16.16 65.9 16.16 65.9 15.31 65.05 15.31 65.05 15.31" fill="#fff" fill-rule="evenodd"/><polygon points="65.05 16.58 65.05 17.43 65.9 17.43 65.9 16.58 65.05 16.58 65.05 16.58" fill="#fff" fill-rule="evenodd"/><polygon points="63.78 16.58 63.78 17.43 64.63 17.43 64.63 16.58 63.78 16.58 63.78 16.58" fill="#fff" fill-rule="evenodd"/><polygon points="62.51 16.58 62.51 17.43 63.36 17.43 63.36 16.58 62.51 16.58 62.51 16.58" fill="#fff" fill-rule="evenodd"/><polygon points="61.23 16.58 61.23 17.43 62.08 17.43 62.08 16.58 61.23 16.58 61.23 16.58" fill="#fff" fill-rule="evenodd"/><polygon points="59.95 16.58 59.95 17.43 60.8 17.43 60.8 16.58 59.95 16.58 59.95 16.58" fill="#fff" fill-rule="evenodd"/><polygon points="58.68 16.58 58.68 17.43 59.53 17.43 59.53 16.58 58.68 16.58 58.68 16.58" fill="#fff" fill-rule="evenodd"/><polygon points="57.4 16.58 57.4 17.43 58.25 17.43 58.25 16.58 57.4 16.58 57.4 16.58" fill="#fff" fill-rule="evenodd"/><polygon points="56.13 15.31 56.13 16.16 56.98 16.16 56.98 15.31 56.13 15.31 56.13 15.31" fill="#fff" fill-rule="evenodd"/><polygon points="56.13 16.58 56.13 17.43 56.98 17.43 56.98 16.58 56.13 16.58 56.13 16.58" fill="#fff" fill-rule="evenodd"/><polygon points="59.95 14.03 59.95 14.88 60.8 14.88 60.8 14.03 59.95 14.03 59.95 14.03" fill="#fff" fill-rule="evenodd"/><polygon points="58.68 14.03 58.68 14.88 59.53 14.88 59.53 14.03 58.68 14.03 58.68 14.03" fill="#fff" fill-rule="evenodd"/><polygon points="57.4 14.03 57.4 14.88 58.25 14.88 58.25 14.03 57.4 14.03 57.4 14.03" fill="#fff" fill-rule="evenodd"/><polygon points="56.13 14.03 56.13 14.88 56.98 14.88 56.98 14.03 56.13 14.03 56.13 14.03" fill="#fff" fill-rule="evenodd"/><polygon points="76.53 8.93 76.53 9.78 77.38 9.78 77.38 8.93 76.53 8.93 76.53 8.93" fill="#fff" fill-rule="evenodd"/><polygon points="77.81 8.93 77.81 9.78 78.66 9.78 78.66 8.93 77.81 8.93 77.81 8.93" fill="#fff" fill-rule="evenodd"/><polygon points="80.36 8.93 80.36 9.78 81.21 9.78 81.21 8.93 80.36 8.93 80.36 8.93" fill="#fff" fill-rule="evenodd"/><polygon points="79.08 8.93 79.08 9.78 79.94 9.78 79.94 8.93 79.08 8.93 79.08 8.93" fill="#fff" fill-rule="evenodd"/><polygon points="76.53 10.21 76.53 11.06 77.38 11.06 77.38 10.21 76.53 10.21 76.53 10.21" fill="#fff" fill-rule="evenodd"/><polygon points="77.81 10.21 77.81 11.06 78.66 11.06 78.66 10.21 77.81 10.21 77.81 10.21" fill="#fff" fill-rule="evenodd"/><polygon points="80.36 10.21 80.36 11.06 81.21 11.06 81.21 10.21 80.36 10.21 80.36 10.21" fill="#fff" fill-rule="evenodd"/><polygon points="79.08 10.21 79.08 11.06 79.94 11.06 79.94 10.21 79.08 10.21 79.08 10.21" fill="#fff" fill-rule="evenodd"/><polygon points="80.36 11.48 80.36 12.33 81.21 12.33 81.21 11.48 80.36 11.48 80.36 11.48" fill="#fff" fill-rule="evenodd"/><polygon points="79.08 11.48 79.08 12.33 79.94 12.33 79.94 11.48 79.08 11.48 79.08 11.48" fill="#fff" fill-rule="evenodd"/><polygon points="77.81 11.48 77.81 12.33 78.66 12.33 78.66 11.48 77.81 11.48 77.81 11.48" fill="#fff" fill-rule="evenodd"/><polygon points="76.53 11.48 76.53 12.33 77.38 12.33 77.38 11.48 76.53 11.48 76.53 11.48" fill="#fff" fill-rule="evenodd"/><polygon points="77.81 12.75 77.81 13.6 78.66 13.6 78.66 12.75 77.81 12.75 77.81 12.75" fill="#fff" fill-rule="evenodd"/><polygon points="79.08 12.75 79.08 13.6 79.94 13.6 79.94 12.75 79.08 12.75 79.08 12.75" fill="#fff" fill-rule="evenodd"/><polygon points="80.36 12.75 80.36 13.6 81.21 13.6 81.21 12.75 80.36 12.75 80.36 12.75" fill="#fff" fill-rule="evenodd"/><polygon points="80.36 14.03 80.36 14.88 81.21 14.88 81.21 14.03 80.36 14.03 80.36 14.03" fill="#fff" fill-rule="evenodd"/><polygon points="79.08 14.03 79.08 14.88 79.94 14.88 79.94 14.03 79.08 14.03 79.08 14.03" fill="#fff" fill-rule="evenodd"/><polygon points="77.81 14.03 77.81 14.88 78.66 14.88 78.66 14.03 77.81 14.03 77.81 14.03" fill="#fff" fill-rule="evenodd"/><polygon points="76.53 12.75 76.53 13.6 77.38 13.6 77.38 12.75 76.53 12.75 76.53 12.75" fill="#fff" fill-rule="evenodd"/><polygon points="76.53 14.03 76.53 14.88 77.38 14.88 77.38 14.03 76.53 14.03 76.53 14.03" fill="#fff" fill-rule="evenodd"/><polygon points="77.81 15.31 77.81 16.16 78.66 16.16 78.66 15.31 77.81 15.31 77.81 15.31" fill="#fff" fill-rule="evenodd"/><polygon points="79.08 15.31 79.08 16.16 79.94 16.16 79.94 15.31 79.08 15.31 79.08 15.31" fill="#fff" fill-rule="evenodd"/><polygon points="80.36 15.31 80.36 16.16 81.21 16.16 81.21 15.31 80.36 15.31 80.36 15.31" fill="#fff" fill-rule="evenodd"/><polygon points="80.36 16.58 80.36 17.43 81.21 17.43 81.21 16.58 80.36 16.58 80.36 16.58" fill="#fff" fill-rule="evenodd"/><polygon points="79.08 16.58 79.08 17.43 79.94 17.43 79.94 16.58 79.08 16.58 79.08 16.58" fill="#fff" fill-rule="evenodd"/><polygon points="77.81 16.58 77.81 17.43 78.66 17.43 78.66 16.58 77.81 16.58 77.81 16.58" fill="#fff" fill-rule="evenodd"/><polygon points="76.53 15.31 76.53 16.16 77.38 16.16 77.38 15.31 76.53 15.31 76.53 15.31" fill="#fff" fill-rule="evenodd"/><polygon points="76.53 16.58 76.53 17.43 77.38 17.43 77.38 16.58 76.53 16.58 76.53 16.58" fill="#fff" fill-rule="evenodd"/><polygon points="77.81 17.86 77.81 18.71 78.66 18.71 78.66 17.86 77.81 17.86 77.81 17.86" fill="#fff" fill-rule="evenodd"/><polygon points="79.08 17.86 79.08 18.71 79.94 18.71 79.94 17.86 79.08 17.86 79.08 17.86" fill="#fff" fill-rule="evenodd"/><polygon points="80.36 17.86 80.36 18.71 81.21 18.71 81.21 17.86 80.36 17.86 80.36 17.86" fill="#fff" fill-rule="evenodd"/><polygon points="80.36 19.13 80.36 19.98 81.21 19.98 81.21 19.13 80.36 19.13 80.36 19.13" fill="#fff" fill-rule="evenodd"/><polygon points="79.08 19.13 79.08 19.98 79.94 19.98 79.94 19.13 79.08 19.13 79.08 19.13" fill="#fff" fill-rule="evenodd"/><polygon points="77.81 19.13 77.81 19.98 78.66 19.98 78.66 19.13 77.81 19.13 77.81 19.13" fill="#fff" fill-rule="evenodd"/><polygon points="76.53 17.86 76.53 18.71 77.38 18.71 77.38 17.86 76.53 17.86 76.53 17.86" fill="#fff" fill-rule="evenodd"/><polygon points="76.53 19.13 76.53 19.98 77.38 19.98 77.38 19.13 76.53 19.13 76.53 19.13" fill="#fff" fill-rule="evenodd"/><polygon points="76.53 0 76.53 0.85 77.38 0.85 77.38 0 76.53 0 76.53 0" fill="#fff" fill-rule="evenodd"/><polygon points="77.81 0 77.81 0.85 78.66 0.85 78.66 0 77.81 0 77.81 0" fill="#fff" fill-rule="evenodd"/><polygon points="79.08 0 79.08 0.85 79.94 0.85 79.94 0 79.08 0 79.08 0" fill="#fff" fill-rule="evenodd"/><polygon points="80.36 0 80.36 0.85 81.21 0.85 81.21 0 80.36 0 80.36 0" fill="#fff" fill-rule="evenodd"/><polygon points="80.36 1.27 80.36 2.13 81.21 2.13 81.21 1.27 80.36 1.27 80.36 1.27" fill="#fff" fill-rule="evenodd"/><polygon points="79.08 1.27 79.08 2.13 79.94 2.13 79.94 1.27 79.08 1.27 79.08 1.27" fill="#fff" fill-rule="evenodd"/><polygon points="77.81 1.27 77.81 2.13 78.66 2.13 78.66 1.27 77.81 1.27 77.81 1.27" fill="#fff" fill-rule="evenodd"/><polygon points="76.53 1.27 76.53 2.13 77.38 2.13 77.38 1.27 76.53 1.27 76.53 1.27" fill="#fff" fill-rule="evenodd"/><polygon points="77.81 2.55 77.81 3.4 78.66 3.4 78.66 2.55 77.81 2.55 77.81 2.55" fill="#fff" fill-rule="evenodd"/><polygon points="79.08 2.55 79.08 3.4 79.94 3.4 79.94 2.55 79.08 2.55 79.08 2.55" fill="#fff" fill-rule="evenodd"/><polygon points="80.36 2.55 80.36 3.4 81.21 3.4 81.21 2.55 80.36 2.55 80.36 2.55" fill="#fff" fill-rule="evenodd"/><polygon points="80.36 3.83 80.36 4.68 81.21 4.68 81.21 3.83 80.36 3.83 80.36 3.83" fill="#fff" fill-rule="evenodd"/><polygon points="79.08 3.83 79.08 4.68 79.94 4.68 79.94 3.83 79.08 3.83 79.08 3.83" fill="#fff" fill-rule="evenodd"/><polygon points="77.81 3.83 77.81 4.68 78.66 4.68 78.66 3.83 77.81 3.83 77.81 3.83" fill="#fff" fill-rule="evenodd"/><polygon points="76.53 2.55 76.53 3.4 77.38 3.4 77.38 2.55 76.53 2.55 76.53 2.55" fill="#fff" fill-rule="evenodd"/><polygon points="76.53 3.83 76.53 4.68 77.38 4.68 77.38 3.83 76.53 3.83 76.53 3.83" fill="#fff" fill-rule="evenodd"/><polygon points="76.53 5.1 76.53 5.95 77.38 5.95 77.38 5.1 76.53 5.1 76.53 5.1" fill="#fff" fill-rule="evenodd"/><polygon points="77.81 5.1 77.81 5.95 78.66 5.95 78.66 5.1 77.81 5.1 77.81 5.1" fill="#fff" fill-rule="evenodd"/><polygon points="79.08 5.1 79.08 5.95 79.94 5.95 79.94 5.1 79.08 5.1 79.08 5.1" fill="#fff" fill-rule="evenodd"/><polygon points="80.36 5.1 80.36 5.95 81.21 5.95 81.21 5.1 80.36 5.1 80.36 5.1" fill="#fff" fill-rule="evenodd"/><polygon points="80.36 6.38 80.36 7.23 81.21 7.23 81.21 6.38 80.36 6.38 80.36 6.38" fill="#fff" fill-rule="evenodd"/><polygon points="79.08 6.38 79.08 7.23 79.94 7.23 79.94 6.38 79.08 6.38 79.08 6.38" fill="#fff" fill-rule="evenodd"/><polygon points="77.81 6.38 77.81 7.23 78.66 7.23 78.66 6.38 77.81 6.38 77.81 6.38" fill="#fff" fill-rule="evenodd"/><polygon points="76.53 6.38 76.53 7.23 77.38 7.23 77.38 6.38 76.53 6.38 76.53 6.38" fill="#fff" fill-rule="evenodd"/><polygon points="77.81 7.65 77.81 8.5 78.66 8.5 78.66 7.65 77.81 7.65 77.81 7.65" fill="#fff" fill-rule="evenodd"/><polygon points="79.08 7.65 79.08 8.5 79.94 8.5 79.94 7.65 79.08 7.65 79.08 7.65" fill="#fff" fill-rule="evenodd"/><polygon points="80.36 7.65 80.36 8.5 81.21 8.5 81.21 7.65 80.36 7.65 80.36 7.65" fill="#fff" fill-rule="evenodd"/><polygon points="76.53 7.65 76.53 8.5 77.38 8.5 77.38 7.65 76.53 7.65 76.53 7.65" fill="#fff" fill-rule="evenodd"/><polygon points="72.7 0 72.7 0.85 73.56 0.85 73.56 0 72.7 0 72.7 0" fill="#fff" fill-rule="evenodd"/><polygon points="73.98 0 73.98 0.85 74.84 0.85 74.84 0 73.98 0 73.98 0" fill="#fff" fill-rule="evenodd"/><polygon points="75.26 0 75.26 0.85 76.11 0.85 76.11 0 75.26 0 75.26 0" fill="#fff" fill-rule="evenodd"/><polygon points="75.26 1.27 75.26 2.13 76.11 2.13 76.11 1.27 75.26 1.27 75.26 1.27" fill="#fff" fill-rule="evenodd"/><polygon points="73.98 1.27 73.98 2.13 74.84 2.13 74.84 1.27 73.98 1.27 73.98 1.27" fill="#fff" fill-rule="evenodd"/><polygon points="72.7 1.27 72.7 2.13 73.56 2.13 73.56 1.27 72.7 1.27 72.7 1.27" fill="#fff" fill-rule="evenodd"/><polygon points="73.98 2.55 73.98 3.4 74.84 3.4 74.84 2.55 73.98 2.55 73.98 2.55" fill="#fff" fill-rule="evenodd"/><polygon points="75.26 2.55 75.26 3.4 76.11 3.4 76.11 2.55 75.26 2.55 75.26 2.55" fill="#fff" fill-rule="evenodd"/><polygon points="75.26 3.83 75.26 4.68 76.11 4.68 76.11 3.83 75.26 3.83 75.26 3.83" fill="#fff" fill-rule="evenodd"/><polygon points="73.98 3.83 73.98 4.68 74.84 4.68 74.84 3.83 73.98 3.83 73.98 3.83" fill="#fff" fill-rule="evenodd"/><polygon points="72.7 2.55 72.7 3.4 73.56 3.4 73.56 2.55 72.7 2.55 72.7 2.55" fill="#fff" fill-rule="evenodd"/><polygon points="72.7 3.83 72.7 4.68 73.56 4.68 73.56 3.83 72.7 3.83 72.7 3.83" fill="#fff" fill-rule="evenodd"/></svg>