<svg xmlns="http://www.w3.org/2000/svg" viewBox="0 0 180.74 44.59"><rect x="1.86" y="1.86" width="177.02" height="40.87" rx="5.7" fill="#646562"/><path d="M173.18,3.72A3.83,3.83,0,0,1,177,7.56V37a3.83,3.83,0,0,1-3.84,3.84H7.56A3.83,3.83,0,0,1,3.72,37V7.56A3.84,3.84,0,0,1,7.56,3.72H173.18m0-3.72H7.56A7.57,7.57,0,0,0,0,7.56V37a7.57,7.57,0,0,0,7.56,7.56H173.18A7.57,7.57,0,0,0,180.74,37V7.56A7.57,7.57,0,0,0,173.18,0Z" fill="#4e4d4d"/><path d="M172.53,15.11V30.5c0,1.69-2.09,3-4.63,3H12.84c-2.54,0-4.63-1.36-4.63-3V15.11c0-1.68,2.09-3,4.63-3H167.9C170.44,12.06,172.53,13.43,172.53,15.11Z" fill="#1d1d1c"/></svg>