<svg xmlns="http://www.w3.org/2000/svg" viewBox="0 0 19.01 85.68"><path d="M18.66,64.52a6.3,6.3,0,0,0-5.93-6.47H6.19a6.44,6.44,0,0,0,0,12.87h6.45a6.22,6.22,0,0,0,6-6.4ZM6.88,68.88a4.39,4.39,0,0,1-4.6-4.36,4.54,4.54,0,0,1,4.6-4.34h5.24a4.31,4.31,0,0,1,4.37,4.34,4.43,4.43,0,0,1-4.37,4.36Z" fill="#1e1e1e"/><rect x="9.53" y="27.44" width="2.42" height="12.28" fill="#1e1e1e"/><polygon points="16 4.1 0 4.1 0 6.53 16 6.53 16 10.63 18.42 10.63 18.42 0 16 0 16 4.1" fill="#1e1e1e"/><path d="M6.09,24a5,5,0,0,0,4.54-2.79,3.92,3.92,0,0,0,3.27,1.55c2.31,0,4.76-1.9,4.76-5.41a15.39,15.39,0,0,0-.27-2.77c-.07-.41-.14-.85-.21-1.37-5.87,0-16.63,0-18,0A19.32,19.32,0,0,0,0,15.77C0,18.84.79,24,6.09,24ZM2.33,16.71a4.2,4.2,0,0,1,.13-1.11H16.39a3.55,3.55,0,0,1,.23,1.48c0,1.9-1.09,3.42-2.92,3.42a3.36,3.36,0,0,1-3.21-2.44h-.33a4.06,4.06,0,0,1-3.74,3.52c-2.5,0-4.09-2.14-4.09-4.87Z" fill="#1e1e1e"/><path d="M11.21,82.77a3.68,3.68,0,0,0,2.8,1.6,5,5,0,0,0,5-5.17A4.94,4.94,0,0,0,13.84,74v2.22h0a3,3,0,0,1,3,3,2.9,2.9,0,0,1-2.79,3,3.13,3.13,0,0,1-3-3h-.41a4.37,4.37,0,0,1-4.08,4.27A4.09,4.09,0,0,1,2.33,79.2a4.29,4.29,0,0,1,4.12-4.26s.42,0,.58,0V72.67c-.17,0-.54,0-.56,0h0a6.51,6.51,0,0,0,.07,13,5.51,5.51,0,0,0,4.67-2.91Z" fill="#1e1e1e"/><path d="M11.21,53.53a3.71,3.71,0,0,0,2.8,1.6A5,5,0,0,0,19,50a4.94,4.94,0,0,0-5.17-5.17V47h0a3,3,0,0,1,3,3,2.9,2.9,0,0,1-2.79,3,3.13,3.13,0,0,1-3-3h-.41a4.37,4.37,0,0,1-4.08,4.26A4.09,4.09,0,0,1,2.33,50,4.28,4.28,0,0,1,6.45,45.7l.58,0V43.42c-.17,0-.54,0-.56,0h0a6.51,6.51,0,0,0,.07,13,5.5,5.5,0,0,0,4.67-2.9Z" fill="#1e1e1e"/></svg>