<svg xmlns="http://www.w3.org/2000/svg" viewBox="0 0 89.04 19.76"><path d="M67.05.37a6.53,6.53,0,0,0-6.72,6.16v6.79a6.69,6.69,0,0,0,13.38,0V6.62A6.47,6.47,0,0,0,67.05.37Zm4.54,12.24a4.56,4.56,0,0,1-4.53,4.78,4.72,4.72,0,0,1-4.52-4.78V7.16a4.49,4.49,0,0,1,4.52-4.54,4.6,4.6,0,0,1,4.53,4.54Z" fill="#fff"/><rect x="28.52" y="7.33" width="12.76" height="2.52" fill="#fff"/><polygon points="4.26 3.13 4.26 19.76 6.78 19.76 6.78 3.13 11.04 3.13 11.04 0.61 0 0.61 0 3.13 4.26 3.13" fill="#fff"/><path d="M24.94,13.43A5.22,5.22,0,0,0,22,8.71a4.08,4.08,0,0,0,1.61-3.4c0-2.4-2-4.95-5.62-4.95a15.58,15.58,0,0,0-2.88.29L13.72.86c0,6.11,0,17.29,0,18.72a20.28,20.28,0,0,0,2.67.18c3.19,0,8.55-.82,8.55-6.33Zm-7.58,3.91a4.24,4.24,0,0,1-1.15-.14V2.72a3.83,3.83,0,0,1,1.54-.23c2,0,3.56,1.13,3.56,3a3.51,3.51,0,0,1-2.54,3.34V9.2a4.22,4.22,0,0,1,3.66,3.89c0,2.59-2.22,4.25-5.07,4.25Z" fill="#fff"/><path d="M86,8.11A3.86,3.86,0,0,0,87.69,5.2,5.23,5.23,0,0,0,82.31,0a5.14,5.14,0,0,0-5.38,5.38h2.31A3.07,3.07,0,0,1,82.31,2.3a3,3,0,0,1,3.07,2.9,3.26,3.26,0,0,1-3.1,3.09v.42A4.55,4.55,0,0,1,86.72,13a4.26,4.26,0,0,1-4.41,4.39,4.45,4.45,0,0,1-4.42-4.29s0-.43,0-.6H75.52c0,.18,0,.57,0,.58h0A6.77,6.77,0,0,0,89,13a5.72,5.72,0,0,0-3-4.85Z" fill="#fff"/><path d="M55.63,8.11A3.84,3.84,0,0,0,57.29,5.2,5.22,5.22,0,0,0,51.92,0a5.14,5.14,0,0,0-5.38,5.38h2.3A3.08,3.08,0,0,1,51.92,2.3,3,3,0,0,1,55,5.2a3.26,3.26,0,0,1-3.1,3.09v.42A4.55,4.55,0,0,1,56.32,13a4.25,4.25,0,0,1-4.4,4.39,4.45,4.45,0,0,1-4.42-4.29s0-.43,0-.6H45.13c0,.18,0,.57,0,.58h0A6.77,6.77,0,1,0,58.65,13a5.7,5.7,0,0,0-3-4.85Z" fill="#fff"/></svg>