<svg xmlns="http://www.w3.org/2000/svg" viewBox="0 0 16.24 40.48"><defs><style>.a{fill:#fff;}</style></defs><rect class="a" x="-12.12" y="12.12" width="40.48" height="16.24" transform="translate(28.36 12.12) rotate(90)"/><path d="M4.59,17.25a2.17,2.17,0,0,1,1.3-.39,1.9,1.9,0,0,1,1.26.39,2.17,2.17,0,0,1,.49.65,1.92,1.92,0,0,1,.75-1,2.32,2.32,0,0,1,1.26-.34A2.53,2.53,0,0,1,11,17a2.46,2.46,0,0,1,.67.61,2.32,2.32,0,0,1,.43,1,5.68,5.68,0,0,1,.12,1.2V23.6H3.68V19.46A2.6,2.6,0,0,1,4.59,17.25Zm.57,4.64H7.05V19.81a1.71,1.71,0,0,0-.21-.9.81.81,0,0,0-.75-.35A.76.76,0,0,0,5.3,19a3.19,3.19,0,0,0-.14,1Zm3.3,0h2.28V19.82a2,2,0,0,0-.15-.87,1.08,1.08,0,0,0-1.07-.56.91.91,0,0,0-.91.54,2.37,2.37,0,0,0-.15.86Z"/></svg>