<svg xmlns="http://www.w3.org/2000/svg" viewBox="0 0 16.24 40.48"><defs><style>.a{fill:#1d1d1c;}.b{fill:#fff;}</style></defs><rect class="a" x="-12.12" y="12.12" width="40.48" height="16.24" transform="translate(28.36 12.12) rotate(90)"/><path class="b" d="M6.35,21.51a1.69,1.69,0,0,0-1.23,1,2.59,2.59,0,0,0-.19,1,2.13,2.13,0,0,0,.78,1.7,3.55,3.55,0,0,0,2.34.67,2.91,2.91,0,0,0,2.23-.72,2.36,2.36,0,0,0,.65-1.64A2.12,2.12,0,0,0,10.42,22a2.23,2.23,0,0,0-1.35-.71v2H7.64V19.73h4.59v1.18l-1.07.18A3.84,3.84,0,0,1,12,22a3.26,3.26,0,0,1,.44,1.74,3.59,3.59,0,0,1-1.18,2.78A4.45,4.45,0,0,1,8,27.67a4.76,4.76,0,0,1-3.33-1.14,3.91,3.91,0,0,1-1.25-3,4,4,0,0,1,.82-2.62,3.06,3.06,0,0,1,2.07-1.13Z"/><path class="b" d="M8.94,18.67V17.49L7.24,17v1.18l-1-.26V16.77l-2.34-.63V15l2.34.64v-.95L3.93,14V12.89l2.34.63V12.34l1,.26v1.18l1.7.45V13.05l1,.26v1.18l2.32.62v1.16l-2.32-.63v1l2.32.63v1.15l-2.32-.63v1.18Zm0-3.29-1.7-.45v1l1.7.46Z"/></svg>