<svg xmlns="http://www.w3.org/2000/svg" viewBox="0 0 16.24 40.48"><defs><style>.a{fill:#fff;}.b{fill:#1d1d1c;}</style></defs><rect class="a" x="-12.12" y="12.12" width="40.48" height="16.24" transform="translate(28.36 12.12) rotate(90)"/><path class="b" d="M3.86,18.7A2.83,2.83,0,0,1,5,17.24a3.72,3.72,0,0,1,1.38-.61,6.49,6.49,0,0,1,1.41-.16,5.75,5.75,0,0,1,2.89.68A3.09,3.09,0,0,1,12.23,20v3.69H3.68V20A4.78,4.78,0,0,1,3.86,18.7ZM5.16,22h5.58V20.32A1.77,1.77,0,0,0,9.5,18.56a4.44,4.44,0,0,0-1.63-.28,4.08,4.08,0,0,0-2,.41,1.75,1.75,0,0,0-.7,1.63Z"/></svg>