<svg xmlns="http://www.w3.org/2000/svg" viewBox="0 0 16.24 40.48"><defs><style>.a{fill:#1d1d1c;}.b{fill:#fff;}</style></defs><rect class="a" x="-12.12" y="12.12" width="40.48" height="16.24" transform="translate(28.36 12.12) rotate(90)"/><path class="b" d="M4.57,26.12a3.54,3.54,0,0,1-1.05-2.63,3.55,3.55,0,0,1,1.41-3.12,3.06,3.06,0,0,1,1.6-.59v1.79A2.37,2.37,0,0,0,5.6,22,1.77,1.77,0,0,0,5,23.42a1.74,1.74,0,0,0,.79,1.51,3.87,3.87,0,0,0,2.22.55,3.44,3.44,0,0,0,2.16-.58,1.84,1.84,0,0,0,.71-1.48,1.67,1.67,0,0,0-.61-1.4,2.54,2.54,0,0,0-1-.44V19.8A3.81,3.81,0,0,1,11.59,21a3.45,3.45,0,0,1,.88,2.42,3.62,3.62,0,0,1-1.19,2.87,4.75,4.75,0,0,1-3.26,1A4.74,4.74,0,0,1,4.57,26.12Z"/><path class="b" d="M8.94,19V17.83l-1.7-.46v1.18l-1-.26V17.11l-2.34-.64V15.32L6.27,16V15l-2.34-.62V13.22l2.34.63V12.67l1,.26v1.18l1.7.46V13.39l1,.26v1.18l2.32.62V16.6L9.91,16v1l2.32.62v1.16l-2.32-.63v1.17Zm0-3.28-1.7-.46v1l1.7.45Z"/></svg>