<svg xmlns="http://www.w3.org/2000/svg" viewBox="0 0 16.24 40.48"><defs><style>.a{fill:#1d1d1c;}.b{fill:#fff;}</style></defs><rect class="a" x="-12.12" y="12.12" width="40.48" height="16.24" transform="translate(28.36 12.12) rotate(90)"/><path class="b" d="M3.86,21.92A2.8,2.8,0,0,1,5,20.47a3.72,3.72,0,0,1,1.38-.61,6.53,6.53,0,0,1,1.41-.17,5.65,5.65,0,0,1,2.89.69,3.08,3.08,0,0,1,1.6,2.87v3.68H3.68V23.25A4.91,4.91,0,0,1,3.86,21.92Zm1.3,3.28h5.58V23.55A1.78,1.78,0,0,0,9.5,21.78a4.45,4.45,0,0,0-1.63-.27,4.08,4.08,0,0,0-2,.41,1.74,1.74,0,0,0-.7,1.63Z"/><path class="b" d="M8.94,19V17.83l-1.7-.46v1.18l-1-.26V17.11l-2.34-.64V15.32L6.27,16V15l-2.34-.63V13.22l2.34.63V12.67l1,.26v1.18l1.7.46V13.39l1,.25v1.18l2.32.63V16.6L9.91,16v.95l2.32.63v1.15l-2.32-.62v1.17Zm0-3.28-1.7-.46v1l1.7.46Z"/></svg>