<svg width="17" height="42" viewBox="0 0 17 42" fill="none" xmlns="http://www.w3.org/2000/svg">
<path d="M1.6543 38.0483L1.6543 4.0205C1.6543 2.84877 2.60389 1.89929 3.77478 1.89929H13.6861C14.857 1.89929 15.8066 2.84877 15.8066 4.0205L15.8066 38.0483C15.8066 39.2201 14.857 40.1696 13.6861 40.1696H3.77478C2.60389 40.1696 1.6543 39.2201 1.6543 38.0483Z" fill="#1B1C1C" stroke="black" stroke-width="2" stroke-miterlimit="10"/>
<path d="M13.4928 16.4205V25.6484H9.32622C9.11528 25.6656 8.90353 25.6359 8.70545 25.5613C8.50737 25.4868 8.32793 25.3693 8.18066 25.2172C7.93452 24.8626 7.77655 24.4543 7.71971 24.0264L6.85677 19.7094C6.84605 19.5723 6.78255 19.4446 6.67989 19.3531C6.57723 19.2616 6.4431 19.2133 6.30567 19.2183H5.59134C5.32523 19.2183 5.19179 19.411 5.19179 19.7962V25.6484H3.97168V18.3789C3.97168 17.0733 4.57023 16.4205 5.76773 16.4205H7.44928C7.88379 16.387 8.31477 16.5202 8.65477 16.7928C8.96072 17.1166 9.15835 17.5275 9.22048 17.9686L10.1278 22.4783C10.1876 22.7857 10.4107 22.9394 10.7973 22.9394H12.2712V16.4205H13.4928Z" fill="#F79E3A"/>
</svg>
