<svg width="98" height="68" viewBox="0 0 98 68" fill="none" xmlns="http://www.w3.org/2000/svg">
<path d="M2.20642 10.1229L2.20647 10.1231C6.24983 26.7983 11.4407 43.0932 17.7322 58.8604L17.7551 58.9179L17.7745 58.9768C18.1679 60.1729 18.8419 61.1914 19.6918 61.934C20.5195 62.6572 21.481 63.0911 22.4673 63.2221L90.3661 65.9957L90.3693 65.9958C91.2828 66.0346 92.2029 65.8015 93.0393 65.2992C93.8782 64.7953 94.6118 64.0319 95.1427 63.0621C95.674 62.0915 95.9744 60.9635 95.9984 59.7953C96.0225 58.6272 95.7686 57.4823 95.2757 56.481L95.275 56.4795C87.4879 40.6274 81.2847 23.8606 76.7748 6.48401C76.4178 5.13066 75.6901 3.98294 74.7436 3.18921C73.8015 2.39909 72.6921 1.99866 71.5829 2H71.5805H7.44813C6.65163 2.00245 5.85584 2.21019 5.11845 2.62181C4.37835 3.03494 3.71056 3.64648 3.18185 4.42627C2.65271 5.20673 2.28113 6.1292 2.10844 7.125C1.93585 8.12024 1.96982 9.14752 2.20642 10.1229Z" fill="#1B1C1C" stroke="black" stroke-width="4" stroke-miterlimit="10"/>
</svg>
