<svg width="117" height="11" viewBox="0 0 117 11" fill="none" xmlns="http://www.w3.org/2000/svg">
<path d="M49.9536 9.95912L46.3513 0.39194C46.3234 0.287068 46.2627 0.19313 46.1779 0.122978C46.0932 0.0528262 45.9883 0.009856 45.8776 0H0.529141C0.236926 0 0 0.321607 0 0.716974V10.2842C0 10.6795 0.236926 11 0.529141 11H49.4787C49.8774 10.9965 50.1334 10.4329 49.9536 9.95912Z" fill="#E1ECF3"/>
<path d="M117 10H48.9834V11H117V10Z" fill="#E1ECF3"/>
<path d="M5.35282 6.604H4.13682C4.13149 6.956 4.19549 7.26 4.32882 7.516C4.46216 7.772 4.64082 7.98267 4.86482 8.148C5.09416 8.31333 5.35549 8.43333 5.64882 8.508C5.94749 8.588 6.25416 8.628 6.56882 8.628C6.95816 8.628 7.29949 8.58267 7.59282 8.492C7.89149 8.40133 8.13949 8.276 8.33682 8.116C8.53949 7.95067 8.69149 7.756 8.79282 7.532C8.89416 7.308 8.94482 7.06533 8.94482 6.804C8.94482 6.484 8.87549 6.22267 8.73682 6.02C8.60349 5.812 8.44349 5.64667 8.25682 5.524C8.07016 5.40133 7.88082 5.31333 7.68882 5.26C7.50216 5.20133 7.35549 5.16133 7.24882 5.14C6.89149 5.04933 6.60082 4.97467 6.37682 4.916C6.15816 4.85733 5.98482 4.79867 5.85682 4.74C5.73416 4.68133 5.65149 4.61733 5.60882 4.548C5.56616 4.47867 5.54482 4.388 5.54482 4.276C5.54482 4.15333 5.57149 4.052 5.62482 3.972C5.67816 3.892 5.74482 3.82533 5.82482 3.772C5.91016 3.71867 6.00349 3.68133 6.10482 3.66C6.20616 3.63867 6.30749 3.628 6.40882 3.628C6.56349 3.628 6.70482 3.64133 6.83282 3.668C6.96616 3.69467 7.08349 3.74 7.18482 3.804C7.28616 3.868 7.36616 3.956 7.42482 4.068C7.48882 4.18 7.52616 4.32133 7.53682 4.492H8.75282C8.75282 4.16133 8.68882 3.88133 8.56082 3.652C8.43816 3.41733 8.27016 3.22533 8.05682 3.076C7.84349 2.92667 7.59816 2.82 7.32082 2.756C7.04882 2.68667 6.76349 2.652 6.46482 2.652C6.20882 2.652 5.95282 2.68667 5.69682 2.756C5.44082 2.82533 5.21149 2.932 5.00882 3.076C4.80616 3.22 4.64082 3.40133 4.51282 3.62C4.39016 3.83333 4.32882 4.08667 4.32882 4.38C4.32882 4.64133 4.37682 4.86533 4.47282 5.052C4.57416 5.23333 4.70482 5.38533 4.86482 5.508C5.02482 5.63067 5.20616 5.732 5.40882 5.812C5.61149 5.88667 5.81949 5.95067 6.03282 6.004C6.24082 6.06267 6.44616 6.116 6.64882 6.164C6.85149 6.212 7.03282 6.268 7.19282 6.332C7.35282 6.396 7.48082 6.476 7.57682 6.572C7.67816 6.668 7.72882 6.79333 7.72882 6.948C7.72882 7.092 7.69149 7.212 7.61682 7.308C7.54216 7.39867 7.44882 7.47067 7.33682 7.524C7.22482 7.57733 7.10482 7.61467 6.97682 7.636C6.84882 7.652 6.72882 7.66 6.61682 7.66C6.45149 7.66 6.29149 7.64133 6.13682 7.604C5.98216 7.56133 5.84616 7.5 5.72882 7.42C5.61682 7.33467 5.52616 7.22533 5.45682 7.092C5.38749 6.95867 5.35282 6.796 5.35282 6.604ZM11.1321 6.292L11.8761 4.196H11.8921L12.6121 6.292H11.1321ZM11.2521 2.788L9.09214 8.5H10.3561L10.8041 7.228H12.9401L13.3721 8.5H14.6761L12.5401 2.788H11.2521ZM15.1687 2.788V8.5H16.3447V4.492H16.3607L17.7607 8.5H18.7287L20.1287 4.452H20.1447V8.5H21.3207V2.788H19.5527L18.2887 6.716H18.2727L16.9367 2.788H15.1687ZM23.6825 5.476V3.764H24.6585C24.8025 3.764 24.9412 3.77467 25.0745 3.796C25.2078 3.81733 25.3252 3.86 25.4265 3.924C25.5278 3.98267 25.6078 4.068 25.6665 4.18C25.7305 4.292 25.7625 4.43867 25.7625 4.62C25.7625 4.80133 25.7305 4.948 25.6665 5.06C25.6078 5.172 25.5278 5.26 25.4265 5.324C25.3252 5.38267 25.2078 5.42267 25.0745 5.444C24.9412 5.46533 24.8025 5.476 24.6585 5.476H23.6825ZM22.4265 2.788V8.5H23.6825V6.452H25.0025C25.3598 6.452 25.6638 6.40133 25.9145 6.3C26.1652 6.19333 26.3678 6.05467 26.5225 5.884C26.6825 5.71333 26.7972 5.51867 26.8665 5.3C26.9412 5.076 26.9785 4.84933 26.9785 4.62C26.9785 4.38533 26.9412 4.15867 26.8665 3.94C26.7972 3.72133 26.6825 3.52667 26.5225 3.356C26.3678 3.18533 26.1652 3.04933 25.9145 2.948C25.6638 2.84133 25.3598 2.788 25.0025 2.788H22.4265ZM27.7624 2.788V8.5H31.8024V7.444H29.0184V2.788H27.7624ZM32.5046 2.788V8.5H36.8406V7.444H33.7606V6.044H36.5286V5.068H33.7606V3.844H36.7766V2.788H32.5046Z" fill="#525256"/>
</svg>
