<svg width="47" height="70" viewBox="0 0 47 70" fill="none" xmlns="http://www.w3.org/2000/svg">
<path d="M10.3998 4.47373C5.04976 13.7776 2 23.2528 2 34.8985C2 46.5443 5.04976 56.0186 10.3998 65.3225C10.6792 65.8095 11.0791 66.2168 11.5607 66.5053C12.0424 66.7939 12.5898 66.954 13.1511 66.9706L44.2354 68.294C44.9392 68.6587 44.931 67.7319 44.0832 66.6186C43.647 66.0458 43.3626 65.6056 43.0832 65.1186C37.7331 55.8147 34.6747 46.5443 34.6747 34.8985C34.6747 23.2528 37.2331 13.7776 42.5832 4.47373C43.5 2.99431 44.6928 1.9153 44.235 2.00523L13.1511 2.82565C12.5898 2.8421 12.042 3.00225 11.5603 3.2908C11.0786 3.57935 10.6791 3.98664 10.3998 4.47373Z" fill="#1B1C1C"/>
<path d="M42.5832 4.47373C37.2331 13.7776 34.6747 23.2528 34.6747 34.8985C34.6747 46.5443 37.7331 55.8147 43.0832 65.1186C43.3626 65.6056 43.647 66.0458 44.0832 66.6186C44.931 67.7319 44.9392 68.6587 44.2354 68.294L13.1511 66.9706C12.5898 66.954 12.0424 66.7939 11.5607 66.5053C11.0791 66.2168 10.6792 65.8095 10.3998 65.3225C5.04976 56.0186 2 46.5443 2 34.8985C2 23.2528 5.04976 13.7776 10.3998 4.47373C10.6791 3.98664 11.0786 3.57935 11.5603 3.2908C12.042 3.00225 12.5898 2.8421 13.1511 2.82565L44.235 2.00523C44.6928 1.9153 43.5 2.99431 42.5832 4.47373ZM42.5832 4.47373C42.8625 3.98664 42.3979 4.68358 42.5832 4.47373Z" stroke="black" stroke-width="2" stroke-miterlimit="10"/>
</svg>
