<svg width="17" height="42" viewBox="0 0 17 42" fill="none" xmlns="http://www.w3.org/2000/svg">
<path d="M1.6543 38.1383L1.6543 4.1104C1.6543 2.93868 2.60389 1.9892 3.77478 1.9892H13.6861C14.857 1.9892 15.8066 2.93868 15.8066 4.1104L15.8066 38.1383C15.8066 39.31 14.857 40.2595 13.6861 40.2595H3.77478C2.60389 40.2595 1.6543 39.31 1.6543 38.1383Z" fill="#1B1C1C" stroke="black" stroke-width="2" stroke-miterlimit="10"/>
<path d="M11.7675 16.5124C12.0019 16.4789 12.2406 16.5004 12.4652 16.5753C12.6899 16.6502 12.8942 16.7763 13.0616 16.9438C13.2291 17.1113 13.3552 17.3154 13.43 17.5401C13.5049 17.7648 13.5264 18.0038 13.4929 18.2382V24.0135C13.5266 24.248 13.5053 24.4872 13.4305 24.712C13.3557 24.9368 13.2296 25.1411 13.0621 25.3087C12.8947 25.4763 12.6904 25.6025 12.4657 25.6775C12.241 25.7524 12.0019 25.7739 11.7675 25.7403H5.69616C5.4616 25.7741 5.22227 25.7527 4.99742 25.6778C4.77258 25.603 4.56809 25.4767 4.40053 25.3091C4.23296 25.1415 4.10698 24.9372 4.03215 24.7123C3.95733 24.4874 3.93604 24.2481 3.96978 24.0135V16.6612H5.18989V22.4504C5.18989 22.7785 5.31883 22.9425 5.57629 22.9425H8.017V22.9126C7.61783 22.8327 7.41864 22.6301 7.41864 22.3017V18.2382C7.38528 18.0037 7.40651 17.7647 7.48149 17.54C7.55647 17.3154 7.68286 17.1112 7.85035 16.9438C8.01785 16.7764 8.2221 16.6502 8.44676 16.5754C8.67142 16.5005 8.91059 16.4789 9.14501 16.5124H11.7675ZM11.8113 19.2214H9.10311C9.03932 19.2133 8.97423 19.2202 8.91356 19.2415C8.85289 19.2628 8.79799 19.298 8.75325 19.3442C8.70852 19.3904 8.67515 19.4464 8.6558 19.5077C8.63645 19.569 8.63155 19.634 8.64167 19.6975V22.4654C8.63159 22.529 8.63645 22.594 8.6558 22.6553C8.67515 22.7167 8.70854 22.7727 8.75325 22.819C8.79796 22.8653 8.8529 22.9005 8.91356 22.9219C8.97422 22.9434 9.03926 22.9504 9.10311 22.9425H11.8113C11.8752 22.9506 11.9401 22.9437 12.0009 22.9223C12.0617 22.901 12.1168 22.8657 12.1617 22.8194C12.2065 22.7732 12.2397 22.7171 12.2591 22.6556C12.2785 22.5942 12.2834 22.529 12.2732 22.4654V19.6975C12.2837 19.6338 12.2793 19.5684 12.2601 19.5068C12.2408 19.4451 12.2075 19.3888 12.1626 19.3423C12.1177 19.2958 12.0623 19.2605 12.0014 19.2392C11.9404 19.2178 11.8754 19.2111 11.8113 19.2194V19.2214Z" fill="#F79E3A"/>
</svg>
