<svg width="98" height="69" viewBox="0 0 98 69" fill="none" xmlns="http://www.w3.org/2000/svg">
<path d="M7.05504 66.5H7.05239C6.30745 66.501 5.56767 66.3233 4.88731 65.9747C4.20656 65.6258 3.59917 65.1126 3.11681 64.4651C2.63384 63.8169 2.29083 63.054 2.12105 62.2327C1.9517 61.4134 1.96022 60.5626 2.14549 59.7463C6.17638 42.6634 11.4265 25.9297 17.8511 9.68931L17.8525 9.68577C19.01 6.74366 20.9258 5.39435 22.4521 5.31688C22.4542 5.31677 22.4563 5.31667 22.4584 5.31657L90.7588 2.50352C90.7596 2.50349 90.7603 2.50346 90.761 2.50343C91.6276 2.47021 92.4924 2.67858 93.2716 3.11649C94.0524 3.55537 94.724 4.21253 95.2077 5.03316C95.6917 5.85446 95.9668 6.80513 95.9972 7.78861C96.0275 8.77226 95.8117 9.7418 95.3779 10.5976L95.3734 10.6065L95.369 10.6154C87.2021 27.1328 80.7695 44.5453 76.1867 62.5414C75.8818 63.7099 75.2285 64.7187 74.3497 65.4258C73.4714 66.1324 72.415 66.5022 71.3429 66.5H71.3387H7.05504Z" fill="#1B1C1C" stroke="black" stroke-width="4" stroke-miterlimit="10"/>
</svg>
