<svg width="98" height="69" viewBox="0 0 98 69" fill="none" xmlns="http://www.w3.org/2000/svg">
<path d="M90.6561 66.5H90.6512H26.7641H26.7608C25.6232 66.5019 24.5032 66.1099 23.5744 65.3644C22.6446 64.6181 21.955 63.5551 21.6331 62.3267C17.0716 44.516 10.6948 27.2779 2.61433 10.9145C2.17393 10.0142 1.96196 9.0012 2.0056 7.97825C2.04928 6.95462 2.34723 5.96717 2.86138 5.11522C3.37469 4.26468 4.08305 3.58417 4.90505 3.13097C5.72598 2.67834 6.63572 2.46523 7.54688 2.50462L7.55114 2.5048L75.558 5.29929C75.5603 5.2994 75.5625 5.29952 75.5648 5.29963C77.1021 5.3785 79.0207 6.7307 80.1802 9.67148L80.1816 9.67501C86.5781 25.8074 91.8144 42.4263 95.8454 59.3906C96.0416 60.249 96.0513 61.1437 95.8732 62.0054C95.6945 62.8699 95.3333 63.6729 94.8238 64.3552C94.3149 65.0366 93.672 65.5783 92.9505 65.9467C92.23 66.3146 91.4459 66.5019 90.6561 66.5ZM90.6512 68.5H26.7641H90.6512Z" fill="#1B1C1C" stroke="black" stroke-width="4" stroke-miterlimit="10"/>
</svg>
