<svg width="17" height="41" viewBox="0 0 17 41" fill="none" xmlns="http://www.w3.org/2000/svg">
<path d="M16.5242 40.723L16.5242 0.334015L0.320169 0.334015L0.320169 40.723H16.5242Z" fill="white"/>
<path d="M11.8469 22.275C12.4762 23.046 12.8199 24.0108 12.8199 25.006C12.8199 26.0013 12.4762 26.966 11.8469 27.737C11.3948 28.1772 10.8551 28.5174 10.263 28.7355C9.67089 28.9536 9.03952 29.0448 8.40988 29.003C7.77956 29.0508 7.14635 28.9625 6.55316 28.744C5.95998 28.5256 5.4207 28.1821 4.97189 27.737C4.34327 26.9656 4 26.0011 4 25.006C4 24.011 4.34327 23.0464 4.97189 22.275C5.42144 21.8312 5.96096 21.489 6.55405 21.2714C7.14713 21.0539 7.77998 20.9661 8.40988 21.014C9.03915 20.9716 9.67032 21.062 10.2624 21.2792C10.8545 21.4964 11.3944 21.8357 11.8469 22.275V22.275ZM10.5809 23.363C9.92695 22.9653 9.17627 22.7549 8.41088 22.7549C7.64549 22.7549 6.89482 22.9653 6.24088 23.363C5.99216 23.5566 5.793 23.8065 5.65982 24.0922C5.52664 24.3778 5.46326 24.691 5.47488 25.006C5.46376 25.3219 5.52713 25.6359 5.65985 25.9227C5.79257 26.2095 5.99093 26.4611 6.23888 26.657C6.89142 27.0597 7.6431 27.2729 8.40988 27.2729C9.17667 27.2729 9.92835 27.0597 10.5809 26.657C10.8287 26.461 11.0268 26.2094 11.1594 25.9225C11.2919 25.6357 11.3551 25.3218 11.3439 25.006C11.3552 24.692 11.292 24.3797 11.1594 24.0948C11.0267 23.8099 10.8285 23.5605 10.5809 23.367V23.363Z" fill="#2B2A28"/>
<path d="M12.5879 19.701H4.25391V17.97H7.43191V14.731H4.25391V13H12.5879V14.731H8.8679V17.97H12.5879V19.701Z" fill="#2B2A28"/>
</svg>
