<svg width="17" height="41" viewBox="0 0 17 41" fill="none" xmlns="http://www.w3.org/2000/svg">
<path d="M16.2041 40.417L16.2041 0.0280151L0.000101089 0.0280151L0.000101089 40.417H16.2041Z" fill="white"/>
<path d="M11.0254 23.0293L11.0254 26.2109L12.8008 26.8086L12.8008 28.6953L4.16406 25.6133L4.16406 23.5742L12.8008 20.5156L12.8008 22.4727L11.0254 23.0293ZM9.53711 23.5332L6.13867 24.6113L9.53711 25.7246L9.53711 23.5332Z" fill="black"/>
<path d="M12.1562 13.3203C12.7461 13.9648 13.041 14.7891 13.041 15.793C13.041 17.0352 12.6426 18.0117 11.8457 18.7227C11.0449 19.4336 9.94727 19.7891 8.55273 19.7891C7.04492 19.7891 5.88281 19.3848 5.06641 18.5762C4.35547 17.873 4 16.9785 4 15.8926C4 14.4395 4.47656 13.377 5.42969 12.7051C5.96484 12.334 6.50195 12.1348 7.04101 12.1074L7.04101 13.9121C6.62695 14.0293 6.31445 14.1797 6.10351 14.3633C5.72852 14.6914 5.54102 15.1777 5.54102 15.8223C5.54102 16.4785 5.80664 16.9961 6.33789 17.375C6.86523 17.7539 7.61328 17.9434 8.58203 17.9434C9.55078 17.9434 10.2773 17.7441 10.7617 17.3457C11.2422 16.9434 11.4824 16.4336 11.4824 15.8164C11.4824 15.1836 11.2754 14.7012 10.8613 14.3691C10.6387 14.1855 10.3047 14.0332 9.85937 13.9121L9.85937 12.125C10.8008 12.2812 11.5664 12.6797 12.1562 13.3203Z" fill="black"/>
</svg>
