<svg width="18" height="41" viewBox="0 0 18 41" fill="none" xmlns="http://www.w3.org/2000/svg">
<path d="M17.1621 40.939L17.1621 0.551025L0.958109 0.551025L0.958109 40.939H17.1621Z" fill="white"/>
<path d="M11.012 26.5277C11.3205 26.5025 11.6161 26.3925 11.866 26.2097C12.0555 26.0155 12.1999 25.782 12.2889 25.5257C12.3779 25.2694 12.4093 24.9966 12.381 24.7268C12.3911 24.3813 12.3452 24.0365 12.245 23.7058C12.1935 23.4895 12.0695 23.2975 11.8935 23.1617C11.7175 23.0259 11.5002 22.9546 11.278 22.9597C11.1484 22.9567 11.0204 22.9891 10.9078 23.0534C10.7952 23.1177 10.7022 23.2115 10.639 23.3247C10.45 23.6879 10.3185 24.0783 10.249 24.4818L10.049 25.3817C9.94337 26.0231 9.72716 26.6413 9.40999 27.2088C9.20729 27.4916 8.93528 27.7176 8.62006 27.8651C8.30485 28.0125 7.95703 28.0764 7.60999 28.0507C7.25844 28.0583 6.90953 27.9885 6.58795 27.8463C6.26636 27.704 5.97995 27.4929 5.74899 27.2277C5.21038 26.5402 4.94663 25.6769 5.00899 24.8057C4.98605 23.9911 5.23205 23.1916 5.70899 22.5308C5.94506 22.218 6.25177 21.9656 6.60406 21.794C6.95635 21.6225 7.34422 21.5368 7.73599 21.5438V23.2167C7.51285 23.2184 7.29461 23.2823 7.10577 23.4012C6.91693 23.5201 6.76498 23.6892 6.66699 23.8897C6.51786 24.2149 6.44631 24.5702 6.45799 24.9277C6.43938 25.3131 6.53394 25.6954 6.72999 26.0277C6.80866 26.157 6.92014 26.2631 7.0531 26.3353C7.18606 26.4075 7.33576 26.4431 7.48699 26.4387C7.62547 26.4432 7.76227 26.4073 7.88071 26.3354C7.99914 26.2635 8.09409 26.1587 8.15399 26.0338C8.31094 25.6792 8.4267 25.3077 8.49899 24.9268L8.84399 23.4638C8.94016 22.9462 9.14463 22.4548 9.44399 22.0217C9.64829 21.772 9.90889 21.5743 10.2044 21.4448C10.4999 21.3153 10.8219 21.2577 11.144 21.2767C11.5069 21.2703 11.8665 21.3464 12.1957 21.4993C12.5249 21.6523 12.8149 21.8782 13.044 22.1597C13.5875 22.8732 13.8556 23.7587 13.799 24.6538C13.8516 25.5765 13.5893 26.4896 13.055 27.2437C12.8138 27.552 12.5025 27.7984 12.147 27.9622C11.7915 28.1261 11.4021 28.2027 11.011 28.1857L11.012 26.5277Z" fill="#2B2A28"/>
<path d="M5.432 15.1757C5.61827 14.5988 5.98985 14.0997 6.48901 13.7557C6.89369 13.4701 7.35128 13.2682 7.835 13.1617C8.28758 13.0591 8.74995 13.0058 9.21401 13.0027C10.1953 12.9719 11.1671 13.2024 12.03 13.6707C12.5261 13.9441 12.9352 14.3519 13.2102 14.8471C13.4852 15.3423 13.6151 15.905 13.585 16.4707V20.0647H5.25101V16.4707C5.24611 16.0324 5.30713 15.5959 5.432 15.1757V15.1757ZM6.69801 18.3687H12.137V16.7607C12.1514 16.3803 12.0402 16.0057 11.8206 15.6947C11.601 15.3837 11.2853 15.1535 10.922 15.0397C10.4141 14.8508 9.87481 14.7601 9.33301 14.7727C8.65835 14.7346 7.98536 14.8724 7.38001 15.1727C7.13338 15.351 6.9397 15.5928 6.81961 15.8725C6.69951 16.1521 6.65749 16.4591 6.69801 16.7607V18.3687Z" fill="#2B2A28"/>
</svg>
