<svg xmlns="http://www.w3.org/2000/svg" viewBox="0 0 19.17 135"><path d="M19.17,21.47V0H14.76V8.15H0v5.17H14.76v8.15Z" fill="#565454"/><path d="M19.17,23.67H14.76V41.39a1.3,1.3,0,0,1-.1.52,1.4,1.4,0,0,1-.29.44,1.42,1.42,0,0,1-.43.29,1.3,1.3,0,0,1-.52.1,1.29,1.29,0,0,1-.51-.1,1.25,1.25,0,0,1-.44-.29,1.42,1.42,0,0,1-.29-.43,1.29,1.29,0,0,1-.1-.51l-.15-17.74L0,23.8v5.55l6.71,0s.77,0,.77.58V42a1.21,1.21,0,0,1-1,1.15C5.56,43.32,0,44.61,0,44.61V50L6.71,48.3S9,47.54,9,46.19c0,0,1.15,1.92,2.87,1.92h4.41a3,3,0,0,0,1.89-.73,3,3,0,0,0,1-1.76Z" fill="#565454"/><path d="M12.08,60.39v-10H7.67v10Z" fill="#565454"/><path d="M19.17,106.5V92.87a4.51,4.51,0,0,0-4.5-4.5H4.49A4.51,4.51,0,0,0,0,92.87V106.5A4.49,4.49,0,0,0,4.49,111H14.67a4.49,4.49,0,0,0,4.5-4.49Zm-12-.87a2.57,2.57,0,0,1-1-.2,2.53,2.53,0,0,1-.84-.56A2.61,2.61,0,0,1,4.55,103V96.33a2.58,2.58,0,0,1,2.59-2.58H12a2.58,2.58,0,0,1,2.59,2.58V103a2.61,2.61,0,0,1-.76,1.83,2.53,2.53,0,0,1-.84.56,2.57,2.57,0,0,1-1,.2Z" fill="#565454"/><path d="M19.17,86.26V63.45H14.68V79.78L.16,67v6.49S14.33,86.27,14.67,86.27h4.5Z" fill="#565454"/><path d="M19.17,135V112.19H14.68v16.33L.16,115.76v6.48S14.33,135,14.67,135h4.5Z" fill="#565454"/></svg>