<svg width="17" height="41" viewBox="0 0 17 41" fill="none" xmlns="http://www.w3.org/2000/svg">
<path d="M15.704 0.812073L15.704 40.1682H0.50001L0.50001 0.812073L15.704 0.812073Z" fill="#C3C1A7" stroke="black"/>
<path d="M13 23.8145L13 27.7285L4.36328 27.7285L4.36328 23.5332C4.37891 22.4746 4.68555 21.7246 5.2832 21.2832C5.65039 21.0176 6.08984 20.8848 6.60156 20.8848C7.12891 20.8848 7.55273 21.0176 7.87305 21.2832C8.05273 21.4316 8.2168 21.6504 8.36523 21.9395C8.52539 21.498 8.7793 21.166 9.12695 20.9434C9.47461 20.7168 9.89648 20.6035 10.3926 20.6035C10.9043 20.6035 11.3633 20.7324 11.7695 20.9902C12.0391 21.1543 12.2656 21.3594 12.4492 21.6055C12.6602 21.8828 12.8047 22.2109 12.8828 22.5898C12.9609 22.9648 13 23.373 13 23.8145ZM9.19727 23.8555L9.19727 26.0059L11.5 26.0059L11.5 23.8848C11.5 23.5059 11.4492 23.2109 11.3477 23C11.1602 22.6172 10.8008 22.4258 10.2695 22.4258C9.82031 22.4258 9.51172 22.6113 9.34375 22.9824C9.25 23.1895 9.20117 23.4805 9.19727 23.8555ZM7.55078 22.959C7.41016 22.7246 7.1582 22.6074 6.79492 22.6074C6.39258 22.6074 6.12695 22.7637 5.99805 23.0762C5.9082 23.3457 5.86328 23.6895 5.86328 24.1074L5.86328 26.0059L7.76758 26.0059L7.76758 23.8848C7.76758 23.5059 7.69531 23.1973 7.55078 22.959ZM13 15.3652L13 19.0859L4.36328 19.0859L4.36328 15.3652C4.37109 14.8301 4.43359 14.3848 4.55078 14.0293C4.75 13.4238 5.11523 12.9336 5.64648 12.5586C6.07617 12.2578 6.54101 12.0527 7.04101 11.9434C7.54101 11.834 8.01758 11.7793 8.4707 11.7793C9.61914 11.7793 10.5918 12.0098 11.3887 12.4707C12.4629 13.0957 13 14.0605 13 15.3652ZM6.56641 14.0234C6.09766 14.3008 5.86328 14.8496 5.86328 15.6699L5.86328 17.334L11.5 17.334L11.5 15.6699C11.5 14.8184 11.0801 14.2246 10.2402 13.8887C9.7793 13.7051 9.23047 13.6133 8.59375 13.6133C7.71484 13.6133 7.03906 13.75 6.56641 14.0234Z" fill="black"/>
</svg>
