<svg width="96" height="95" viewBox="0 0 96 95" fill="none" xmlns="http://www.w3.org/2000/svg">
<g clip-path="url(#clip0_149_647)">
<path d="M47.5 1C59.8326 1 71.66 5.89909 80.3805 14.6195C89.1009 23.34 94 35.1674 94 47.5C94 59.8326 89.1009 71.66 80.3805 80.3805C71.66 89.1009 59.8326 94 47.5 94C35.1674 94 23.34 89.1009 14.6195 80.3805C5.89909 71.66 1 59.8326 1 47.5C1 35.1674 5.89909 23.34 14.6195 14.6195C23.34 5.89909 35.1674 1 47.5 1Z" fill="#767676" stroke="#585856" stroke-width="2"/>
<path d="M50 2H47V25H50V2Z" fill="#EC8542"/>
</g>
<defs>
<clipPath id="clip0_149_647">
<rect width="96" height="95" fill="white"/>
</clipPath>
</defs>
</svg>
