<svg width="17" height="41" viewBox="0 0 17 41" fill="none" xmlns="http://www.w3.org/2000/svg">
<path d="M15.704 0.5L15.704 39.8561H0.50001L0.50001 0.5L15.704 0.5Z" fill="#C3C1A7" stroke="black"/>
<path d="M12.0595 21.8301C12.6493 22.4746 12.9442 23.2988 12.9442 24.3027C12.9442 25.5449 12.5458 26.5215 11.7489 27.2324C10.9482 27.9434 9.85049 28.2988 8.45596 28.2988C6.94815 28.2988 5.78604 27.8945 4.96963 27.0859C4.2587 26.3828 3.90323 25.4883 3.90323 24.4023C3.90323 22.9492 4.37979 21.8867 5.33292 21.2148C5.86807 20.8437 6.40518 20.6445 6.94424 20.6172L6.94424 22.4219C6.53018 22.5391 6.21768 22.6895 6.00674 22.873C5.63174 23.2012 5.44424 23.6875 5.44424 24.332C5.44424 24.9883 5.70987 25.5059 6.24112 25.8848C6.76846 26.2637 7.51651 26.4531 8.48526 26.4531C9.45401 26.4531 10.1806 26.2539 10.6649 25.8555C11.1454 25.4531 11.3857 24.9434 11.3857 24.3262C11.3857 23.6934 11.1786 23.2109 10.7646 22.8789C10.5419 22.6953 10.2079 22.543 9.7626 22.4219L9.7626 20.6348C10.704 20.791 11.4696 21.1895 12.0595 21.8301ZM4.06729 12.2793L9.45792 15.168L12.704 15.168L12.704 16.9727L9.45792 16.9727L4.06729 19.9609L4.06729 17.834L7.82901 16.041L4.06729 14.3242L4.06729 12.2793Z" fill="black"/>
</svg>
