<svg width="173" height="163" viewBox="0 0 173 163" fill="none" xmlns="http://www.w3.org/2000/svg">
<path fill-rule="evenodd" clip-rule="evenodd" d="M84.4268 0H86.3957V24.0801H84.4268V0ZM172.98 86.4993H149.018V84.6106L172.98 84.3356V86.4993ZM129.682 11.5263L127.791 10.4651L116.101 31.5602L117.956 32.6202L129.682 11.5263ZM160.29 41.4578L161.376 43.324L140.643 55.5316L139.531 53.6791L160.29 41.4578ZM119.237 139.657L117.381 140.735L129.737 161.44L131.562 160.282L119.237 139.657ZM41.1215 12.8239L42.9454 11.6988L55.518 32.289L53.6866 33.4064L41.1215 12.8239ZM161.375 129.767L162.444 127.912L141.465 116.106L140.412 117.995L161.375 129.767ZM0 86.5356H23.8864V88.5644H0V86.5356ZM11.46 43.2128L10.4064 45.0765L31.3965 56.9129L32.4503 55.0504L11.46 43.2128ZM12.6089 131.593L11.5214 129.775L32.139 117.475L33.2641 119.318L12.6089 131.593ZM56.7904 141.515L54.9242 140.475C52.7145 144.518 50.5314 148.511 48.3553 152.492L48.3309 152.537C46.6879 155.542 45.0489 158.54 43.4053 161.547L45.2704 162.579C47.6614 158.206 50.0336 153.869 52.4103 149.523L56.7904 141.515ZM35.1702 32.8915L36.7278 31.4152L44.7679 39.7903L43.3391 41.3991L35.1702 32.8915ZM90.9306 24.1502L93.0681 24.4002C93.4944 20.4027 93.9156 16.5026 94.3506 12.5314L92.2331 12.2976C91.7956 16.2751 91.3669 20.1751 90.9306 24.1502ZM105.963 27.2177L103.918 26.5927C105.122 22.8014 106.3 19.0927 107.517 15.2564L109.572 15.8814L108.24 20.0652L108.235 20.0807C107.48 22.454 106.728 24.8167 105.963 27.2177ZM110.136 28.7002L112.091 29.5677L116.737 18.7689L114.773 17.8939L110.136 28.7002ZM71.6118 25.8239L70.8776 22.6274L70.8766 22.6228L70.8637 22.5667C70.2326 19.8187 69.6115 17.1138 68.9729 14.3451L71.0405 13.8288C71.4659 15.6628 71.8876 17.4823 72.3114 19.3113L72.3279 19.3827L72.3428 19.4468L72.3621 19.5303L72.3644 19.54C72.8074 21.4517 73.253 23.3748 73.7081 25.3364L71.6118 25.8239ZM31.2603 136.216L32.934 137.591L41.2979 129.652L39.8065 128.091L31.2603 136.216ZM41.0829 27.824L42.7603 26.5277L49.9428 35.8577L48.2303 37.169L41.0829 27.824ZM142.76 59.5079L143.678 61.4229L154.36 56.3904L153.429 54.4566L142.76 59.5079ZM124.751 135.85L131.723 145.275L129.987 146.541L123.028 137.143L124.751 135.85ZM156.986 109.502L157.635 107.467L146.384 103.966L145.749 106.018L156.986 109.502ZM54.3929 19.6489L56.3442 18.7414L61.3942 29.2677L59.4604 30.2089L54.3929 19.6489ZM26.5015 68.9692L27.1352 66.923L15.8926 63.5392L15.3063 65.5942L26.5015 68.9692ZM13.9063 70.9942L25.3928 73.4255L24.9527 75.5205L13.5201 73.0993L13.9063 70.9942ZM147.61 128.357L137.908 121.725L136.721 123.5L146.424 130.131L147.61 128.357ZM76.6694 13.0026L78.7943 12.7526C79.3093 16.6276 79.8169 20.4439 80.3419 24.3777L78.2381 24.7264C77.7194 20.8251 77.2031 16.9738 76.6694 13.0026ZM147.086 71.7105L147.551 73.788L159.046 71.2317L158.519 69.1454L147.086 71.7105ZM132.976 44.9528L131.522 43.3665L140.171 35.4277L141.625 37.0065L132.976 44.9528ZM31.2839 36.8878L29.8964 38.529L38.8227 46.0866L40.184 44.4278L31.2839 36.8878ZM142.943 134.656L141.496 136.242C138.563 133.635 135.702 131.092 132.732 128.453L134.156 126.843C135.591 128.12 137.015 129.385 138.441 130.653L138.522 130.725C139.988 132.028 141.456 133.333 142.943 134.656ZM154.237 116.651L155.032 114.672L144.229 110.177L143.409 112.17L154.237 116.651ZM49.4042 136.835L51.1417 138.071L44.3803 147.607L42.6178 146.37L49.4042 136.835ZM134.571 30.0402L126.865 38.8703L128.5 40.2453L136.182 31.4427L134.571 30.0402ZM135.792 48.2528L145.267 41.2528L146.565 42.9503L137.076 49.9591L135.792 48.2528ZM129.548 131.758L127.957 133.205L135.933 141.805L137.493 140.346L129.548 131.758ZM12.6789 94.1757L24.2127 92.8006L24.4852 94.9257L12.9676 96.3119L12.6789 94.1757ZM36.6778 141.518L38.2827 142.946C39.4321 141.653 40.572 140.371 41.7096 139.092L41.7658 139.029L41.8506 138.933C43.2489 137.361 44.644 135.792 46.049 134.211L44.4366 132.793L36.6778 141.518ZM17.8802 58.2679L18.7301 56.2829L29.5052 60.8017L28.6652 62.7667L17.8802 58.2679ZM128.472 25.3765L121.618 34.9152L123.403 36.0852L130.208 26.6102L128.472 25.3765ZM12.5027 80.8493L12.7001 78.7243L24.3689 79.9193L24.1252 82.0243L12.5027 80.8493ZM63.518 15.9251L61.5179 16.6601L65.5305 27.6752L67.5305 26.9252L63.518 15.9251ZM19.6277 118.695L18.7376 116.766L29.3177 111.838L30.2315 113.766L19.6277 118.695ZM148.765 91.1868L148.569 93.3119L160.195 94.3644L160.445 92.2394L148.765 91.1868ZM99.5006 25.4402L97.4183 24.9627C98.0451 22.1252 98.6656 19.3196 99.2934 16.4811L99.9369 13.5713L102.03 14.0064L99.5006 25.4402ZM160.215 78.9005L159.921 76.7755L148.401 78.143L148.636 80.2531L160.215 78.9005ZM156.414 61.6692L157.086 63.6942L145.912 67.4292L145.206 65.4292L156.414 61.6692ZM26.3315 42.9966L25.1627 44.7778L34.9641 51.2066L36.1241 49.4278L26.3315 42.9966ZM147.898 97.6607L159.34 99.947L158.947 102.047L147.5 99.7682L147.898 97.6607ZM25.7114 101.497L25.2802 99.4132L13.9227 101.964L14.4026 104.038L25.7114 101.497ZM27.6665 131.736L26.3864 130.027L35.7966 122.972L37.0678 124.682L27.6665 131.736ZM16.5626 111.332L27.6165 107.643L26.9464 105.615L15.8738 109.323L16.5626 111.332ZM28.6602 86.9268C28.6602 54.9886 54.5511 29.0977 86.4893 29.0977C118.427 29.0977 144.318 54.9886 144.318 86.9268C144.318 118.865 118.427 144.756 86.4893 144.756C54.5511 144.756 28.6602 118.865 28.6602 86.9268ZM86.4893 28.5977C54.275 28.5977 28.1602 54.7125 28.1602 86.9268C28.1602 119.141 54.275 145.256 86.4893 145.256C118.704 145.256 144.818 119.141 144.818 86.9268C144.818 54.7125 118.704 28.5977 86.4893 28.5977ZM31.4914 86.9281C31.4914 56.5529 56.1154 31.9289 86.4906 31.9289C116.866 31.9289 141.49 56.5529 141.49 86.9281C141.49 117.303 116.866 141.927 86.4906 141.927C56.1154 141.927 31.4914 117.303 31.4914 86.9281ZM86.4906 31.4289C55.8393 31.4289 30.9914 56.2768 30.9914 86.9281C30.9914 117.579 55.8393 142.427 86.4906 142.427C117.142 142.427 141.99 117.579 141.99 86.9281C141.99 56.2768 117.142 31.4289 86.4906 31.4289Z" fill="#868582"/>
</svg>
