<svg width="17" height="41" viewBox="0 0 17 41" fill="none" xmlns="http://www.w3.org/2000/svg">
<path d="M15.705 0.818665L15.705 40.1748H0.500986L0.500986 0.818665L15.705 0.818665Z" fill="#C3C1A7" stroke="black"/>
<path d="M13 26.0996L13 27.7812L4.36328 27.7812L4.36328 25.1562L11.1543 23.5859L4.36328 22.0273L4.36328 19.4316L13 19.4316L13 21.1133L7.1582 21.1133C6.99023 21.1133 6.75586 21.1113 6.45508 21.1074C6.15039 21.1035 5.91602 21.1016 5.75195 21.1016L13 22.7363L13 24.4883L5.75195 26.1113C5.91602 26.1113 6.15039 26.1094 6.45508 26.1055C6.75586 26.1016 6.99023 26.0996 7.1582 26.0996L13 26.0996ZM4.36328 11.4805L5.89258 11.4805L5.89258 14.0645L13 14.0645L13 15.8809L5.89258 15.8809L5.89258 18.4766L4.36328 18.4766L4.36328 11.4805Z" fill="black"/>
</svg>
