<svg width="17" height="41" viewBox="0 0 17 41" fill="none" xmlns="http://www.w3.org/2000/svg">
<path d="M15.704 0.825226L15.704 40.1813H0.50001L0.50001 0.825226L15.704 0.825226Z" fill="#C3C1A7" stroke="black"/>
<path d="M12.3555 23.4941C12.9453 24.1387 13.2402 24.9629 13.2402 25.9668C13.2402 27.209 12.8418 28.1855 12.0449 28.8965C11.2441 29.6074 10.1465 29.9629 8.75195 29.9629C7.24414 29.9629 6.08203 29.5586 5.26562 28.75C4.55469 28.0469 4.19922 27.1523 4.19922 26.0664C4.19922 24.6133 4.67578 23.5508 5.62891 22.8789C6.16406 22.5078 6.70117 22.3086 7.24023 22.2812L7.24023 24.0859C6.82617 24.2031 6.51367 24.3535 6.30273 24.5371C5.92773 24.8652 5.74023 25.3516 5.74023 25.9961C5.74023 26.6523 6.00586 27.1699 6.53711 27.5488C7.06445 27.9277 7.8125 28.1172 8.78125 28.1172C9.75 28.1172 10.4766 27.918 10.9609 27.5195C11.4414 27.1172 11.6816 26.6074 11.6816 25.9902C11.6816 25.3574 11.4746 24.875 11.0605 24.543C10.8379 24.3594 10.5039 24.207 10.0586 24.0859L10.0586 22.2988C11 22.4551 11.7656 22.8535 12.3555 23.4941ZM4.36328 12.5137L4.36328 10.6797L13 13.1113L13 14.834L7.94922 15.877L6.2793 16.1816L7.94922 16.4863L13 17.5293L13 19.2051L4.36328 21.6543L4.36328 19.7383L9.30859 18.5957L10.6855 18.3496L9.33789 18.0977L4.36328 17.125L4.36328 15.2207L9.30859 14.1953L10.6855 13.9316L9.36133 13.668L4.36328 12.5137Z" fill="black"/>
</svg>
