<svg width="17" height="42" viewBox="0 0 17 42" fill="none" xmlns="http://www.w3.org/2000/svg">
<path d="M15.705 1.48126L15.705 40.8374H0.500986L0.500986 1.48126L15.705 1.48126Z" fill="#C3C1A7" stroke="black"/>
<path d="M11.752 25.7891C11.752 25.3633 11.7051 25.0176 11.6113 24.752C11.4316 24.248 11.0977 23.9961 10.6094 23.9961C10.3242 23.9961 10.1035 24.1211 9.94727 24.3711C9.79492 24.6211 9.66016 25.0137 9.54297 25.5488L9.33789 26.4629C9.13477 27.3613 8.91406 27.9824 8.67578 28.3262C8.27734 28.9082 7.6543 29.1992 6.80664 29.1992C6.0332 29.1992 5.39062 28.918 4.87891 28.3555C4.36719 27.793 4.11133 26.9668 4.11133 25.877C4.11133 24.9668 4.35352 24.1914 4.83789 23.5508C5.31836 22.9062 6.01758 22.5684 6.93555 22.5371L6.93555 24.2715C6.41602 24.3027 6.04687 24.5293 5.82812 24.9512C5.68359 25.2324 5.61133 25.582 5.61133 26C5.61133 26.4648 5.70508 26.8359 5.89258 27.1133C6.08008 27.3906 6.3418 27.5293 6.67773 27.5293C6.98633 27.5293 7.2168 27.3926 7.36914 27.1191C7.4707 26.9434 7.58984 26.5684 7.72656 25.9941L8.08398 24.5059C8.24023 23.8535 8.44922 23.3613 8.71094 23.0293C9.11719 22.5137 9.70508 22.2559 10.4746 22.2559C11.2637 22.2559 11.9199 22.5586 12.4434 23.1641C12.9629 23.7656 13.2227 24.6172 13.2227 25.7187C13.2227 26.8437 12.9668 27.7285 12.4551 28.373C11.9395 29.0176 11.2324 29.3398 10.334 29.3398L10.334 27.6172C10.7285 27.5625 11.0234 27.4551 11.2187 27.2949C11.5742 27.002 11.752 26.5 11.752 25.7891ZM13 17.1992L13 20.9199L4.36328 20.9199L4.36328 17.1992C4.37109 16.6641 4.43359 16.2187 4.55078 15.8633C4.75 15.2578 5.11523 14.7676 5.64648 14.3926C6.07617 14.0918 6.54101 13.8867 7.04101 13.7773C7.54101 13.668 8.01758 13.6133 8.4707 13.6133C9.61914 13.6133 10.5918 13.8437 11.3887 14.3047C12.4629 14.9297 13 15.8945 13 17.1992ZM6.56641 15.8574C6.09766 16.1348 5.86328 16.6836 5.86328 17.5039L5.86328 19.168L11.5 19.168L11.5 17.5039C11.5 16.6523 11.0801 16.0586 10.2402 15.7227C9.7793 15.5391 9.23047 15.4473 8.59375 15.4473C7.71484 15.4473 7.03906 15.584 6.56641 15.8574Z" fill="black"/>
</svg>
