<svg xmlns="http://www.w3.org/2000/svg" viewBox="0 0 84.87 19.88"><rect x="27.41" y="8.3" width="12.68" height="2.5" fill="#fff"/><polygon points="4.26 3.03 4.26 19.83 6.9 19.83 6.9 3.03 11.16 3.03 11.16 0.36 0 0.36 0 3.03 4.26 3.03" fill="#fff"/><path d="M64,.26a6.66,6.66,0,0,0-6.83,6.3v6.7a6.79,6.79,0,0,0,13.58,0V6.65A6.59,6.59,0,0,0,64,.26Zm4.34,12.26A4.38,4.38,0,0,1,64,17.12a4.52,4.52,0,0,1-4.32-4.6V7.22A4.31,4.31,0,0,1,64,2.85a4.42,4.42,0,0,1,4.34,4.37Z" fill="#fff"/><path d="M53.23,8a4.78,4.78,0,1,0-7.52,0,6.46,6.46,0,1,0,7.52,0Zm-3.76-5.2A2.23,2.23,0,1,1,47.25,5,2.22,2.22,0,0,1,49.47,2.81Zm0,14.4a3.92,3.92,0,1,1,3.89-3.92A3.9,3.9,0,0,1,49.47,17.21Z" fill="#fff"/><path d="M82.17,8a4.79,4.79,0,1,0-7.51,0,6.46,6.46,0,1,0,7.51,0Zm-3.76-5.2A2.23,2.23,0,1,1,76.2,5,2.22,2.22,0,0,1,78.41,2.81Zm0,14.4a3.92,3.92,0,1,1,3.89-3.92A3.9,3.9,0,0,1,78.41,17.21Z" fill="#fff"/><path d="M21.4,10.41a5.75,5.75,0,0,0,2.33-4.67A5.66,5.66,0,0,0,18.16,0H18a16.63,16.63,0,0,0-2.55.31c-.46.08-1,.16-1.57.24V19.88h2.56v-8.2h.4c4.15,0,7.29,3.87,7.29,8.2h2.6A10.84,10.84,0,0,0,21.4,10.41Zm-5-2V2.81s.25-.25,1.37-.25h.09l.23,0h.12a3.18,3.18,0,0,1,0,6.32h-.11l-.25,0h-.09c-1.12,0-1.37-.25-1.37-.25Z" fill="#fff"/></svg>