<svg xmlns="http://www.w3.org/2000/svg" viewBox="0 0 16.24 40.48"><defs><style>.a{fill:#fdf189;}.b{fill:#1d1d1c;}</style></defs><rect class="a" x="-12.12" y="12.12" width="40.48" height="16.24" transform="translate(28.36 12.12) rotate(90)"/><path class="b" d="M4.44,28.91a3.51,3.51,0,0,1-1.06-2.63A3.53,3.53,0,0,1,4.8,23.16a3.15,3.15,0,0,1,1.59-.59v1.79a2.37,2.37,0,0,0-.93.44,2,2,0,0,0,.23,2.92,3.85,3.85,0,0,0,2.23.55,3.34,3.34,0,0,0,2.15-.58,1.82,1.82,0,0,0,.72-1.48,1.68,1.68,0,0,0-.62-1.4,2.54,2.54,0,0,0-1-.44V22.59a3.87,3.87,0,0,1,2.27,1.17,3.4,3.4,0,0,1,.88,2.42,3.61,3.61,0,0,1-1.18,2.87A4.77,4.77,0,0,1,7.89,30.1,4.71,4.71,0,0,1,4.44,28.91Z"/><path class="b" d="M4.45,14.77a2.21,2.21,0,0,1,1.31-.39A1.94,1.94,0,0,1,7,14.77a2.09,2.09,0,0,1,.48.66,1.88,1.88,0,0,1,.76-1,2.26,2.26,0,0,1,1.25-.33,2.43,2.43,0,0,1,1.36.38,2.32,2.32,0,0,1,.68.6,2.44,2.44,0,0,1,.43,1,6.47,6.47,0,0,1,.11,1.21v3.85H3.54V17A2.64,2.64,0,0,1,4.45,14.77ZM5,19.41H6.91V17.34a1.73,1.73,0,0,0-.21-.91A.81.81,0,0,0,6,16.08a.78.78,0,0,0-.79.46,3.22,3.22,0,0,0-.13,1Zm3.3,0h2.28V17.34a2.06,2.06,0,0,0-.15-.87,1.09,1.09,0,0,0-1.07-.56.92.92,0,0,0-.92.54,2.2,2.2,0,0,0-.14.86Z"/></svg>