<svg xmlns="http://www.w3.org/2000/svg" viewBox="0 0 16.24 40.48"><defs><style>.a{fill:#fdf189;}.b{fill:#1d1d1c;}</style></defs><rect class="a" x="-12.12" y="12.12" width="40.48" height="16.24" transform="translate(28.36 12.12) rotate(90)"/><path class="b" d="M4.67,21.58A2.18,2.18,0,0,1,6,21.19a1.89,1.89,0,0,1,1.25.39,2,2,0,0,1,.49.66,1.88,1.88,0,0,1,.76-1,2.26,2.26,0,0,1,1.25-.33,2.43,2.43,0,0,1,1.36.38,2.28,2.28,0,0,1,.67.6,2.31,2.31,0,0,1,.43,1,5.7,5.7,0,0,1,.12,1.21v3.85H3.76V23.8A2.64,2.64,0,0,1,4.67,21.58Zm.57,4.64H7.13V24.15a1.73,1.73,0,0,0-.21-.91.81.81,0,0,0-.75-.35.78.78,0,0,0-.79.46,3.19,3.19,0,0,0-.14,1Zm3.3,0h2.29V24.15a2,2,0,0,0-.16-.87,1.07,1.07,0,0,0-1.06-.56.92.92,0,0,0-.92.54,2.37,2.37,0,0,0-.15.86Z"/><path class="b" d="M4,14.37A2.76,2.76,0,0,1,5,12.91a3.87,3.87,0,0,1,1.38-.61,6.58,6.58,0,0,1,1.42-.16,5.61,5.61,0,0,1,2.88.69,3.06,3.06,0,0,1,1.6,2.86v3.69H3.76V15.69A4.4,4.4,0,0,1,4,14.37Zm1.29,3.27h5.59V16a1.78,1.78,0,0,0-1.25-1.76A4.45,4.45,0,0,0,8,14a4,4,0,0,0-2,.41A1.73,1.73,0,0,0,5.24,16Z"/></svg>