<svg xmlns="http://www.w3.org/2000/svg" viewBox="0 0 16.24 40.48"><defs><style>.a{fill:#fdf189;}.b{fill:#1d1d1c;}</style></defs><rect class="a" x="-12.12" y="12.12" width="40.48" height="16.24" transform="translate(28.36 12.12) rotate(90)"/><path class="b" d="M4.65,25.73A3.5,3.5,0,0,1,3.6,23.11,3.52,3.52,0,0,1,5,20a3.06,3.06,0,0,1,1.6-.59v1.79a2.52,2.52,0,0,0-.93.43A1.77,1.77,0,0,0,5.12,23a1.71,1.71,0,0,0,.79,1.5,3.79,3.79,0,0,0,2.22.56,3.37,3.37,0,0,0,2.16-.59A1.79,1.79,0,0,0,11,23a1.69,1.69,0,0,0-.61-1.41,2.88,2.88,0,0,0-1-.44V19.42a3.81,3.81,0,0,1,2.27,1.17A3.4,3.4,0,0,1,12.55,23a3.63,3.63,0,0,1-1.19,2.87,4.78,4.78,0,0,1-3.26,1A4.7,4.7,0,0,1,4.65,25.73Z"/><path class="b" d="M3.76,13.1v-2L9.1,13.93h3.21v1.79H9.1l-5.34,3V16.57l3.72-1.78Z"/></svg>