<svg xmlns="http://www.w3.org/2000/svg" viewBox="0 0 16.24 40.48"><defs><style>.a{fill:#fdf189;}.b{fill:#1d1d1c;}</style></defs><rect class="a" x="-12.12" y="12.12" width="40.48" height="16.24" transform="translate(28.36 12.12) rotate(90)"/><path class="b" d="M9.67,26.32a1.75,1.75,0,0,0,.88-.32,1.91,1.91,0,0,0,.52-1.52,3.1,3.1,0,0,0-.14-1.05,1,1,0,0,0-1-.77.72.72,0,0,0-.65.38,3.88,3.88,0,0,0-.4,1.18l-.21.93A5.86,5.86,0,0,1,8,27a2.08,2.08,0,0,1-1.85.87A2.44,2.44,0,0,1,4.27,27a3.57,3.57,0,0,1-.76-2.48,3.78,3.78,0,0,1,.72-2.33,2.52,2.52,0,0,1,2.08-1v1.72a1.22,1.22,0,0,0-1.1.69A2.41,2.41,0,0,0,5,24.68a2.05,2.05,0,0,0,.27,1.13.88.88,0,0,0,.78.43.75.75,0,0,0,.69-.42,5.64,5.64,0,0,0,.35-1.14l.35-1.5a4,4,0,0,1,.62-1.48,2.14,2.14,0,0,1,1.75-.76,2.45,2.45,0,0,1,1.95.91,3.84,3.84,0,0,1,.77,2.56,4.16,4.16,0,0,1-.76,2.65,2.52,2.52,0,0,1-2.1,1Z"/><path class="b" d="M4,14.68A2.76,2.76,0,0,1,5,13.22a3.87,3.87,0,0,1,1.38-.61,6.58,6.58,0,0,1,1.42-.16,5.71,5.71,0,0,1,2.88.68A3.09,3.09,0,0,1,12.31,16v3.69H3.76V16A4.4,4.4,0,0,1,4,14.68ZM5.24,18h5.59V16.3a1.78,1.78,0,0,0-1.25-1.76A4.44,4.44,0,0,0,8,14.26a4.08,4.08,0,0,0-2,.41,1.75,1.75,0,0,0-.7,1.63Z"/></svg>