<?xml version="1.0" encoding="UTF-8"?><svg id="Layer_2" xmlns="http://www.w3.org/2000/svg" viewBox="0 0 200 199.74"><defs><style>.cls-1{fill:#ec8542;}.cls-2{fill:#535a5b;}.cls-3{fill:#2c3333;}</style></defs><g id="Layer_1-2"><g><path class="cls-2" d="M165.01,175.19c41.96-36.22,46.87-99.3,10.97-140.9C140.08-7.31,76.95-11.67,34.99,24.55-6.97,60.77-11.88,123.86,24.02,165.45c35.9,41.6,99.03,45.95,140.99,9.73Z"/><path class="cls-3" d="M99.2,199.69c-27.94,0-55.63-11.6-75.18-34.24C6.65,145.33-1.77,119.58,.31,92.95,2.39,66.35,14.71,42.06,34.99,24.55,76.88-11.61,140.13-7.24,175.98,34.29c35.84,41.53,30.92,104.74-10.97,140.9-19.05,16.44-42.52,24.51-65.81,24.51Zm1.61-184.59c-19.81,0-39.77,6.86-55.98,20.85-17.26,14.9-27.74,35.56-29.51,58.17-1.77,22.58,5.37,44.42,20.1,61.48,30.42,35.25,84.14,38.91,119.74,8.17,35.61-30.73,39.83-84.41,9.41-119.65-16.57-19.2-40.06-29.02-63.77-29.02Z"/><path class="cls-1" d="M99.61,49.73c4.14,0,7.5-3.36,7.5-7.5V.2c-4.99-.31-10-.25-15,.18V42.23c0,4.14,3.36,7.5,7.5,7.5Z"/></g></g></svg>