<svg width="17" height="41" viewBox="0 0 17 41" fill="none" xmlns="http://www.w3.org/2000/svg">
<path d="M16.295 40.611L16.295 0.126038L0.0529823 0.126038L0.0529823 40.611H16.295Z" fill="#535A5B"/>
<path d="M10.2986 23.2781V26.3271L12 26.8999V28.708L3.72314 25.7544V23.8003L12 20.8691V22.7446L10.2986 23.2781ZM8.87231 23.761L5.61548 24.7942L8.87231 25.8611V23.761ZM11.3823 13.9736C11.9476 14.5913 12.2302 15.3812 12.2302 16.3433C12.2302 17.5337 11.8484 18.4696 11.0847 19.1509C10.3173 19.8322 9.26538 20.1729 7.92896 20.1729C6.48397 20.1729 5.37028 19.7854 4.58789 19.0105C3.90658 18.3367 3.56592 17.4794 3.56592 16.4387C3.56592 15.0461 4.02262 14.0279 4.93604 13.384C5.44889 13.0284 5.96362 12.8375 6.48022 12.8113V14.5408C6.08341 14.6531 5.78394 14.7972 5.58179 14.9731C5.22241 15.2876 5.04272 15.7537 5.04272 16.3713C5.04272 17.0002 5.29728 17.4963 5.8064 17.8594C6.31177 18.2225 7.02865 18.4041 7.95703 18.4041C8.88542 18.4041 9.58171 18.2131 10.0459 17.8313C10.5063 17.4457 10.7366 16.9572 10.7366 16.3657C10.7366 15.7593 10.5382 15.297 10.1414 14.9788C9.92798 14.8028 9.60791 14.6568 9.18115 14.5408V12.8281C10.0833 12.9779 10.8171 13.3597 11.3823 13.9736Z" fill="#EC8542"/>
</svg>
