<svg width="17" height="41" viewBox="0 0 17 41" fill="none" xmlns="http://www.w3.org/2000/svg">
<path d="M16.295 40.546L16.295 0.0609741L0.0529823 0.0609741L0.0529823 40.546H16.295Z" fill="#535A5B"/>
<path d="M10.352 26.279C10.5445 26.1814 10.711 26.0395 10.838 25.865C10.9672 25.682 11.0612 25.4765 11.115 25.259C11.175 25.0237 11.2052 24.7818 11.205 24.539C11.204 24.3582 11.19 24.1778 11.163 23.999C11.1356 23.812 11.0807 23.63 11 23.459C10.9233 23.2957 10.8105 23.1521 10.67 23.039C10.517 22.9226 10.3281 22.8631 10.136 22.871C10.0319 22.867 9.92811 22.8848 9.8312 22.923C9.73429 22.9612 9.64637 23.0191 9.57298 23.093C9.41541 23.2613 9.29272 23.4591 9.21198 23.675C9.10898 23.9408 9.02477 24.2135 8.95998 24.491C8.88798 24.795 8.80799 25.103 8.71999 25.415C8.64089 25.7326 8.54271 26.0452 8.42599 26.351C8.3168 26.6436 8.16518 26.9185 7.97598 27.167C7.79058 27.408 7.55564 27.6065 7.28699 27.749C6.97724 27.9049 6.63358 27.9812 6.28699 27.971C5.88634 27.9811 5.49029 27.8837 5.13998 27.689C4.8199 27.5047 4.54384 27.2529 4.33099 26.951C4.11099 26.6381 3.94814 26.2887 3.84998 25.919C3.74764 25.5435 3.69519 25.1562 3.69399 24.767C3.69295 24.3326 3.7433 23.8996 3.84399 23.477C3.93573 23.083 4.10095 22.7098 4.33099 22.377C4.55223 22.0587 4.84597 21.7975 5.18799 21.615C5.58021 21.4169 6.01575 21.3199 6.45499 21.333V23.157C6.23338 23.1639 6.01596 23.2192 5.81799 23.319C5.65518 23.4042 5.51733 23.5304 5.41798 23.685C5.32059 23.8456 5.25285 24.0224 5.21799 24.207C5.17687 24.4185 5.1571 24.6336 5.15898 24.849C5.15861 25.0023 5.17471 25.1552 5.20699 25.305C5.23667 25.4521 5.29329 25.5925 5.37399 25.719C5.45224 25.8405 5.5543 25.945 5.67399 26.026C5.81079 26.1101 5.96953 26.1516 6.12998 26.145C6.27292 26.15 6.41446 26.1153 6.53899 26.045C6.66866 25.9486 6.76849 25.8176 6.82699 25.667C6.9368 25.415 7.02478 25.1541 7.08998 24.887C7.17798 24.5537 7.28999 24.1203 7.42599 23.587C7.45799 23.427 7.51598 23.205 7.59998 22.921C7.69165 22.6212 7.82639 22.3362 7.99999 22.075C8.19398 21.785 8.44552 21.5378 8.73898 21.349C9.09369 21.1324 9.50471 21.0259 9.91998 21.043C10.2961 21.0397 10.6686 21.1174 11.012 21.271C11.351 21.4259 11.649 21.6581 11.882 21.949C12.1429 22.2808 12.3368 22.6602 12.453 23.066C12.5951 23.5674 12.6625 24.0869 12.653 24.608C12.6536 25.0716 12.5948 25.5334 12.478 25.982C12.372 26.4047 12.1867 26.8034 11.932 27.157C11.6842 27.4976 11.3598 27.775 10.985 27.967C10.5602 28.1757 10.0899 28.2748 9.61698 28.255V26.431C9.87069 26.4408 10.123 26.3886 10.352 26.279Z" fill="#EC8542"/>
<path d="M3.89998 16.235C3.89575 15.7093 3.98549 15.1871 4.16498 14.693C4.33351 14.2271 4.60412 13.8048 4.95698 13.457C5.33315 13.0937 5.78296 12.8154 6.27598 12.641C6.87379 12.4341 7.5035 12.3345 8.13598 12.347C8.72098 12.3415 9.30359 12.4224 9.86498 12.587C10.3656 12.7328 10.8308 12.9799 11.232 13.313C11.6214 13.6436 11.9311 14.0579 12.138 14.525C12.3692 15.0648 12.4817 15.6479 12.468 16.235V19.935H3.89998V16.235ZM10.884 16.367C10.8844 16.0975 10.8398 15.8298 10.752 15.575C10.662 15.3156 10.5119 15.0812 10.314 14.891C10.0847 14.6756 9.8119 14.512 9.51398 14.411C9.12748 14.2817 8.72141 14.2208 8.31399 14.231C7.92039 14.2268 7.52766 14.2691 7.14398 14.357C6.81999 14.43 6.51524 14.5711 6.24998 14.771C5.99632 14.9705 5.79971 15.2333 5.67998 15.533C5.53714 15.9061 5.46918 16.3037 5.47999 16.703V18.047H10.88L10.884 16.367Z" fill="#EC8542"/>
</svg>
