<svg width="17" height="42" viewBox="0 0 17 42" fill="none" xmlns="http://www.w3.org/2000/svg">
<path d="M16.295 41.163L16.295 0.67804L0.0529823 0.67804L0.0529823 41.163H16.295Z" fill="#535A5B"/>
<path d="M3.90001 24.436C3.89485 24.0813 3.95799 23.7288 4.08601 23.398C4.20226 23.103 4.37557 22.8339 4.59601 22.606C4.8096 22.3903 5.06475 22.2202 5.34601 22.106C5.63789 21.9893 5.94969 21.9306 6.26401 21.933C6.7205 21.921 7.17195 22.0308 7.57201 22.251C7.96303 22.4904 8.25994 22.8568 8.41301 23.289H8.43601C8.48969 23.0774 8.59016 22.8806 8.73001 22.713C8.8619 22.5609 9.02094 22.4348 9.19901 22.341C9.38544 22.2426 9.5852 22.1718 9.79201 22.131C10.0059 22.0873 10.2223 22.0572 10.44 22.041C10.577 22.033 10.74 22.024 10.92 22.017C11.1 22.01 11.292 21.995 11.484 21.975C11.6682 21.9551 11.8507 21.9217 12.03 21.875C12.1876 21.8373 12.3363 21.7693 12.468 21.675V23.558C12.1559 23.6707 11.8285 23.7357 11.497 23.751C11.121 23.774 10.76 23.81 10.417 23.858C10.0536 23.8855 9.70844 24.0284 9.43201 24.266C9.19759 24.5519 9.08579 24.9189 9.12101 25.287V27.171H12.468V29.055H3.90001V24.436ZM7.77601 25.108C7.80244 24.7599 7.69993 24.4143 7.48801 24.137C7.36413 24.0193 7.21654 23.9294 7.05512 23.8734C6.8937 23.8173 6.72217 23.7964 6.55201 23.812C6.38644 23.7969 6.21959 23.8182 6.0631 23.8744C5.90661 23.9305 5.76427 24.0201 5.64601 24.137C5.43875 24.4164 5.33899 24.7611 5.36501 25.108V27.173H7.77601V25.108Z" fill="#EC8542"/>
<path d="M6.18201 14.9C6.00178 15.0127 5.84159 15.1547 5.70801 15.32C5.42723 15.6711 5.27481 16.1075 5.27601 16.557C5.26513 16.932 5.34979 17.3037 5.52201 17.637C5.6805 17.9266 5.907 18.1734 6.18201 18.356C6.46953 18.5447 6.7886 18.6801 7.12401 18.756C7.48181 18.8407 7.84833 18.883 8.21601 18.882C8.56983 18.8828 8.92243 18.8405 9.26601 18.756C9.59356 18.6789 9.90453 18.5434 10.184 18.356C10.4565 18.1723 10.6809 17.9257 10.838 17.637C11.0108 17.3039 11.0955 16.9321 11.084 16.557C11.0984 16.3072 11.0587 16.0573 10.9676 15.8243C10.8764 15.5913 10.7361 15.3807 10.556 15.207C10.1674 14.8645 9.67989 14.6543 9.16401 14.607V12.784C9.66605 12.8233 10.1576 12.9488 10.617 13.155C11.0318 13.3448 11.4055 13.6138 11.717 13.947C12.026 14.28 12.2641 14.6722 12.417 15.1C12.5823 15.566 12.6639 16.0576 12.658 16.552C12.6674 17.1591 12.5506 17.7614 12.315 18.321C12.1015 18.8264 11.7799 19.279 11.373 19.647C10.9628 20.0141 10.4834 20.2956 9.96301 20.475C9.40204 20.6714 8.81133 20.7691 8.21701 20.764C7.6109 20.7697 7.00826 20.6719 6.43501 20.475C5.90714 20.2959 5.41959 20.015 5.00001 19.648C4.58699 19.2814 4.25931 18.8288 4.04001 18.322C3.63196 17.3346 3.58104 16.2359 3.89601 15.215C4.02652 14.807 4.22793 14.4251 4.49101 14.087C4.75449 13.7512 5.08263 13.4717 5.45601 13.265C5.86421 13.0417 6.31308 12.9026 6.77601 12.856V14.681C6.56512 14.7126 6.36295 14.7871 6.18201 14.9Z" fill="#EC8542"/>
</svg>
