<?xml version="1.0" encoding="UTF-8"?><svg id="Layer_2" xmlns="http://www.w3.org/2000/svg" viewBox="0 0 199.99 199.74"><defs><style>.cls-1{fill:#ec8542;}.cls-2{fill:#535a5b;}.cls-3{fill:#2c3333;}</style></defs><g id="Layer_1-2"><g><path class="cls-2" d="M165.01,175.19c41.96-36.22,46.87-99.3,10.97-140.9C140.07-7.31,76.95-11.67,34.99,24.55-6.98,60.77-11.89,123.86,24.02,165.45c35.9,41.6,99.03,45.95,140.99,9.73Z"/><path class="cls-3" d="M100.82,25c21.68,0,42.17,9.34,56.23,25.62,26.84,31.09,23.08,78.48-8.38,105.64-13.8,11.92-31.38,18.48-49.5,18.48-21.68,0-42.17-9.34-56.23-25.62-26.84-31.09-23.08-78.48,8.38-105.64,13.8-11.92,31.38-18.48,49.5-18.48m0-25c-23.29,0-46.75,8.08-65.83,24.55C-6.98,60.77-11.89,123.86,24.02,165.45c19.57,22.68,47.24,34.29,75.16,34.29,23.29,0,46.75-8.08,65.83-24.55,41.96-36.22,46.87-99.3,10.97-140.9C156.4,11.61,128.73,0,100.82,0h0Z"/><path class="cls-1" d="M100,49.73c4.14,0,7.5-3.36,7.5-7.5V.2c-4.99-.31-10-.25-15,.18V42.23c0,4.14,3.36,7.5,7.5,7.5Z"/></g></g></svg>