<svg xmlns="http://www.w3.org/2000/svg" viewBox="0 0 48.37 48.07"><path d="M20.41,39.64q0,4.09,0,8.19c0,.21-.06.27-.27.23A24,24,0,0,1,3.64,36.94,23.08,23.08,0,0,1,.17,27,23.31,23.31,0,0,1,2.76,13,23.58,23.58,0,0,1,20.05.38,24.07,24.07,0,0,1,45.17,12.14a23.06,23.06,0,0,1,3,9.18,23.72,23.72,0,0,1-6.57,19.62,23.51,23.51,0,0,1-12.84,7l-.6.11c-.15,0-.24,0-.21-.17a.48.48,0,0,0,0-.12q0-8.15,0-16.3c0-.24.07-.29.3-.29h5.08c.19,0,.27,0,.3-.24q.49-3.28,1-6.56c0-.21-.06-.2-.2-.2H28.27c-.22,0-.3,0-.3-.28,0-1.44,0-2.88,0-4.32a4,4,0,0,1,.51-2.07,3.25,3.25,0,0,1,2.63-1.59,32,32,0,0,1,3.39,0c.46,0,.46,0,.46-.47,0-1.75,0-3.51,0-5.26,0-.18,0-.24-.23-.27A39.56,39.56,0,0,0,30,9.46a11.22,11.22,0,0,0-4.33.66,7.79,7.79,0,0,0-4.89,5.64,12,12,0,0,0-.37,3c0,1.73,0,3.46,0,5.19,0,.21-.05.27-.27.27H14.53c-.2,0-.27,0-.26.25v6.5c0,.21.06.25.25.25h5.62c.22,0,.28.06.28.28Q20.41,35.54,20.41,39.64Z"/></svg>