<svg xmlns="http://www.w3.org/2000/svg" viewBox="0 0 155.21 85.27"><path d="M50.38,54.22c0,2.58,0,4.74,0,6.89,0,1.16.45,1.66,1.6,1.58.6,0,1.2,0,1.8,0h98.66v6c-.8.06-1.58.17-2.37.17q-51.75,0-103.52,0c-1.92,0-2.62-.45-2.57-2.48.13-5.31.15-10.63,0-15.94-.06-2.16.73-2.61,2.71-2.6,26.5.05,53,0,79.5.05,6.41,0,12.07-1.69,16.68-6.37,9.81-10,6.75-27.31-6.08-33a25.48,25.48,0,0,0-9.94-2.19c-39.45-.15-78.9-.08-118.34-.15-2.16,0-2.59.72-2.58,2.7q.07,36.38,0,72.74c0,4.06.43,3.55-3.6,3.58-.73,0-1.46-.06-2.33-.11V.13C.83.08,1.56,0,2.29,0Q64.6,0,126.91,0c14,0,24.79,8.54,27.68,21.66a26.75,26.75,0,0,1-23.12,32.2c-2,.21-4,.32-6,.33q-36,0-72.09,0Z"/><path d="M152.46,79.07v6.2h-101C36.81,85.26,27.25,78,23.35,64a5,5,0,0,0-.47-.78V85.25c-2.08,0-3.92.06-5.75,0-.41,0-.89-.6-1.11-1A3,3,0,0,1,16,82.85c0-21.25,0-42.5,0-63.75,0-2.1.63-2.63,2.66-2.63q56.36.09,112.71,0c2.24,0,2.76.73,2.71,2.82-.14,5.16-.15,10.33,0,15.48.07,2.18-.61,2.75-2.76,2.75-26.79-.07-53.58,0-80.38-.05-6.12,0-11.5,1.85-15.74,6.38-5.66,6-7.31,13.23-4.57,21,3,8.43,9.25,13.16,18.2,14.18a34.56,34.56,0,0,0,3.81.06h99.91ZM22.9,53c3.88-15.11,15.9-22,29.31-21.82,23.11.36,46.24.1,69.36.1,6,0,5.9,0,6-6,0-2-.61-2.5-2.55-2.49q-49.84.07-99.67,0c-.79,0-1.58.08-2.43.13Z"/></svg>