<svg xmlns="http://www.w3.org/2000/svg" viewBox="0 0 118.84 123.17"><path d="M88.72,31.66V12.88a8.55,8.55,0,0,0-8.54-8.54H38.67a8.55,8.55,0,0,0-8.54,8.54v7.3h-.75v4.7h.75v3.79h-.75v8.59h.75v2.13h-.75V48h.75v66.65a8.55,8.55,0,0,0,8.54,8.54H80.18a8.55,8.55,0,0,0,8.54-8.54V45.27h.64V31.66Zm-2.56,0v83a6,6,0,0,1-6,6H38.67a6,6,0,0,1-6-6V12.88a6,6,0,0,1,6-6H44.8V8.58A3.53,3.53,0,0,0,48.43,12H70.31a3.14,3.14,0,0,0,3.17-3.39V6.9h6.7a6,6,0,0,1,6,6Z"/><path d="M18,2.16,13.52.07a.73.73,0,1,0-.61,1.32h0l3,1.4a18.88,18.88,0,0,0-9,4.76,13.76,13.76,0,0,0-3.75,6.84,12.22,12.22,0,0,0-.29,3.43.73.73,0,0,0,1.24.45.71.71,0,0,0,.21-.59h0a11.16,11.16,0,0,1,.3-3.14A12.31,12.31,0,0,1,8,8.58a17.53,17.53,0,0,1,8.35-4.39L15,7.17a.72.72,0,0,0,.36,1A.73.73,0,0,0,16.15,8a.8.8,0,0,0,.15-.21l2.1-4.65a.71.71,0,0,0-.36-1Z"/><path d="M27.32,34.43H8.54A8.55,8.55,0,0,0,0,43V84.48A8.55,8.55,0,0,0,8.54,93h7.31v.75h4.69V93h3.79v.75h8.59V93h2.14v.75h8.59V93H110.3a8.55,8.55,0,0,0,8.54-8.54V43a8.55,8.55,0,0,0-8.54-8.54H40.93v-.64H27.32Zm0,2.56h83a6,6,0,0,1,6,6V84.48a6,6,0,0,1-6,6H8.54a6,6,0,0,1-6-6V78.35H4.24a3.52,3.52,0,0,0,3.39-3.63V52.84a3.14,3.14,0,0,0-3.39-3.17H2.56V43a6,6,0,0,1,6-6Z" opacity="0.24"/></svg>