<svg xmlns="http://www.w3.org/2000/svg" viewBox="0 0 48.38 48.38"><path d="M24.19,0A24.19,24.19,0,1,0,48.38,24.19,24.19,24.19,0,0,0,24.19,0Zm14,15.18-.12.17a11.65,11.65,0,0,1-2.56,2.59.19.19,0,0,0-.09.2,15.78,15.78,0,0,1-.1,2.48,16.84,16.84,0,0,1-.85,3.65,17.28,17.28,0,0,1-2.81,5.05A15.82,15.82,0,0,1,22.12,35a16.41,16.41,0,0,1-2.21.24,13.94,13.94,0,0,1-1.71,0,16.24,16.24,0,0,1-6.34-1.58,17,17,0,0,1-1.68-.92l-.13-.09a11.65,11.65,0,0,0,8.53-2.39,5.82,5.82,0,0,1-4.16-1.94,5.48,5.48,0,0,1-1.21-2.11,6.23,6.23,0,0,0,1.29.09,5.45,5.45,0,0,0,1.3-.19,5.82,5.82,0,0,1-4.63-5.77,5.82,5.82,0,0,0,2.62.73,9.31,9.31,0,0,1-.73-.58,5.82,5.82,0,0,1-1.12-7.06c0-.08.07-.12.15,0a16.76,16.76,0,0,0,3.37,3.09,16,16,0,0,0,4.44,2.16,15.72,15.72,0,0,0,2.88.62c.35,0,.71.08,1.07.1.09,0,.11,0,.1-.11a5.68,5.68,0,0,1,1.2-4.9,5.57,5.57,0,0,1,3.64-2.05,5.75,5.75,0,0,1,4.51,1.24,3.71,3.71,0,0,1,.5.47.16.16,0,0,0,.16,0A12,12,0,0,0,37.08,13l.23-.12.24-.13a5.43,5.43,0,0,1-1,1.81,6.17,6.17,0,0,1-1.51,1.37A11.39,11.39,0,0,0,38.33,15C38.28,15.07,38.25,15.13,38.21,15.18Z"/></svg>