<svg xmlns="http://www.w3.org/2000/svg" viewBox="0 0 69.01 13.11"><defs><style>.a{fill:#1d1d1c;}</style></defs><polygon points="27.81 11.26 33.44 0 39.07 11.26 27.81 11.26"/><polygon class="a" points="12.26 13.11 1 3.35 1 12.01 0 12.01 0 1.16 11.26 10.92 11.26 1.16 23.35 11.63 22.7 12.39 12.26 3.35 12.26 13.11"/><polygon class="a" points="69.01 11.76 64.38 11.76 64.38 2.75 58.81 2.75 58.81 11.76 49.93 11.76 49.93 2.75 44.36 2.75 44.36 11.26 43.36 11.26 43.36 1.75 50.93 1.75 50.93 10.76 57.81 10.76 57.81 1.75 65.38 1.75 65.38 10.76 69.01 10.76 69.01 11.76"/></svg>