<svg xmlns="http://www.w3.org/2000/svg" viewBox="0 0 56 55.74"><defs><style>.a{fill:#1d1d1c;}</style></defs><rect class="a" x="26.25" width="3.5" height="4.84"/><rect class="a" x="27.51" width="0.99" height="4.84"/><rect class="a" x="14.72" y="3.43" width="0.99" height="4.84" transform="translate(-0.89 8.39) rotate(-30)"/><rect class="a" x="5.35" y="12.79" width="0.99" height="4.84" transform="translate(-10.25 12.67) rotate(-60)"/><rect class="a" y="27.51" width="4.84" height="0.99"/><rect class="a" x="3.43" y="40.29" width="4.84" height="0.99" transform="translate(-19.61 8.39) rotate(-29.99)"/><rect class="a" x="9.98" y="51.28" width="8.59" height="0.99" transform="translate(-37.7 38.25) rotate(-60.01)"/><rect class="a" x="41.23" y="47.48" width="0.99" height="8.59" transform="translate(-20.3 27.8) rotate(-30)"/><rect class="a" x="49.66" y="38.37" width="0.99" height="4.84" transform="translate(-10.25 63.83) rotate(-60)"/><rect class="a" x="51.16" y="27.51" width="4.84" height="0.99"/><rect class="a" x="47.73" y="14.72" width="4.84" height="0.99" transform="translate(-0.89 27.11) rotate(-29.99)"/><rect class="a" x="38.37" y="5.35" width="4.84" height="0.99" transform="translate(15.33 38.25) rotate(-60.01)"/></svg>