<svg xmlns="http://www.w3.org/2000/svg" viewBox="0 0 16.24 40.49"><defs><style>.a{fill:#fff;}.b{fill:#1d1d1c;}</style></defs><rect class="a" x="-12.12" y="12.12" width="40.49" height="16.24" transform="translate(28.36 12.12) rotate(90)"/><path class="b" d="M4.57,22.81a3.53,3.53,0,0,1-1.05-2.63,3.55,3.55,0,0,1,1.41-3.12,3,3,0,0,1,1.6-.58v1.78a2.52,2.52,0,0,0-.93.44A1.77,1.77,0,0,0,5,20.12a1.73,1.73,0,0,0,.79,1.5,3.79,3.79,0,0,0,2.22.55,3.37,3.37,0,0,0,2.16-.58,1.84,1.84,0,0,0,.71-1.48,1.67,1.67,0,0,0-.61-1.4,2.7,2.7,0,0,0-1-.44V16.49a3.88,3.88,0,0,1,2.27,1.18,3.43,3.43,0,0,1,.88,2.42A3.65,3.65,0,0,1,11.28,23,4.8,4.8,0,0,1,8,24,4.74,4.74,0,0,1,4.57,22.81Z"/></svg>