<svg xmlns="http://www.w3.org/2000/svg" viewBox="0 0 16.24 40.48"><defs><style>.a{fill:#fff;}</style></defs><rect class="a" x="-12.12" y="12.12" width="40.48" height="16.24" transform="translate(28.36 12.12) rotate(90)"/><path d="M6.35,18.15a1.68,1.68,0,0,0-1.23,1,2.55,2.55,0,0,0-.19,1,2.12,2.12,0,0,0,.78,1.69,3.49,3.49,0,0,0,2.34.67,2.91,2.91,0,0,0,2.23-.72,2.36,2.36,0,0,0,.65-1.64,2.12,2.12,0,0,0-.51-1.47A2.28,2.28,0,0,0,9.07,18v2H7.64V16.37h4.59v1.18l-1.07.18a4,4,0,0,1,.85.93,3.26,3.26,0,0,1,.44,1.74,3.59,3.59,0,0,1-1.18,2.78A4.45,4.45,0,0,1,8,24.31a4.76,4.76,0,0,1-3.33-1.14,3.91,3.91,0,0,1-1.25-3,4,4,0,0,1,.82-2.62A3.06,3.06,0,0,1,6.35,16.4Z"/></svg>