<svg xmlns="http://www.w3.org/2000/svg" viewBox="0 0 16.24 40.48"><defs><style>.a{fill:#fff;}</style></defs><rect x="-12.12" y="12.12" width="40.48" height="16.24" transform="translate(28.36 12.12) rotate(90)"/><path class="a" d="M3.69,26.23V20.14h1.5v4.32h2V20.67H8.64v3.79h3.59v1.77Z"/><path class="a" d="M8.94,19.62V18.45L7.24,18v1.18l-1-.26V17.73l-2.34-.64V15.94l2.34.63v-.94L3.93,15V13.84l2.34.63V13.29l1,.26v1.18l1.7.46V14l1,.26v1.18l2.32.62v1.15L9.91,16.6v1l2.32.62v1.16l-2.32-.63v1.17Zm0-3.28-1.7-.45v.95l1.7.46Z"/></svg>