<svg xmlns="http://www.w3.org/2000/svg" viewBox="0 0 16.24 40.48"><defs><style>.a{fill:#fff;}</style></defs><rect x="-12.12" y="12.12" width="40.48" height="16.24" transform="translate(28.36 12.12) rotate(90)"/><path class="a" d="M3.68,24.48v-2l8.55-3v1.93l-1.76.57v3.15l1.76.58v1.87ZM9,24.6V22.41L5.63,23.49Z"/><path class="a" d="M8.94,19V17.82l-1.7-.46v1.18l-1-.26V17.1l-2.34-.63V15.31L6.27,16V15l-2.34-.63V13.22l2.34.63V12.67l1,.26V14.1l1.7.46V13.38l1,.26v1.18l2.32.62V16.6L9.91,16v1l2.32.63v1.15l-2.32-.63v1.18Zm0-3.29-1.7-.45v1l1.7.46Z"/></svg>