<svg width="472" height="234" viewBox="0 0 472 234" fill="none" xmlns="http://www.w3.org/2000/svg">
<path d="M25.948 30.292L25.9492 30.2899C26.5843 29.1824 27.4924 28.2565 28.5873 27.6006C29.6818 26.945 30.9269 26.5808 32.2025 26.5432C32.2029 26.5432 32.2034 26.5432 32.2038 26.5432L192 22.0569V211.943L32.2041 207.456C30.9282 207.418 29.6836 207.054 28.5885 206.398C27.4931 205.742 26.584 204.816 25.949 203.709L25.948 203.707C10.6734 177.144 2 150.173 2 117.001C2 83.8288 10.6734 56.8547 25.948 30.292Z" fill="#252626" stroke="black" stroke-width="4" stroke-miterlimit="10"/>
<path d="M446.05 203.709L446.049 203.711C445.414 204.819 444.505 205.745 443.411 206.401C442.316 207.056 441.071 207.42 439.796 207.458C439.795 207.458 439.795 207.458 439.794 207.458L280 211.943V22.057L439.795 26.5457C439.796 26.5457 439.796 26.5457 439.797 26.5458C441.072 26.5833 442.316 26.9473 443.41 27.6031C444.505 28.2591 445.414 29.1851 446.049 30.2921L446.05 30.2945C461.324 56.8561 470 83.8289 470 117.001C470 150.171 461.323 177.145 446.05 203.709Z" fill="#252626" stroke="black" stroke-width="4" stroke-miterlimit="10"/>
<rect x="122" y="2" width="230" height="230" rx="115" fill="#1B1C1C"/>
<rect x="135" y="15" width="204" height="204" rx="102" fill="#252626"/>
<mask id="mask0_67_1003" style="mask-type:alpha" maskUnits="userSpaceOnUse" x="135" y="15" width="204" height="204">
<circle cx="237" cy="117" r="102" fill="#333333"/>
</mask>
<g mask="url(#mask0_67_1003)">
<rect x="135" y="64" width="204" height="107" fill="#333333"/>
</g>
<mask id="mask1_67_1003" style="mask-type:alpha" maskUnits="userSpaceOnUse" x="135" y="15" width="204" height="204">
<ellipse cx="237" cy="117" rx="102" ry="102" fill="#333333"/>
</mask>
<g mask="url(#mask1_67_1003)">
<rect x="135" y="64" width="204" height="14" fill="#E1ECF3"/>
</g>
<rect x="122" y="2" width="230" height="230" rx="115" stroke="#161616" stroke-width="4"/>
</svg>
