<svg width="17" height="41" viewBox="0 0 17 41" fill="none" xmlns="http://www.w3.org/2000/svg">
<path d="M1.6543 37.6832L1.6543 3.65634C1.6543 2.48461 2.60389 1.53513 3.77478 1.53513H13.6861C14.857 1.53513 15.8066 2.48461 15.8066 3.65634L15.8066 37.6832C15.8066 38.855 14.857 39.8044 13.6861 39.8044H3.77478C2.60389 39.8044 1.6543 38.855 1.6543 37.6832Z" fill="#F79E3A" stroke="black" stroke-width="2" stroke-miterlimit="10"/>
<path d="M11.6178 16.0554C12.8679 16.0554 13.4928 16.7351 13.4928 18.0946V23.244C13.4928 24.6048 12.8679 25.2846 11.6178 25.2832H10.0211C9.77367 25.3008 9.52618 25.2522 9.3038 25.1424C9.08142 25.0325 8.89211 24.8655 8.75563 24.6584C8.48765 24.1684 8.34472 23.6199 8.3395 23.0614H8.30929C8.20019 24.5406 7.64476 25.2799 6.64285 25.2792H5.66101C4.53004 25.2792 3.96436 24.6491 3.96436 23.3887V17.9419C3.96436 16.6809 4.53004 16.0507 5.66101 16.0514H6.64285C7.64542 16.0514 8.20085 16.7907 8.30929 18.2692H8.3395C8.34472 17.7108 8.48765 17.1622 8.75563 16.6722C8.89211 16.4651 9.08142 16.2981 9.3038 16.1883C9.52618 16.0785 9.77367 16.0298 10.0211 16.0474L11.6178 16.0554ZM7.34743 18.7643H5.60595C5.32853 18.7643 5.18983 18.9181 5.18983 19.2255V22.1131C5.18983 22.4206 5.32853 22.5743 5.60595 22.5743H7.34743C7.63483 22.5743 7.77866 22.4206 7.77866 22.1131V19.2255C7.77866 18.9181 7.63483 18.7643 7.34743 18.7643ZM11.8381 18.7643H9.42708C9.36852 18.756 9.30874 18.7614 9.25264 18.7801C9.19653 18.7989 9.14584 18.8304 9.10402 18.8722C9.0622 18.9141 9.03065 18.965 9.01193 19.0211C8.99321 19.0773 8.98752 19.137 8.99585 19.1955V22.1431C8.98752 22.2016 8.99321 22.2613 9.01193 22.3175C9.03065 22.3736 9.0622 22.4246 9.10402 22.4664C9.14584 22.5082 9.19653 22.5397 9.25264 22.5585C9.30874 22.5772 9.36852 22.5826 9.42708 22.5743H11.8381C11.8967 22.5828 11.9568 22.5775 12.013 22.5589C12.0692 22.5402 12.1202 22.5087 12.1621 22.4668C12.204 22.425 12.2354 22.3739 12.2542 22.3177C12.273 22.2615 12.2786 22.2017 12.2703 22.1431V19.1955C12.2785 19.1372 12.2733 19.0777 12.2547 19.0217C12.2361 18.9658 12.2047 18.9149 12.1631 18.8731C12.1215 18.8314 12.0708 18.7998 12.0149 18.7809C11.9591 18.762 11.8994 18.7563 11.841 18.7643H11.8381Z" fill="#1B1C1C"/>
</svg>
