<svg width="17" height="41" viewBox="0 0 17 41" fill="none" xmlns="http://www.w3.org/2000/svg">
<path d="M1.6543 37.3657L1.6543 3.33895C1.6543 2.16722 2.60389 1.21774 3.77478 1.21774H13.6861C14.857 1.21774 15.8066 2.16722 15.8066 3.33895L15.8066 37.3657C15.8066 38.5375 14.857 39.4869 13.6861 39.4869H3.77478C2.60389 39.4869 1.6543 38.5375 1.6543 37.3657Z" fill="#1B1C1C" stroke="black" stroke-width="2" stroke-miterlimit="10"/>
<path d="M11.6607 15.693C12.8808 15.693 13.4909 16.3628 13.4909 17.7023V25.0108H12.2713V18.9081C12.2792 18.8514 12.2738 18.7937 12.2557 18.7394C12.2375 18.6852 12.2069 18.6359 12.1665 18.5954C12.126 18.5549 12.077 18.5245 12.0227 18.5063C11.9685 18.4882 11.9108 18.4829 11.8542 18.4908H9.30966C9.24696 18.482 9.18259 18.4879 9.12255 18.508C9.06251 18.5281 9.00842 18.5619 8.9637 18.6067C8.91898 18.6516 8.88525 18.7062 8.86527 18.7663C8.84529 18.8264 8.83924 18.8903 8.84822 18.953V25.0108H3.96777V15.693H5.18788V22.2109H7.62811V17.6424C7.6012 17.1301 7.75932 16.6252 8.07395 16.2201C8.22637 16.0441 8.41686 15.9052 8.6309 15.8137C8.84493 15.7222 9.07718 15.6806 9.30966 15.692L11.6607 15.693Z" fill="#F79E3A"/>
</svg>
