<?xml version="1.0" encoding="UTF-8"?><svg xmlns="http://www.w3.org/2000/svg" viewBox="0 0 196.62 14"><g id="a"/><g id="b"><g id="c"><g><path d="M0,10.55H8.61v1.25c0,.7,.79,1.05,1.51,1.05h10.4c.91,0,1.54-.52,1.54-1.05l-.03-3.67c0-.5-.73-1.05-1.51-1.05H3.72C1.45,7.08,.19,5.92,.19,4.63V2.47C.19,1.01,1.8,.02,3.75,.02H26.73c2.3,0,3.53,1.16,3.53,2.45v1.09h-8.42v-1.31c0-.48-.76-1.07-1.51-1.07H10.15c-.73,0-1.54,.48-1.54,1.07v2.62c0,.55,.76,1.05,1.51,1.05H27.01c2.58,0,3.53,1.16,3.53,2.45l.03,3.19c0,1.68-1.7,2.45-3.56,2.45H3.53c-2.52,0-3.53-1.16-3.53-2.45v-1.01H0Z" fill="#fff"/><path d="M66.69,2.51v2.73c0,1.33-1.2,2.38-3.97,2.38h-17.87v6.38h-8.61V.04h26.86c1.86,0,3.59,.83,3.59,2.47h0Zm-21.85,3.91h11.92c1.26,0,1.51-.65,1.51-1.14V2.4c0-.76-.47-1.2-1.73-1.2h-11.69V6.42h0Z" fill="#fff"/><path d="M85.76,8.21h-13.49v-2.34h13.49v2.34Z" fill="#fff"/><path d="M90.6,9.37L111.31,.02h8.51V9.37h3.34v1.18h-3.34v3.45h-8.7v-3.45h-20.52v-1.18h0Zm4.82,0h15.7V2.23l-15.7,7.14Z" fill="#fff"/><path d="M155.25,0c1.51,0,3.53,.81,3.53,2.45V11.55c0,1.55-1.29,2.45-3.66,2.45h-22.79c-2.55,0-3.81-.9-3.81-2.53V2.6c0-1.49,1.54-2.6,3.53-2.6h23.2Zm-18.32,11.62c0,.81,.69,1.2,1.77,1.2h10.06c1.07,0,1.61-.55,1.61-1.2V2.29c0-.81-.82-1.11-1.61-1.11h-10.18c-1.1,0-1.64,.52-1.64,1.14V11.62h0Z" fill="#fff"/><path d="M164.05,9.37L184.77,.02h8.51V9.37h3.34v1.18h-3.34v3.45h-8.7v-3.45h-20.52v-1.18h0Zm4.82,0h15.7V2.23l-15.7,7.14Z" fill="#fff"/></g></g></g></svg>