<svg width="17" height="41" viewBox="0 0 17 41" fill="none" xmlns="http://www.w3.org/2000/svg">
<path d="M1.6543 37.4557L1.6543 3.42782C1.6543 2.25609 2.60389 1.30661 3.77478 1.30661H13.6861C14.857 1.30661 15.8066 2.25609 15.8066 3.42782L15.8066 37.4557C15.8066 38.6274 14.857 39.5769 13.6861 39.5769H3.77478C2.60389 39.5769 1.6543 38.6274 1.6543 37.4557Z" fill="#1B1C1C" stroke="black" stroke-width="2" stroke-miterlimit="10"/>
<path d="M11.7675 15.8279C12.0019 15.7943 12.2406 15.8159 12.4653 15.8907C12.6899 15.9656 12.8942 16.0918 13.0617 16.2592C13.2291 16.4267 13.3552 16.6308 13.43 16.8555C13.5049 17.0802 13.5264 17.3192 13.4929 17.5537V24.907H12.2733V19.1178C12.2733 18.7904 12.144 18.6267 11.8859 18.6267H9.29657V18.6566C9.69574 18.7365 9.89542 18.9398 9.89542 19.2665V23.33C9.92894 23.5645 9.90746 23.8037 9.83256 24.0285C9.75766 24.2533 9.63122 24.4576 9.4637 24.6251C9.29619 24.7927 9.09204 24.9189 8.86729 24.9938C8.64254 25.0687 8.40356 25.0903 8.16904 25.0568H5.69909C5.46454 25.0905 5.2252 25.0691 5.00036 24.9943C4.77551 24.9194 4.57102 24.7932 4.40346 24.6256C4.23589 24.458 4.10991 24.2536 4.03508 24.0287C3.96026 23.8038 3.93897 23.5646 3.97271 23.33V17.5547C3.93914 17.3201 3.96067 17.081 4.03557 16.8562C4.11048 16.6315 4.2364 16.4273 4.40394 16.2598C4.57149 16.0923 4.77608 15.9661 5.00084 15.8913C5.2256 15.8166 5.46463 15.7952 5.69909 15.8289L11.7675 15.8279ZM8.21094 18.6227H5.65134C5.58755 18.6146 5.52246 18.6215 5.46179 18.6428C5.40113 18.6641 5.34622 18.6993 5.30148 18.7455C5.25675 18.7917 5.22339 18.8476 5.20403 18.909C5.18468 18.9703 5.17978 19.0353 5.1899 19.0988V21.8697C5.17978 21.9332 5.18468 21.9982 5.20403 22.0595C5.22339 22.1209 5.25675 22.1769 5.30148 22.223C5.34622 22.2692 5.40113 22.3044 5.46179 22.3257C5.52246 22.347 5.58755 22.3539 5.65134 22.3458H8.21094C8.27473 22.3539 8.33933 22.347 8.4 22.3257C8.46067 22.3044 8.51558 22.2692 8.56031 22.223C8.60505 22.1769 8.63841 22.1209 8.65776 22.0595C8.67712 21.9982 8.68201 21.9332 8.6719 21.8697V19.1008C8.68184 19.0374 8.67671 18.9725 8.65728 18.9113C8.63785 18.8501 8.60454 18.7943 8.55982 18.7482C8.51511 18.7021 8.4601 18.667 8.39951 18.6458C8.33893 18.6245 8.27464 18.6176 8.21094 18.6257V18.6227Z" fill="#E1ECF3"/>
</svg>
