<svg width="17" height="41" viewBox="0 0 17 41" fill="none" xmlns="http://www.w3.org/2000/svg">
<path d="M1.6543 37.8209L1.6543 3.794C1.6543 2.62227 2.60389 1.67279 3.77478 1.67279H13.6861C14.857 1.67279 15.8066 2.62227 15.8066 3.794L15.8066 37.8209C15.8066 38.9926 14.857 39.9421 13.6861 39.9421H3.77478C2.60389 39.9421 1.6543 38.9926 1.6543 37.8209Z" fill="#1B1C1C" stroke="black" stroke-width="2" stroke-miterlimit="10"/>
<path d="M11.6178 16.1441C12.8679 16.1441 13.4928 16.8285 13.4928 18.1972V25.4767H12.2732V19.373C12.2816 19.3144 12.2764 19.2546 12.2576 19.1984C12.2388 19.1422 12.207 19.0911 12.165 19.0492C12.1231 19.0074 12.0721 18.9759 12.0159 18.9572C11.9597 18.9386 11.8996 18.9333 11.841 18.9418H9.58008C9.52145 18.9333 9.46138 18.9386 9.40515 18.9572C9.34892 18.9759 9.29799 19.0074 9.25605 19.0492C9.21411 19.0911 9.18224 19.1422 9.16347 19.1984C9.1447 19.2546 9.13951 19.3144 9.14788 19.373V23.1091H7.92728V19.373C7.93561 19.3145 7.93041 19.2548 7.91169 19.1987C7.89297 19.1426 7.86142 19.0916 7.8196 19.0497C7.77778 19.0079 7.7266 18.9763 7.67049 18.9576C7.61439 18.9389 7.55461 18.9335 7.49605 18.9418H5.65127C5.58867 18.933 5.5246 18.9389 5.46465 18.959C5.4047 18.979 5.3505 19.0127 5.3058 19.0574C5.2611 19.1021 5.22694 19.1566 5.20689 19.2166C5.18683 19.2766 5.18103 19.3404 5.18983 19.403V25.3569H3.96973V18.1972C3.96973 16.8285 4.59466 16.1441 5.84472 16.1441H7.05021C7.24846 16.1244 7.44868 16.1488 7.63638 16.2156C7.82409 16.2824 7.99452 16.3898 8.13583 16.5303C8.40601 16.9573 8.54472 17.4544 8.5349 17.9597H8.56511C8.5703 17.5091 8.67706 17.0656 8.87745 16.6621C9.00983 16.479 9.18841 16.3343 9.39492 16.2428C9.60143 16.1513 9.82822 16.1162 10.0527 16.1411L11.6178 16.1441Z" fill="#F79E3A"/>
</svg>
