<svg width="17" height="42" viewBox="0 0 17 42" fill="none" xmlns="http://www.w3.org/2000/svg">
<path d="M1.6543 37.9108L1.6543 3.88388C1.6543 2.71215 2.60389 1.76266 3.77478 1.76266H13.6861C14.857 1.76266 15.8066 2.71215 15.8066 3.88388L15.8066 37.9108C15.8066 39.0825 14.857 40.032 13.6861 40.032H3.77478C2.60389 40.032 1.6543 39.0825 1.6543 37.9108Z" fill="#1B1C1C" stroke="black" stroke-width="2" stroke-miterlimit="10"/>
<path d="M5.18983 16.1931C6.79714 18.3464 9.56501 20.0383 13.4928 21.2687V24.1713C11.7271 23.6494 10.0431 22.8826 8.49007 21.8935C7.24323 21.1433 6.12817 20.193 5.18983 19.0807V25.6006H3.96973V16.2829L5.18983 16.1931Z" fill="#F79E3A"/>
</svg>
