<?xml version="1.0" encoding="UTF-8"?><svg xmlns="http://www.w3.org/2000/svg" viewBox="0 0 14 277"><g id="a"/><g id="b"><g id="c"><g><path d="M3.45,0V8.61h-1.25c-.7,0-1.05,.79-1.05,1.51v10.4c0,.91,.52,1.54,1.05,1.54l3.67-.03c.5,0,1.05-.73,1.05-1.51V3.72C6.92,1.45,8.08,.19,9.37,.19h2.16c1.46,0,2.45,1.61,2.45,3.56V26.73c0,2.3-1.16,3.53-2.45,3.53h-1.09v-8.42h1.31c.48,0,1.07-.76,1.07-1.51V10.15c0-.73-.48-1.54-1.07-1.54h-2.62c-.55,0-1.05,.76-1.05,1.51V27.01c0,2.58-1.16,3.53-2.45,3.53l-3.19,.03C.77,30.58,0,28.87,0,27.02V3.53C0,1.01,1.16,0,2.45,0h1Z" fill="#fff"/><path d="M11.49,66.69h-2.73c-1.33,0-2.38-1.2-2.38-3.97v-17.87H0v-8.61H13.96v26.86c0,1.86-.83,3.59-2.47,3.59h0Zm-3.91-21.85v11.92c0,1.26,.65,1.51,1.14,1.51h2.88c.76,0,1.2-.47,1.2-1.73v-11.69H7.58Z" fill="#fff"/><path d="M5.79,85.76v-13.49h2.34v13.49h-2.34Z" fill="#fff"/><path d="M4.63,90.6l9.35,20.71v8.51H4.63v3.34h-1.18v-3.34H0v-8.7H3.45v-20.52h1.18Zm0,4.82v15.7h7.14l-7.14-15.7Z" fill="#fff"/><path d="M14,155.25c0,1.51-.81,3.53-2.45,3.53H2.45C.9,158.78,0,157.49,0,155.12v-22.79c0-2.55,.9-3.81,2.53-3.81H11.4c1.49,0,2.6,1.54,2.6,3.53v23.2h0Zm-11.62-18.32c-.81,0-1.2,.69-1.2,1.77v10.06c0,1.07,.55,1.61,1.2,1.61H11.71c.81,0,1.11-.82,1.11-1.61v-10.18c0-1.1-.52-1.64-1.14-1.64H2.38Z" fill="#fff"/><path d="M4.63,164.05l9.35,20.71v8.51H4.63v3.34h-1.18v-3.34H0v-8.7H3.45v-20.52h1.18Zm0,4.82v15.7h7.14l-7.14-15.7Z" fill="#fff"/><path d="M13.98,224.1v6.15H0v-6.15H9.22l-6.99-5.99v-4.05l6.99-5.99H0v-6.15H13.98v6.15l-9.19,8.02,9.19,8.02Z" fill="#fff"/><path d="M13.98,234.55v6.44H0v-6.44H13.98Zm-5.7,12.72L0,257.61v-7.93l6.99-8.69,6.99,12.07v4.08l-5.7-9.86Z" fill="#fff"/><path d="M13.98,261.03v6.01H0v-6.01H13.98Z" fill="#fff"/><path d="M13.98,270.99v6.01H0v-6.01H13.98Z" fill="#fff"/></g></g></g></svg>