<svg width="17" height="41" viewBox="0 0 17 41" fill="none" xmlns="http://www.w3.org/2000/svg">
<path d="M1.6543 37.7731L1.6543 3.7452C1.6543 2.57347 2.60389 1.62399 3.77478 1.62399H13.6861C14.857 1.62399 15.8066 2.57347 15.8066 3.7452L15.8066 37.7731C15.8066 38.9448 14.857 39.8943 13.6861 39.8943H3.77478C2.60389 39.8943 1.6543 38.9448 1.6543 37.7731Z" fill="#F79E3A" stroke="black" stroke-width="2" stroke-miterlimit="10"/>
<path d="M13.4927 12.4351V21.663H9.3261C9.11516 21.6802 8.9034 21.6505 8.70533 21.5759C8.50725 21.5014 8.32781 21.3838 8.18054 21.2318C7.9344 20.8772 7.77643 20.469 7.71959 20.041L6.85665 15.724C6.84592 15.5869 6.78243 15.4592 6.67977 15.3677C6.57711 15.2762 6.44298 15.2279 6.30555 15.2329H5.59122C5.32511 15.2329 5.19167 15.4256 5.19167 15.8109V21.663H3.97156V14.3935C3.97156 13.0879 4.57011 12.4351 5.76761 12.4351H7.44916C7.88367 12.4017 8.31465 12.5348 8.65465 12.8074C8.9606 13.1312 9.15823 13.5421 9.22036 13.9832L10.1276 18.4929C10.1875 18.8003 10.4106 18.954 10.7971 18.954H12.2711V12.4351H13.4927Z" fill="black"/>
<path d="M3.9696 25.3392V29.0833H5.2667V27.1399H13.4927V24.345H3.96863L3.9696 25.3392Z" fill="black"/>
</svg>
