<svg width="47" height="70" viewBox="0 0 47 70" fill="none" xmlns="http://www.w3.org/2000/svg">
<path d="M36.3429 65.901C41.6929 56.5971 44.7427 47.1219 44.7427 35.4762C44.7427 23.8304 41.6929 14.3561 36.3429 5.05221C36.0635 4.56518 35.6636 4.15791 35.182 3.86938C34.7003 3.58084 34.1529 3.42065 33.5916 3.40412L2.50726 2.08066C1.80346 1.71596 1.81172 2.6428 2.65949 3.75608C3.0957 4.32891 3.38011 4.76907 3.65949 5.2561C9.00955 14.56 12.068 23.8304 12.068 35.4762C12.068 47.1219 9.50955 56.5971 4.15949 65.901C3.24268 67.3804 2.0499 68.4594 2.50768 68.3695L33.5916 67.5491C34.1529 67.5326 34.7007 67.3724 35.1824 67.0839C35.6641 66.7954 36.0635 66.3881 36.3429 65.901Z" fill="#1B1C1C"/>
<path d="M4.15949 65.901C9.50955 56.5971 12.068 47.1219 12.068 35.4762C12.068 23.8304 9.00955 14.56 3.65949 5.2561C3.38011 4.76907 3.0957 4.32891 2.65949 3.75608C1.81172 2.6428 1.80346 1.71597 2.50726 2.08066L33.5916 3.40412C34.1529 3.42065 34.7003 3.58084 35.182 3.86938C35.6636 4.15791 36.0635 4.56518 36.3429 5.05221C41.6929 14.3561 44.7427 23.8304 44.7427 35.4762C44.7427 47.1219 41.6929 56.5971 36.3429 65.901C36.0635 66.3881 35.6641 66.7954 35.1824 67.0839C34.7007 67.3724 34.1529 67.5326 33.5916 67.5491L2.50768 68.3695C2.0499 68.4594 3.24268 67.3804 4.15949 65.901ZM4.15949 65.901C3.88017 66.3881 4.34478 65.6911 4.15949 65.901Z" stroke="black" stroke-width="2" stroke-miterlimit="10"/>
</svg>
