<svg width="98" height="69" viewBox="0 0 98 69" fill="none" xmlns="http://www.w3.org/2000/svg">
<path d="M95.7936 10.6229L95.7935 10.6231C91.7502 27.2983 86.5593 43.5932 80.2678 59.3604L80.2449 59.4179L80.2255 59.4768C79.8321 60.6729 79.1581 61.6914 78.3082 62.434C77.4805 63.1572 76.519 63.5911 75.5327 63.7221L7.63386 66.4957L7.63073 66.4958C6.71722 66.5346 5.79706 66.3015 4.96071 65.7992C4.1218 65.2953 3.38818 64.5319 2.85733 63.5621C2.32602 62.5915 2.02557 61.4635 2.00156 60.2953C1.97755 59.1272 2.23136 57.9823 2.72426 56.981L2.725 56.9795C10.5121 41.1274 16.7153 24.3606 21.2252 6.98401C21.5822 5.63066 22.3099 4.48294 23.2564 3.68921C24.1985 2.89909 25.3079 2.49866 26.4171 2.5H26.4195H90.5519C91.3484 2.50245 92.1442 2.71019 92.8816 3.12181C93.6217 3.53494 94.2894 4.14648 94.8181 4.92627C95.3473 5.70673 95.7189 6.6292 95.8916 7.625C96.0641 8.62024 96.0302 9.64752 95.7936 10.6229Z" fill="#1B1C1C" stroke="black" stroke-width="4" stroke-miterlimit="10"/>
</svg>
