<svg width="17" height="41" viewBox="0 0 17 41" fill="none" xmlns="http://www.w3.org/2000/svg">
<path d="M1.6543 37.2282L1.6543 3.20134C1.6543 2.02961 2.60389 1.08012 3.77478 1.08012H13.6861C14.857 1.08012 15.8066 2.02961 15.8066 3.20134L15.8066 37.2282C15.8066 38.3999 14.857 39.3494 13.6861 39.3494H3.77478C2.60389 39.3494 1.6543 38.3999 1.6543 37.2282Z" fill="#1B1C1C" stroke="black" stroke-width="2" stroke-miterlimit="10"/>
<path d="M11.5378 11.987C11.752 11.9767 11.9659 12.0101 12.1668 12.0853C12.3678 12.1604 12.5514 12.2758 12.7062 12.4242C12.8588 12.591 12.9761 12.7868 13.0512 13C13.1263 13.2132 13.1576 13.4393 13.1433 13.6649V19.4292C13.1577 19.6547 13.1263 19.8807 13.0512 20.0937C12.9761 20.3067 12.8588 20.5024 12.7062 20.6689C12.5514 20.8174 12.3678 20.9327 12.1668 21.0079C11.9659 21.0831 11.752 21.1165 11.5378 21.1061H5.5732C5.35893 21.1165 5.14457 21.0831 4.94365 21.008C4.74273 20.9328 4.55957 20.8175 4.40474 20.6689C4.25216 20.5024 4.13438 20.3067 4.05927 20.0937C3.98416 19.8807 3.95328 19.6547 3.96766 19.4292V13.6649C3.95338 13.4393 3.98466 13.2132 4.05976 13C4.13486 12.7868 4.25223 12.591 4.40474 12.4242C4.55957 12.2757 4.74273 12.1603 4.94365 12.0852C5.14457 12.01 5.35893 11.9766 5.5732 11.987H11.5378ZM11.6094 14.682H5.50303C5.26453 14.682 5.14489 14.8348 5.14489 15.1402V17.951C5.14489 18.2574 5.26453 18.4101 5.50303 18.4101H11.6094C11.8489 18.4101 11.9676 18.2574 11.9676 17.951V15.1412C11.9676 14.8358 11.8489 14.683 11.6094 14.683V14.682Z" fill="#E1ECF3"/>
<path d="M3.9696 24.6975V28.4415H5.2667V26.4981H13.4927V23.7033H3.96863L3.9696 24.6975Z" fill="#E1ECF3"/>
</svg>
