<svg width="18" height="41" viewBox="0 0 18 41" fill="none" xmlns="http://www.w3.org/2000/svg">
<path d="M17.1621 40.678L17.1621 0.289978L0.958109 0.289978L0.958109 40.678H17.1621Z" fill="white"/>
<path d="M5.89609 22.2057C6.26882 21.9459 6.71487 21.8121 7.16909 21.8238C7.61069 21.8023 8.04544 21.9392 8.39509 22.2098C8.59489 22.387 8.7565 22.6031 8.87009 22.8448C9.00081 22.4511 9.25956 22.1124 9.60509 21.8827C9.97184 21.6572 10.3967 21.5442 10.8271 21.5577C11.2963 21.5507 11.7575 21.6796 12.1551 21.9288C12.4316 22.0945 12.6703 22.3166 12.8555 22.5805C13.0407 22.8444 13.1683 23.1443 13.2301 23.4608C13.3078 23.8482 13.3457 24.2426 13.3431 24.6378V28.3938H5.00909V24.3658C4.97489 23.9612 5.03751 23.5542 5.19175 23.1786C5.34599 22.803 5.58742 22.4695 5.89609 22.2057ZM6.45609 26.7308H8.29409V24.7057C8.30747 24.3983 8.23585 24.0932 8.08709 23.8238C8.0069 23.7067 7.89652 23.6134 7.76766 23.5539C7.6388 23.4944 7.49624 23.4709 7.35509 23.4858C7.19583 23.4682 7.03515 23.5023 6.89671 23.5829C6.75827 23.6636 6.64939 23.7866 6.58609 23.9338C6.49065 24.2528 6.44676 24.585 6.45609 24.9178V26.7308ZM9.67309 26.7308H11.8951V24.7078C11.9086 24.419 11.8584 24.1309 11.7481 23.8638C11.6493 23.679 11.4974 23.5281 11.3121 23.4304C11.1267 23.3327 10.9163 23.2928 10.7081 23.3158C10.5225 23.3012 10.337 23.3445 10.177 23.4398C10.0171 23.5351 9.89064 23.6776 9.81509 23.8478C9.71193 24.1126 9.66363 24.3957 9.67309 24.6797V26.7308Z" fill="#2B2A28"/>
<path d="M5.19001 15.1758C5.37627 14.5989 5.74785 14.0997 6.24701 13.7558C6.65169 13.4702 7.10929 13.2682 7.59301 13.1617C8.04559 13.0591 8.50796 13.0058 8.97202 13.0027C9.9533 12.9719 10.9251 13.2025 11.788 13.6708C12.2833 13.9439 12.6917 14.3508 12.9667 14.8451C13.2417 15.3393 13.3721 15.9009 13.343 16.4657V20.0597H5.00901V16.4657C5.0046 16.0291 5.06561 15.5943 5.19001 15.1758V15.1758ZM6.45602 18.3688H11.895V16.7607C11.9094 16.3803 11.7982 16.0058 11.5786 15.6947C11.3591 15.3837 11.0433 15.1536 10.68 15.0398C10.1721 14.8508 9.63282 14.7602 9.09101 14.7728C8.41606 14.735 7.74285 14.8729 7.13702 15.1728C6.89065 15.3513 6.69723 15.5931 6.57733 15.8727C6.45742 16.1523 6.4155 16.4592 6.45602 16.7607V18.3688Z" fill="#2B2A28"/>
</svg>
