<?xml version="1.0" encoding="UTF-8"?><svg xmlns="http://www.w3.org/2000/svg" viewBox="0 0 29.47 135"><g id="a"/><g id="b"><g id="c"><g><path d="M0,41.08s10.13,0,13.81-7.37c2.03,1.8,4.66,2.78,7.37,2.76,4.6,0,8.29-4.6,8.29-11.05v-3.68H0v3.68H12.17s1.65,2.76-2.96,7.37c-2.37,2.63-5.68,4.22-9.21,4.42v3.86Zm16.58-15.65h9.45s0,6.71-4.72,6.71-4.73-6.71-4.73-6.71Z" fill="#1d1d1b"/><path d="M20.26,77.91l9.21,5.82v-4.9l-11.97-8.29c-.88-.61-1.8-1.16-2.75-1.64-1.96-1-4.2-1.34-6.38-.95-2.17,.39-4.16,1.47-5.66,3.09-1.5,1.62-2.43,3.68-2.65,5.88-.22,2.2,.29,4.4,1.44,6.28,1.15,1.88,2.89,3.34,4.94,4.14,2.05,.8,4.32,.92,6.44,.32,2.12-.6,3.99-1.88,5.33-3.64,1.33-1.76,2.05-3.91,2.05-6.11h0Zm-15.65,0c0-1.09,.32-2.16,.93-3.07s1.47-1.62,2.48-2.04,2.12-.53,3.19-.31c1.07,.21,2.06,.74,2.83,1.51,.77,.77,1.3,1.76,1.51,2.83,.21,1.07,.1,2.18-.31,3.19-.42,1.01-1.13,1.87-2.04,2.48-.91,.61-1.98,.93-3.07,.93-1.47,0-2.87-.58-3.91-1.62-1.04-1.04-1.62-2.44-1.62-3.91Z" fill="#1d1d1b"/><path d="M20.26,124.87l9.21,5.82v-4.9l-11.97-8.29c-.88-.61-1.8-1.16-2.75-1.64-1.96-1-4.2-1.34-6.38-.95-2.17,.39-4.16,1.47-5.66,3.09-1.5,1.62-2.43,3.68-2.65,5.88-.22,2.2,.29,4.4,1.44,6.28,1.15,1.88,2.89,3.34,4.94,4.14,2.05,.8,4.32,.92,6.44,.32,2.12-.6,3.99-1.88,5.33-3.64,1.33-1.76,2.05-3.91,2.05-6.11h0Zm-15.65,0c0-1.09,.32-2.16,.93-3.07s1.47-1.62,2.48-2.04c1.01-.42,2.12-.53,3.19-.31,1.07,.21,2.06,.74,2.83,1.51,.77,.77,1.3,1.76,1.51,2.83,.21,1.07,.1,2.18-.31,3.19-.42,1.01-1.13,1.87-2.04,2.48-.91,.61-1.98,.93-3.07,.93-.73,0-1.44-.14-2.11-.42-.67-.28-1.28-.68-1.79-1.2-.51-.51-.92-1.12-1.2-1.79-.28-.67-.42-1.39-.42-2.11h0Z" fill="#1d1d1b"/><path d="M18.82,62.91v-19.8h-3.91v19.8h3.91Z" fill="#1d1d1b"/><path d="M25.2,6.45H0v3.82H25.2v6.46h3.81V0h-3.81V6.45Z" fill="#1d1d1b"/><path d="M25.45,101.39c0,1.66-.66,3.25-1.83,4.42-1.17,1.17-2.76,1.83-4.42,1.83H10.28c-1.66,0-3.25-.66-4.42-1.83-1.17-1.17-1.83-2.76-1.83-4.42s.66-3.25,1.83-4.42c1.17-1.17,2.76-1.83,4.42-1.83h8.93c1.66,0,3.25,.66,4.42,1.83,1.17,1.17,1.83,2.76,1.83,4.42h0Zm4.02,0c0-2.72-1.09-5.33-3.02-7.25-1.92-1.92-4.53-3.01-7.25-3.02H10.28c-2.72,0-5.34,1.08-7.26,3.01C1.09,96.05,0,98.67,0,101.39s1.08,5.34,3.01,7.26c1.93,1.93,4.54,3.01,7.26,3.01h8.93c2.72,0,5.33-1.09,7.25-3.02,1.92-1.92,3.01-4.53,3.02-7.25h0Z" fill="#1d1d1b"/></g></g></g></svg>