<svg width="18" height="42" viewBox="0 0 18 42" fill="none" xmlns="http://www.w3.org/2000/svg">
<path d="M17.1621 41.092L17.1621 0.70401L0.958109 0.70401L0.958109 41.092H17.1621Z" fill="#2B2A28"/>
<path d="M6.02775 27.294C5.67254 26.9085 5.39904 26.455 5.22371 25.961C5.04839 25.4669 4.97487 24.9425 5.00757 24.4193C5.04027 23.8961 5.17852 23.3849 5.41399 22.9165C5.64947 22.4482 5.9773 22.0323 6.37774 21.694C6.83273 21.3625 7.37132 21.1647 7.93274 21.123V22.865C7.60606 22.942 7.29935 23.0871 7.03274 23.291C6.84493 23.4657 6.69867 23.6802 6.6047 23.9189C6.51073 24.1575 6.47145 24.4142 6.48974 24.67C6.48171 24.9597 6.54787 25.2466 6.68194 25.5036C6.816 25.7605 7.01352 25.9789 7.25574 26.138C7.90694 26.5334 8.66327 26.7207 9.42374 26.675C10.1677 26.7302 10.9083 26.5306 11.5237 26.109C11.745 25.9403 11.9237 25.7221 12.0452 25.4718C12.1668 25.2215 12.228 24.9462 12.2237 24.668C12.2394 24.409 12.1931 24.1501 12.0888 23.9125C11.9844 23.675 11.825 23.4657 11.6237 23.302C11.3341 23.0939 11.005 22.9469 10.6567 22.87V21.14C11.504 21.2582 12.2857 21.6617 12.8727 22.284C13.4537 22.9287 13.7601 23.7748 13.7267 24.642C13.7537 25.1649 13.6642 25.6874 13.4648 26.1716C13.2655 26.6557 12.9611 27.0897 12.5737 27.442C11.6766 28.1622 10.5444 28.5246 9.39574 28.459C8.78508 28.4986 8.17266 28.416 7.59434 28.2159C7.01602 28.0159 6.48342 27.7025 6.02775 27.294Z" fill="white"/>
<path d="M5.15674 14.973V13L10.3657 15.787H13.4907V17.528H10.3657L5.15674 20.411V18.359L8.78674 16.629L5.15674 14.973Z" fill="white"/>
</svg>
