<svg width="18" height="42" viewBox="0 0 18 42" fill="none" xmlns="http://www.w3.org/2000/svg">
<path d="M17.1611 41.047L17.1611 0.658997L0.957132 0.658997L0.957132 41.047H17.1611Z" fill="#2B2A28"/>
<path d="M5.89605 22.2108C6.26847 21.9502 6.71467 21.816 7.16905 21.8278C7.61065 21.8064 8.0454 21.9432 8.39505 22.2138C8.59463 22.3916 8.7562 22.608 8.87005 22.8498C9.00079 22.4558 9.2595 22.1168 9.60505 21.8868C9.97208 21.6619 10.3968 21.5489 10.827 21.5618C11.2963 21.555 11.7576 21.6842 12.1551 21.9338C12.4321 22.099 12.671 22.3209 12.8563 22.5849C13.0415 22.8489 13.1689 23.1492 13.23 23.4658C13.3078 23.8533 13.3456 24.2477 13.343 24.6428V28.3978H5.00905V24.3698C4.97493 23.9654 5.03759 23.5586 5.19183 23.1832C5.34607 22.8078 5.58746 22.4745 5.89605 22.2108ZM6.45605 26.7358H8.29405V24.7108C8.30743 24.4034 8.23581 24.0982 8.08705 23.8288C8.00713 23.7114 7.89684 23.6178 7.76793 23.5581C7.63902 23.4984 7.49632 23.4748 7.35505 23.4898C7.19579 23.4723 7.03511 23.5063 6.89667 23.587C6.75823 23.6676 6.64935 23.7906 6.58605 23.9378C6.49053 24.2571 6.44665 24.5896 6.45605 24.9228V26.7358ZM9.67305 26.7358H11.895V24.7128C11.9085 24.4237 11.8584 24.1353 11.7481 23.8678C11.649 23.6833 11.4971 23.5327 11.3117 23.4352C11.1264 23.3377 10.9162 23.2979 10.7081 23.3208C10.5224 23.3053 10.3366 23.3481 10.1765 23.4433C10.0164 23.5385 9.89003 23.6813 9.81505 23.8518C9.71189 24.1167 9.66359 24.3997 9.67305 24.6838V26.7358Z" fill="white"/>
<path d="M5.18997 15.1808C5.37569 14.6037 5.74739 14.1043 6.24697 13.7608C6.65096 13.4727 7.10867 13.2687 7.59297 13.1608C8.04558 13.0585 8.50795 13.0055 8.97198 13.0028C9.95331 12.9715 10.9253 13.202 11.788 13.6708C12.2834 13.9437 12.692 14.3506 12.967 14.8449C13.242 15.3392 13.3723 15.901 13.343 16.4658V20.0588H5.00897V16.4658C5.00499 16.0309 5.06599 15.5977 5.18997 15.1808V15.1808ZM6.45598 18.3728H11.895V16.7658C11.9094 16.3853 11.7982 16.0105 11.5787 15.6993C11.3591 15.3882 11.0433 15.1578 10.68 15.0438C10.172 14.8548 9.63278 14.7642 9.09097 14.7768C8.41602 14.739 7.7428 14.8769 7.13698 15.1768C6.89061 15.3556 6.69721 15.5976 6.57732 15.8774C6.45742 16.1571 6.41549 16.4641 6.45598 16.7658V18.3728Z" fill="white"/>
</svg>
