<svg width="18" height="42" viewBox="0 0 18 42" fill="none" xmlns="http://www.w3.org/2000/svg">
<path d="M17.1621 41.309L17.1621 0.920044L0.958109 0.920044L0.958109 41.309H17.1621Z" fill="#2B2A28"/>
<path d="M11.012 27.5268C11.3204 27.5019 11.616 27.3922 11.866 27.2099C12.0555 27.0157 12.1999 26.7821 12.2889 26.5258C12.3779 26.2695 12.4094 25.9967 12.381 25.7268C12.3912 25.3811 12.3453 25.0359 12.245 24.7049C12.1934 24.4888 12.0692 24.297 11.8932 24.1614C11.7172 24.0258 11.5001 23.9547 11.278 23.9599C11.1485 23.9567 11.0205 23.989 10.9079 24.0531C10.7954 24.1173 10.7024 24.2108 10.639 24.3238C10.4501 24.6874 10.3185 25.078 10.249 25.4818L10.049 26.3819C9.94333 27.0236 9.72713 27.6421 9.41 28.2099C9.2071 28.4925 8.93504 28.7183 8.61988 28.8657C8.30472 29.0132 7.957 29.0773 7.61 29.0518C7.25837 29.0592 6.90941 28.9893 6.58782 28.8469C6.26623 28.7045 5.97987 28.4931 5.749 28.2278C5.21037 27.5406 4.9466 26.6777 5.009 25.8068C4.98591 24.9922 5.23192 24.1926 5.70899 23.5318C5.94486 23.2188 6.2515 22.9661 6.60382 22.7943C6.95614 22.6226 7.34412 22.5368 7.736 22.5438V24.2179C7.51268 24.2187 7.2941 24.2823 7.10511 24.4013C6.91613 24.5202 6.76433 24.6898 6.667 24.8908C6.5177 25.2156 6.44614 25.5706 6.458 25.9278C6.43945 26.3132 6.534 26.6956 6.73 27.0279C6.80867 27.1571 6.92015 27.2632 7.05311 27.3354C7.18607 27.4075 7.33577 27.4432 7.48699 27.4388C7.62559 27.4432 7.76247 27.4072 7.88092 27.3351C7.99936 27.263 8.09425 27.158 8.15399 27.0329C8.31127 26.6784 8.42704 26.3069 8.499 25.9258L8.844 24.4638C8.93997 23.9462 9.14445 23.4547 9.444 23.0218C9.64809 22.7718 9.90863 22.5738 10.2042 22.4441C10.4997 22.3144 10.8218 22.2568 11.144 22.2758C11.5069 22.2694 11.8666 22.3455 12.1957 22.4984C12.5249 22.6514 12.815 22.8772 13.044 23.1588C13.5875 23.8726 13.8556 24.7584 13.799 25.6538C13.8518 26.5762 13.5895 27.4892 13.055 28.2428C12.814 28.5514 12.5028 28.798 12.1473 28.9621C11.7918 29.1261 11.4022 29.2028 11.011 29.1858L11.012 27.5268Z" fill="white"/>
<path d="M5.43195 16.1758C5.61821 15.5989 5.9898 15.0998 6.48896 14.7558C6.89381 14.4703 7.35132 14.2681 7.83495 14.1608C8.28764 14.059 8.74996 14.006 9.21396 14.0028C10.1953 13.9715 11.1673 14.2021 12.03 14.6709C12.5255 14.9436 12.9342 15.3505 13.2093 15.8448C13.4843 16.3391 13.6145 16.9009 13.585 17.4658V21.0589H5.25095V17.4658C5.24656 17.0292 5.30757 16.5943 5.43195 16.1758V16.1758ZM6.69796 19.3688H12.137V17.7608C12.1514 17.3803 12.0402 17.0055 11.8207 16.6943C11.6011 16.3832 11.2853 16.1529 10.922 16.0388C10.4139 15.8502 9.87469 15.76 9.33295 15.7728C8.65831 15.735 7.9854 15.8728 7.37996 16.1728C7.13341 16.3514 6.93981 16.5935 6.81973 16.8732C6.69966 17.153 6.65758 17.4601 6.69796 17.7619V19.3688Z" fill="white"/>
</svg>
