<svg width="17" height="42" viewBox="0 0 17 42" fill="none" xmlns="http://www.w3.org/2000/svg">
<path d="M16.5232 41.353L16.5232 0.965012L0.319193 0.965012L0.319193 41.353H16.5232Z" fill="#2B2A28"/>
<path d="M5.02775 29.015C4.67254 28.6294 4.39904 28.176 4.22371 27.6819C4.04839 27.1879 3.97487 26.6635 4.00757 26.1403C4.04027 25.6171 4.17852 25.1059 4.41399 24.6375C4.64947 24.1692 4.9773 23.7533 5.37774 23.415C5.83273 23.0834 6.37132 22.8857 6.93274 22.844V24.586C6.60606 24.6629 6.29935 24.8081 6.03274 25.012C5.84493 25.1866 5.69867 25.4012 5.6047 25.6398C5.51073 25.8785 5.47145 26.1352 5.48974 26.391C5.48171 26.6807 5.54787 26.9676 5.68194 27.2245C5.816 27.4815 6.01352 27.6999 6.25574 27.859C6.90694 28.2544 7.66327 28.4417 8.42374 28.396C9.1677 28.4512 9.90828 28.2516 10.5237 27.83C10.745 27.6613 10.9237 27.4431 11.0452 27.1928C11.1668 26.9425 11.228 26.6672 11.2237 26.389C11.2394 26.13 11.1931 25.871 11.0888 25.6335C10.9844 25.396 10.825 25.1867 10.6237 25.023C10.3341 24.8149 10.005 24.6679 9.65674 24.591V22.861C10.504 22.9792 11.2857 23.3827 11.8727 24.005C12.4537 24.6497 12.7601 25.4957 12.7267 26.363C12.7537 26.8859 12.6642 27.4083 12.4648 27.8925C12.2655 28.3767 11.9611 28.8106 11.5737 29.163C10.6766 29.8832 9.54438 30.2455 8.39574 30.18C7.78508 30.2196 7.17266 30.1369 6.59434 29.9369C6.01602 29.7368 5.48342 29.4234 5.02775 29.015Z" fill="white"/>
<path d="M12.5759 19.7H4.24194V17.97H7.41994V14.73H4.24194V13H12.5759V14.73H8.85594V17.97H12.5759V19.7Z" fill="white"/>
</svg>
