<?xml version="1.0" encoding="UTF-8"?><svg xmlns="http://www.w3.org/2000/svg" viewBox="0 0 135 29.47"><g id="a"/><g id="b"><g id="c"><g><path d="M41.08,29.47s0-10.13-7.37-13.81c1.8-2.03,2.78-4.66,2.76-7.37C36.47,3.68,31.87,0,25.42,0h-3.68V29.47h3.68v-12.17s2.76-1.65,7.37,2.96c2.63,2.37,4.22,5.68,4.42,9.21h3.86ZM25.42,12.89V3.44s6.71,0,6.71,4.72-6.71,4.73-6.71,4.73Z" fill="#fff"/><path d="M77.91,9.21L83.73,0h-4.9l-8.29,11.97c-.61,.88-1.16,1.8-1.64,2.75-1,1.96-1.34,4.2-.95,6.38,.39,2.17,1.47,4.16,3.09,5.66,1.62,1.5,3.68,2.43,5.88,2.65,2.2,.22,4.4-.29,6.28-1.44,1.88-1.15,3.34-2.89,4.14-4.94,.8-2.05,.92-4.32,.32-6.44-.6-2.12-1.88-3.99-3.64-5.33-1.76-1.33-3.91-2.05-6.11-2.05h0Zm0,15.65c-1.09,0-2.16-.32-3.07-.93s-1.62-1.47-2.04-2.48-.53-2.12-.31-3.19c.21-1.07,.74-2.06,1.51-2.83,.77-.77,1.76-1.3,2.83-1.51,1.07-.21,2.18-.1,3.19,.31,1.01,.42,1.87,1.13,2.48,2.04,.61,.91,.93,1.98,.93,3.07,0,1.47-.58,2.87-1.62,3.91-1.04,1.04-2.44,1.62-3.91,1.62Z" fill="#fff"/><path d="M124.87,9.21L130.69,0h-4.9l-8.29,11.97c-.61,.88-1.16,1.8-1.64,2.75-1,1.96-1.34,4.2-.95,6.38,.39,2.17,1.47,4.16,3.09,5.66,1.62,1.5,3.68,2.43,5.88,2.65,2.2,.22,4.4-.29,6.28-1.44,1.88-1.15,3.34-2.89,4.14-4.94,.8-2.05,.92-4.32,.32-6.44-.6-2.12-1.88-3.99-3.64-5.33-1.76-1.33-3.91-2.05-6.11-2.05h0Zm0,15.65c-1.09,0-2.16-.32-3.07-.93s-1.62-1.47-2.04-2.48c-.42-1.01-.53-2.12-.31-3.19,.21-1.07,.74-2.06,1.51-2.83,.77-.77,1.76-1.3,2.83-1.51,1.07-.21,2.18-.1,3.19,.31,1.01,.42,1.87,1.13,2.48,2.04,.61,.91,.93,1.98,.93,3.07,0,.73-.14,1.44-.42,2.11-.28,.67-.68,1.28-1.2,1.79-.51,.51-1.12,.92-1.79,1.2-.67,.28-1.39,.42-2.11,.42h0Z" fill="#fff"/><path d="M62.91,10.65h-19.8v3.91h19.8v-3.91Z" fill="#fff"/><path d="M6.45,4.27V29.47h3.82V4.27h6.46V.46H0v3.81H6.45Z" fill="#fff"/><path d="M101.39,4.02c1.66,0,3.25,.66,4.42,1.83,1.17,1.17,1.83,2.76,1.83,4.42v8.93c0,1.66-.66,3.25-1.83,4.42-1.17,1.17-2.76,1.83-4.42,1.83s-3.25-.66-4.42-1.83c-1.17-1.17-1.83-2.76-1.83-4.42V10.27c0-1.66,.66-3.25,1.83-4.42,1.17-1.17,2.76-1.83,4.42-1.83h0Zm0-4.02c-2.72,0-5.33,1.09-7.25,3.02-1.92,1.92-3.01,4.53-3.02,7.25v8.93c0,2.72,1.08,5.34,3.01,7.26,1.93,1.93,4.54,3.01,7.26,3.01s5.34-1.08,7.26-3.01c1.93-1.93,3.01-4.54,3.01-7.26V10.27c0-2.72-1.09-5.33-3.02-7.25C106.72,1.09,104.11,0,101.39,0h0Z" fill="#fff"/></g></g></g></svg>