<svg width="17" height="42" viewBox="0 0 17 42" fill="none" xmlns="http://www.w3.org/2000/svg">
<path d="M15.705 1.49341L15.705 40.8505H0.500986L0.500986 1.49341L15.705 1.49341Z" fill="#C3C1A7" stroke="black"/>
<path d="M4.36328 22.4766L5.89258 22.4766L5.89258 25.0605L13 25.0605L13 26.877L5.89258 26.877L5.89258 29.4727L4.36328 29.4727L4.36328 22.4766ZM13 19.7637L13 21.4453L4.36328 21.4453L4.36328 18.8203L11.1543 17.25L4.36328 15.6914L4.36328 13.0957L13 13.0957L13 14.7773L7.1582 14.7773C6.99023 14.7773 6.75586 14.7754 6.45508 14.7715C6.15039 14.7676 5.91601 14.7656 5.75195 14.7656L13 16.4004L13 18.1523L5.75195 19.7754C5.91602 19.7754 6.15039 19.7734 6.45508 19.7695C6.75586 19.7656 6.99023 19.7637 7.1582 19.7637L13 19.7637Z" fill="black"/>
</svg>
