<svg width="17" height="41" viewBox="0 0 17 41" fill="none" xmlns="http://www.w3.org/2000/svg">
<path d="M15.704 0.830811L15.704 40.1879H0.50001L0.50001 0.830811L15.704 0.830811Z" fill="#C3C1A7" stroke="black"/>
<path d="M12.8772 24.7715C12.8772 26.0059 12.5413 26.9492 11.8694 27.6016C11.0452 28.4766 9.85767 28.9141 8.30688 28.9141C6.72485 28.9141 5.53735 28.4766 4.74438 27.6016C4.07251 26.9492 3.73657 26.0059 3.73657 24.7715C3.73657 23.5371 4.07251 22.5937 4.74438 21.9414C5.53735 21.0703 6.72485 20.6348 8.30688 20.6348C9.85767 20.6348 11.0452 21.0703 11.8694 21.9414C12.5413 22.5937 12.8772 23.5371 12.8772 24.7715ZM10.5569 23.0664C10.0295 22.6484 9.27954 22.4395 8.30688 22.4395C7.33813 22.4395 6.59009 22.6504 6.06274 23.0723C5.53149 23.4902 5.26587 24.0566 5.26587 24.7715C5.26587 25.4863 5.52954 26.0566 6.05688 26.4824C6.58423 26.9082 7.33423 27.1211 8.30688 27.1211C9.27954 27.1211 10.0295 26.9082 10.5569 26.4824C11.0842 26.0566 11.3479 25.4863 11.3479 24.7715C11.3479 24.0566 11.0842 23.4883 10.5569 23.0664ZM12.637 14.1016L8.78149 14.1016L8.78149 17.4766L12.637 17.4766L12.637 19.2637L4.00024 19.2637L4.00024 17.4766L7.29321 17.4766L7.29321 14.1016L4.00024 14.1016L4.00024 12.3086L12.637 12.3086L12.637 14.1016Z" fill="black"/>
</svg>
