<svg width="26" height="52" viewBox="0 0 26 52" fill="none" xmlns="http://www.w3.org/2000/svg">
<path d="M22.1921 1H4.3079C2.48099 1 1 2.48099 1 4.3079V47.5669C1 49.3938 2.48099 50.8748 4.3079 50.8748H22.1921C24.019 50.8748 25.5 49.3938 25.5 47.5669V4.3079C25.5 2.48099 24.019 1 22.1921 1Z" fill="#535352"/>
<path d="M24.8195 16.4187H1.62889V34.2985H24.8195V16.4187Z" fill="#767676"/>
<path d="M24.8195 24.6148H1.62889V27.5825H24.8195V24.6148Z" fill="white"/>
<path d="M24.8195 34.2985H1.62889V35.7823V37.2661H24.8195V34.2985Z" fill="#131312"/>
<path fill-rule="evenodd" clip-rule="evenodd" d="M4.2863 1.5C2.74747 1.5 1.5 2.74747 1.5 4.2863V47.2628C1.5 48.8017 2.74747 50.0491 4.2863 50.0491H22.0537C23.5925 50.0491 24.84 48.8017 24.84 47.2628V4.2863C24.84 2.74747 23.5925 1.5 22.0537 1.5H4.2863ZM0.5 4.2863C0.5 2.19519 2.19519 0.5 4.2863 0.5H22.0537C24.1448 0.5 25.84 2.19519 25.84 4.2863V47.2628C25.84 49.354 24.1448 51.0491 22.0537 51.0491H4.2863C2.19519 51.0491 0.5 49.354 0.5 47.2628V4.2863Z" fill="#CCCCCC"/>
</svg>
