<svg width="17" height="42" viewBox="0 0 17 42" fill="none" xmlns="http://www.w3.org/2000/svg">
<path d="M15.704 1.45837L15.704 40.8145H0.50001L0.50001 1.45837L15.704 1.45837Z" fill="#C3C1A7" stroke="black"/>
<path d="M12.3555 22.6641C12.9453 23.3086 13.2402 24.1328 13.2402 25.1367C13.2402 26.3789 12.8418 27.3555 12.0449 28.0664C11.2441 28.7773 10.1465 29.1328 8.75195 29.1328C7.24414 29.1328 6.08203 28.7285 5.26562 27.9199C4.55469 27.2168 4.19922 26.3223 4.19922 25.2363C4.19922 23.7832 4.67578 22.7207 5.62891 22.0488C6.16406 21.6777 6.70117 21.4785 7.24023 21.4512L7.24023 23.2559C6.82617 23.373 6.51367 23.5234 6.30273 23.707C5.92773 24.0352 5.74023 24.5215 5.74023 25.166C5.74023 25.8223 6.00586 26.3398 6.53711 26.7187C7.06445 27.0977 7.8125 27.2871 8.78125 27.2871C9.75 27.2871 10.4766 27.0879 10.9609 26.6895C11.4414 26.2871 11.6816 25.7773 11.6816 25.1602C11.6816 24.5273 11.4746 24.0449 11.0605 23.7129C10.8379 23.5293 10.5039 23.377 10.0586 23.2559L10.0586 21.4687C11 21.625 11.7656 22.0234 12.3555 22.6641ZM13 14.9355L9.14453 14.9355L9.14453 18.3105L13 18.3105L13 20.0977L4.36328 20.0977L4.36328 18.3105L7.65625 18.3105L7.65625 14.9355L4.36328 14.9355L4.36328 13.1426L13 13.1426L13 14.9355Z" fill="black"/>
</svg>
