<?xml version="1.0" encoding="UTF-8"?><svg id="Layer_2" xmlns="http://www.w3.org/2000/svg" viewBox="0 0 135 19.17"><defs><style>.cls-1{fill:#fff;}</style></defs><g id="Layer_1-2"><g><path class="cls-1" d="M21.47,0H0V4.41H8.15v14.76h5.17V4.41h8.15V0Z"/><path class="cls-1" d="M23.67,0V4.41h17.72c.18,0,.35,.03,.51,.1,.16,.07,.31,.16,.44,.29,.13,.12,.22,.27,.29,.43,.07,.16,.1,.34,.1,.51,0,.18-.03,.35-.1,.51-.07,.16-.16,.31-.29,.44-.12,.13-.27,.22-.43,.29-.16,.07-.34,.1-.51,.1l-17.73,.15,.13,11.93h5.55l-.02-6.71s0-.77,.58-.77h12.07c.27,0,.54,.1,.75,.28,.21,.17,.35,.42,.4,.68,.19,.96,1.48,6.52,1.48,6.52h5.4l-1.7-6.71s-.77-2.3-2.11-2.3c0,0,1.92-1.15,1.92-2.88V2.88c-.02-.69-.28-1.36-.73-1.88-.45-.52-1.08-.88-1.76-.99H23.67Z"/><path class="cls-1" d="M60.39,7.09h-9.97v4.41h9.97V7.09Z"/><path class="cls-1" d="M106.5,0h-13.63c-1.19,0-2.34,.47-3.18,1.32-.84,.84-1.32,1.99-1.32,3.18V14.67c0,1.19,.47,2.34,1.32,3.18,.84,.84,1.99,1.32,3.18,1.32h13.63c1.19,0,2.34-.47,3.18-1.32,.84-.84,1.32-1.99,1.32-3.18V4.49c0-1.19-.47-2.34-1.32-3.18-.84-.84-1.99-1.32-3.18-1.32Zm-.87,12.03c0,.34-.07,.68-.2,.99-.13,.31-.32,.6-.56,.84-.24,.24-.52,.43-.84,.56-.31,.13-.65,.2-.99,.2h-6.71c-.69,0-1.34-.27-1.83-.76-.49-.49-.76-1.14-.76-1.83V7.14c0-.69,.27-1.34,.76-1.83,.49-.49,1.14-.76,1.83-.76h6.71c.34,0,.68,.07,.99,.2,.31,.13,.6,.32,.84,.56,.24,.24,.43,.53,.56,.84,.13,.31,.2,.65,.2,.99v4.89Z"/><path class="cls-1" d="M86.26,0h-22.81V4.49h16.33l-12.76,14.52h6.48s12.76-14.17,12.76-14.52,0,0,0,0V0Z"/><path class="cls-1" d="M135,0h-22.81V4.49h16.33l-12.76,14.52h6.48s12.76-14.17,12.76-14.52,0,0,0,0V0Z"/></g></g></svg>