<svg width="17" height="41" viewBox="0 0 17 41" fill="none" xmlns="http://www.w3.org/2000/svg">
<path d="M15.747 1.14288L15.747 40.5H0.542978L0.542978 1.14288L15.747 1.14288Z" fill="#C3C1A7" stroke="black"/>
<path d="M11.2246 23.7012L11.2246 26.8828L13 27.4805L13 29.3672L4.36328 26.2852L4.36328 24.2461L13 21.1875L13 23.1445L11.2246 23.7012ZM9.73633 24.2051L6.33789 25.2832L9.73633 26.3965L9.73633 24.2051ZM12.3555 13.9922C12.9453 14.6367 13.2402 15.4609 13.2402 16.4648C13.2402 17.707 12.8418 18.6836 12.0449 19.3945C11.2441 20.1055 10.1465 20.4609 8.75195 20.4609C7.24414 20.4609 6.08203 20.0566 5.26562 19.248C4.55469 18.5449 4.19922 17.6504 4.19922 16.5645C4.19922 15.1113 4.67578 14.0488 5.62891 13.377C6.16406 13.0059 6.70117 12.8066 7.24023 12.7793L7.24023 14.584C6.82617 14.7012 6.51367 14.8516 6.30273 15.0352C5.92773 15.3633 5.74023 15.8496 5.74023 16.4941C5.74023 17.1504 6.00586 17.668 6.53711 18.0469C7.06445 18.4258 7.8125 18.6152 8.78125 18.6152C9.75 18.6152 10.4766 18.416 10.9609 18.0176C11.4414 17.6152 11.6816 17.1055 11.6816 16.4883C11.6816 15.8555 11.4746 15.373 11.0605 15.041C10.8379 14.8574 10.5039 14.7051 10.0586 14.584L10.0586 12.7969C11 12.9531 11.7656 13.3516 12.3555 13.9922Z" fill="black"/>
</svg>
