<svg width="17" height="42" viewBox="0 0 17 42" fill="none" xmlns="http://www.w3.org/2000/svg">
<path d="M15.705 1.15607L15.705 40.5132H0.500986L0.500986 1.15607L15.705 1.15607Z" fill="#C3C1A7" stroke="black"/>
<path d="M9.61328 25.252L9.61328 27.1152L13 27.1152L13 28.8789L4.36328 28.8789L4.36328 24.6426C4.375 24.0371 4.44922 23.5723 4.58594 23.248C4.72266 22.9199 4.92383 22.6426 5.18945 22.416C5.4082 22.2285 5.65039 22.0801 5.91602 21.9707C6.18164 21.8613 6.48437 21.8066 6.82422 21.8066C7.23437 21.8066 7.63867 21.9102 8.03711 22.1172C8.43164 22.3242 8.71094 22.666 8.875 23.1426C9.03516 22.7441 9.26367 22.4629 9.56055 22.2988C9.85352 22.1309 10.3027 22.0469 10.9082 22.0469L11.4883 22.0469C11.8828 22.0469 12.1504 22.0312 12.291 22C12.5137 21.9531 12.6777 21.8437 12.7832 21.6719L13 21.6719L13 23.6582C12.8086 23.7129 12.6543 23.752 12.5371 23.7754C12.2949 23.8223 12.0469 23.8477 11.793 23.8516L10.9902 23.8633C10.4395 23.8711 10.0723 23.9727 9.88867 24.168C9.70508 24.3594 9.61328 24.7207 9.61328 25.252ZM8.04297 24.1562C7.87891 23.7969 7.55469 23.6172 7.07031 23.6172C6.54687 23.6172 6.19531 23.791 6.01562 24.1387C5.91406 24.334 5.86328 24.627 5.86328 25.0176L5.86328 27.1152L8.18359 27.1152L8.18359 25.0703C8.18359 24.6641 8.13672 24.3594 8.04297 24.1562ZM13 18.5957L13 20.2773L4.36328 20.2773L4.36328 17.6523L11.1543 16.082L4.36328 14.5234L4.36328 11.9277L13 11.9277L13 13.6094L7.1582 13.6094C6.99023 13.6094 6.75586 13.6074 6.45508 13.6035C6.15039 13.5996 5.91601 13.5977 5.75195 13.5977L13 15.2324L13 16.9844L5.75195 18.6074C5.91602 18.6074 6.15039 18.6055 6.45508 18.6016C6.75586 18.5977 6.99023 18.5957 7.1582 18.5957L13 18.5957Z" fill="black"/>
</svg>
