<svg xmlns="http://www.w3.org/2000/svg" viewBox="0 0 19.01 81.16"><rect x="8.68" y="26.21" width="2.4" height="12.13" fill="#fff"/><polygon points="16.12 4.07 0.05 4.07 0.05 6.6 16.12 6.6 16.12 10.67 18.66 10.67 18.66 0 16.12 0 16.12 4.07" fill="#fff"/><path d="M18.76,61.18a6.37,6.37,0,0,0-6-6.53H6.33a6.5,6.5,0,0,0,0,13h6.32A6.3,6.3,0,0,0,18.76,61.18ZM7,65.34a4.19,4.19,0,0,1-4.4-4.15A4.33,4.33,0,0,1,7,57.05H12.1a4.13,4.13,0,0,1,4.19,4.14,4.23,4.23,0,0,1-4.19,4.15Z" fill="#fff"/><path d="M11.35,50.9a4.58,4.58,0,1,0,0-7.19,6.18,6.18,0,1,0,0,7.19Zm5-3.59a2.14,2.14,0,1,1-2.13-2.12A2.13,2.13,0,0,1,16.33,47.31Zm-13.77,0A3.74,3.74,0,1,1,6.3,51,3.72,3.72,0,0,1,2.56,47.31Z" fill="#fff"/><path d="M11.35,78.58a4.58,4.58,0,1,0,0-7.19,6.18,6.18,0,1,0,0,7.19Zm5-3.59a2.14,2.14,0,1,1-2.13-2.12A2.13,2.13,0,0,1,16.33,75ZM2.56,75A3.74,3.74,0,1,1,6.3,78.71,3.72,3.72,0,0,1,2.56,75Z" fill="#fff"/><path d="M9.06,20.46a5.49,5.49,0,0,0,4.46,2.23A5.41,5.41,0,0,0,19,17.37V17.2a15.21,15.21,0,0,0-.3-2.44c-.07-.45-.15-.94-.23-1.51H0V15.7H7.84v.38c0,4-3.7,7-7.84,7v2.5A10.38,10.38,0,0,0,9.06,20.46ZM11,15.7h5.36s.24.25.24,1.31v.09c0,.08,0,.15,0,.22v.12a3,3,0,0,1-6,0s0,0,0-.05v-.05a1.93,1.93,0,0,1,0-.24V17c0-1.06.23-1.31.23-1.31Z" fill="#fff"/></svg>