<svg xmlns="http://www.w3.org/2000/svg" viewBox="0 0 16.24 40.48"><defs><style>.a{fill:#fdf189;}.b{fill:#1d1d1c;}</style></defs><rect class="a" x="-12.12" y="12.12" width="40.48" height="16.24" transform="translate(28.36 12.12) rotate(90)"/><path class="b" d="M4.65,26.61A3.53,3.53,0,0,1,3.6,24,3.55,3.55,0,0,1,5,20.86a3,3,0,0,1,1.6-.58v1.78a2.52,2.52,0,0,0-.93.44,1.77,1.77,0,0,0-.56,1.42,1.73,1.73,0,0,0,.79,1.5A3.79,3.79,0,0,0,8.13,26a3.37,3.37,0,0,0,2.16-.58A1.81,1.81,0,0,0,11,23.91a1.67,1.67,0,0,0-.61-1.4,2.7,2.7,0,0,0-1-.44V20.29a3.88,3.88,0,0,1,2.27,1.18,3.38,3.38,0,0,1,.88,2.42,3.61,3.61,0,0,1-1.19,2.86A4.73,4.73,0,0,1,8.1,27.8,4.74,4.74,0,0,1,4.65,26.61Z"/><path class="b" d="M8.61,13.11a3.25,3.25,0,0,1,.63,2.14V17h3.07v1.78H3.76V15.14a3,3,0,0,1,.66-2,2.59,2.59,0,0,1,2.05-.75A2.66,2.66,0,0,1,8.61,13.11ZM5.53,14.47a1.46,1.46,0,0,0-.29.95V17H7.76V15.42a1.36,1.36,0,0,0-.31-.95,1.27,1.27,0,0,0-1-.34A1.2,1.2,0,0,0,5.53,14.47Z"/></svg>