<svg xmlns="http://www.w3.org/2000/svg" viewBox="0 0 16.24 40.49"><defs><style>.a{fill:#fdf189;}.b{fill:#1d1d1c;}</style></defs><rect class="a" x="-12.12" y="12.12" width="40.49" height="16.24" transform="translate(28.36 12.12) rotate(90)"/><path class="b" d="M3.76,27.12v-2l8.55-3V24l-1.76.57v3.15l1.76.58v1.87Zm5.32.12V25.05L5.71,26.13Z"/><path class="b" d="M4.65,20.17A3.5,3.5,0,0,1,3.6,17.55,3.55,3.55,0,0,1,5,14.42a3.13,3.13,0,0,1,1.6-.58v1.79a2.37,2.37,0,0,0-.93.43,1.77,1.77,0,0,0-.56,1.42A1.72,1.72,0,0,0,5.91,19a3.79,3.79,0,0,0,2.22.55A3.37,3.37,0,0,0,10.29,19,1.82,1.82,0,0,0,11,17.48a1.69,1.69,0,0,0-.61-1.41,2.88,2.88,0,0,0-1-.44V13.86A3.81,3.81,0,0,1,11.67,15a3.4,3.4,0,0,1,.88,2.42,3.65,3.65,0,0,1-1.19,2.87,4.8,4.8,0,0,1-3.26,1A4.7,4.7,0,0,1,4.65,20.17Z"/></svg>