<svg xmlns="http://www.w3.org/2000/svg" viewBox="0 0 16.24 40.48"><defs><style>.a{fill:#fdf189;}.b{fill:#1d1d1c;}</style></defs><rect class="a" x="-12.12" y="12.12" width="40.48" height="16.24" transform="translate(28.36 12.12) rotate(90)"/><path class="b" d="M4.65,28.69A3.53,3.53,0,0,1,3.6,26.06,3.55,3.55,0,0,1,5,22.94a3,3,0,0,1,1.6-.58v1.78a2.52,2.52,0,0,0-.93.44A1.77,1.77,0,0,0,5.12,26a1.73,1.73,0,0,0,.79,1.5,3.79,3.79,0,0,0,2.22.55,3.37,3.37,0,0,0,2.16-.58A1.81,1.81,0,0,0,11,26a1.67,1.67,0,0,0-.61-1.4,2.7,2.7,0,0,0-1-.44V22.37a3.88,3.88,0,0,1,2.27,1.18A3.38,3.38,0,0,1,12.55,26a3.61,3.61,0,0,1-1.19,2.86A4.73,4.73,0,0,1,8.1,29.88,4.74,4.74,0,0,1,4.65,28.69Z"/><path class="b" d="M12.31,20.94H3.76V19.17H7V15.84H3.76V14.07h8.55v1.77H8.49v3.33h3.82Z"/></svg>