<svg xmlns="http://www.w3.org/2000/svg" viewBox="0 0 16.24 40.48"><defs><style>.a{fill:#fdf189;}.b{fill:#1d1d1c;}</style></defs><rect class="a" x="-12.12" y="12.12" width="40.48" height="16.24" transform="translate(28.36 12.12) rotate(90)"/><path class="b" d="M11.55,23.26a3.72,3.72,0,0,1,1,2.8,3.75,3.75,0,0,1-1,2.8A4.64,4.64,0,0,1,8,30.16a4.53,4.53,0,0,1-3.52-1.3,3.72,3.72,0,0,1-1-2.8,3.69,3.69,0,0,1,1-2.8A4.5,4.5,0,0,1,8,22,4.61,4.61,0,0,1,11.55,23.26Zm-1.3,1.11A3.52,3.52,0,0,0,8,23.75a3.51,3.51,0,0,0-2.22.62,2.2,2.2,0,0,0,0,3.38A3.45,3.45,0,0,0,8,28.38a3.46,3.46,0,0,0,2.23-.63,2.22,2.22,0,0,0,0-3.38Z"/><path class="b" d="M12.31,20.61H3.76V18.84H7V15.51H3.76V13.74h8.55v1.77H8.49v3.33h3.82Z"/></svg>