<svg xmlns="http://www.w3.org/2000/svg" viewBox="0 0 16.24 40.48"><defs><style>.a{fill:#fdf189;}.b{fill:#1d1d1c;}</style></defs><rect class="a" x="-12.12" y="12.12" width="40.48" height="16.24" transform="translate(28.36 12.12) rotate(90)"/><path class="b" d="M4,22.07a2.25,2.25,0,0,1,.6-.8,2.6,2.6,0,0,1,.72-.43,2.49,2.49,0,0,1,.9-.16A2.61,2.61,0,0,1,7.39,21a1.73,1.73,0,0,1,.84,1,1.53,1.53,0,0,1,.67-.84,2.75,2.75,0,0,1,1.34-.25h.57a3.66,3.66,0,0,0,.8-.05.65.65,0,0,0,.48-.33h.22v2l-.46.11a4.41,4.41,0,0,1-.73.08h-.8A1.64,1.64,0,0,0,9.23,23,1.45,1.45,0,0,0,9,24v1.74h3.35v1.75H3.76V23.42A3.86,3.86,0,0,1,4,22.07Zm1.26,3.69h2.3V23.84A2.1,2.1,0,0,0,7.4,23a1,1,0,0,0-1-.5,1.06,1.06,0,0,0-1,.49,1.63,1.63,0,0,0-.16.82Z"/><path class="b" d="M9.67,17.69a1.84,1.84,0,0,0,.88-.33,1.9,1.9,0,0,0,.52-1.52,3.1,3.1,0,0,0-.14-1.05,1,1,0,0,0-1-.76.71.71,0,0,0-.65.37,3.86,3.86,0,0,0-.4,1.19l-.21.92A6,6,0,0,1,8,18.39a2.1,2.1,0,0,1-1.85.86,2.47,2.47,0,0,1-1.91-.84,3.62,3.62,0,0,1-.76-2.49,3.78,3.78,0,0,1,.72-2.33,2.51,2.51,0,0,1,2.08-1v1.71a1.22,1.22,0,0,0-1.1.69A2.43,2.43,0,0,0,5,16.05a2.1,2.1,0,0,0,.27,1.13.89.89,0,0,0,.78.42.75.75,0,0,0,.69-.42,5.47,5.47,0,0,0,.35-1.13l.35-1.5a3.89,3.89,0,0,1,.62-1.48,2.12,2.12,0,0,1,1.75-.77,2.45,2.45,0,0,1,1.95.91,3.85,3.85,0,0,1,.77,2.56,4.16,4.16,0,0,1-.76,2.65,2.52,2.52,0,0,1-2.1,1Z"/></svg>