<?xml version="1.0" encoding="UTF-8"?><svg id="Layer_2" xmlns="http://www.w3.org/2000/svg" viewBox="0 0 19.17 126.5"><defs><style>.cls-1{fill:#535a5b;}</style></defs><g id="Layer_1-2"><g><path class="cls-1" d="M.2,93.17c0-1.7-.03-3.4,0-5.1,0-1.48,.58-2.91,1.62-3.97,1.04-1.06,2.46-1.66,3.95-1.67,2.49-.07,4.98-.06,7.47,0,1.47,.02,2.88,.61,3.93,1.64,1.05,1.03,1.67,2.42,1.72,3.89,.05,.64,.08,1.29,.08,1.93,0,2.68,.02,5.36,0,8.05,.02,.77-.11,1.53-.39,2.25-.28,.72-.7,1.37-1.23,1.92-.53,.55-1.17,.99-1.88,1.29-.71,.3-1.47,.45-2.23,.45-2.49,.08-4.98,.07-7.47,0-1.26-.01-2.49-.45-3.47-1.25-.98-.79-1.67-1.9-1.95-3.13-.12-.61-.17-1.23-.16-1.85-.02-1.49,0-2.98,0-4.47h.02Zm14.15-.02c0-.88,.01-1.76,0-2.63,.02-.37-.03-.73-.15-1.08-.12-.35-.31-.66-.56-.93-.25-.27-.55-.48-.88-.63-.33-.15-.7-.23-1.06-.23-1.28-.09-2.57-.09-3.85-.02-.41-.01-.82,.06-1.2,.21-.38,.15-.73,.38-1.02,.68-.29,.29-.51,.64-.66,1.03-.14,.39-.21,.8-.18,1.21-.06,1.76-.03,3.53,.05,5.3,0,.35,.07,.71,.21,1.03,.14,.33,.34,.62,.6,.87,.26,.25,.56,.44,.89,.56,.33,.13,.69,.18,1.04,.17,1.32,.04,2.64,.03,3.96-.03,.39,0,.77-.07,1.12-.23,.36-.15,.68-.38,.94-.66,.27-.28,.47-.61,.6-.98,.13-.36,.19-.75,.16-1.13,0-.83,0-1.66,0-2.49Z"/><path class="cls-1" d="M18.7,0V23.25h-4.43V14.25H.06v-5.12H14.18V0h4.52Z"/><path class="cls-1" d="M11.67,48.96v9.14H7.35v-9.14h4.33Z"/><path class="cls-1" d="M18.7,24.52h-4.3v16.5c-.01,.34-.15,.66-.4,.9-.24,.24-.57,.37-.91,.37-.34,0-.67-.13-.91-.36-.25-.23-.39-.56-.4-.9l-.14-16.51-11.64,.12v5.16l6.55-.02s.75,0,.75,.54v11.24c0,.26-.1,.51-.27,.7-.17,.2-.4,.33-.66,.37-.94,.18-6.36,1.38-6.36,1.38v5.03l6.55-1.59s2.24-.71,2.24-1.96c0,0,1.12,1.79,2.8,1.79h4.3c.66,0,1.3-.24,1.81-.66,.51-.42,.86-1.01,.99-1.65V24.52Z"/><path class="cls-1" d="M17.74,124.41c.77-.85,1.25-1.92,1.37-3.05,.02-.09,.04-.18,.06-.27v-11.24c-.02-.48-.04-.96-.05-1.44,.03-.41-.03-.83-.18-1.21-.15-.39-.37-.74-.67-1.03-.29-.29-.65-.52-1.03-.66-.39-.14-.8-.2-1.21-.17-1.65,0-3.3,0-4.95,.03-.43,0-.86,.05-1.29,.12-.6,.07-1.15,.34-1.57,.77-.42,.43-.67,.99-.72,1.59-.05,.38-.08,.77-.07,1.15,0,2.48,0,4.97,0,7.45,0,1.15,0,2.3-.01,3.44,.02,.16,0,.31-.03,.46-.04,.15-.12,.29-.22,.41-.1,.12-.22,.22-.36,.29-.14,.07-.29,.11-.45,.13-.97,.12-1.52-.37-1.52-1.39-.02-4.47-.04-8.95-.05-13.42v-.46c-.16,0-.27-.02-.39-.02H.65c-.44,0-.46,.02-.46,.48-.01,2.93-.04,5.86-.02,8.79,.01,2.05,0,4.1,.15,6.15,.08,1.2,.55,2.35,1.34,3.26,.79,.91,1.87,1.53,3.05,1.76,.31,.07,.62,.11,.93,.16h7.5c.87,0,1.74-.17,2.54-.53,.8-.36,1.51-.89,2.08-1.56Zm-5.71-4.25c-.05-.2-.07-.41-.07-.63,0-2.41-.02-4.82-.02-7.23,0-.18,0-.35,.02-.53,.02-.32,.16-.62,.4-.84,.24-.21,.55-.32,.87-.31,.17,0,.33,.02,.49,.08,.15,.06,.29,.15,.41,.27,.12,.12,.21,.26,.27,.41,.06,.16,.09,.32,.08,.49,.03,1.32,0,2.65,0,3.97h.02c0,1.21,0,2.41,0,3.62,0,.27-.03,.54-.1,.79-.08,.26-.25,.48-.47,.63-.22,.15-.49,.23-.75,.22-.27-.01-.53-.11-.73-.28-.21-.17-.35-.41-.41-.67Z"/><path class="cls-1" d="M17.74,78.72c.77-.85,1.25-1.92,1.37-3.05,.02-.09,.04-.18,.06-.27v-11.25c-.02-.48-.04-.96-.05-1.44,.03-.41-.03-.83-.18-1.21-.15-.39-.37-.74-.67-1.03-.29-.29-.65-.52-1.03-.66-.39-.14-.8-.2-1.21-.17-1.65,0-3.3,0-4.95,.03-.43,0-.86,.05-1.29,.12-.59,.07-1.15,.34-1.56,.77-.42,.43-.67,.99-.72,1.59-.05,.38-.08,.77-.07,1.15,0,2.48,0,4.97,0,7.45,0,1.15,0,2.3-.01,3.44,.02,.16,0,.31-.03,.46-.04,.15-.12,.29-.22,.41-.1,.12-.22,.22-.36,.29-.14,.07-.29,.11-.45,.12-.97,.12-1.52-.37-1.52-1.39-.02-4.47-.04-8.95-.05-13.42v-.46c-.16,0-.27-.02-.39-.02H.65c-.44,0-.46,.02-.46,.48-.01,2.93-.04,5.86-.02,8.79,.01,2.05,0,4.1,.15,6.15,.08,1.2,.55,2.35,1.34,3.26,.79,.91,1.87,1.53,3.05,1.76,.31,.07,.62,.11,.93,.16h7.5c.87,.01,1.74-.17,2.54-.53,.8-.36,1.51-.89,2.08-1.55Zm-5.71-4.25c-.05-.2-.07-.41-.07-.63,0-2.41-.02-4.82-.02-7.23,0-.18,0-.35,.02-.53,.02-.32,.16-.62,.4-.84,.24-.21,.55-.32,.87-.31,.17,0,.33,.02,.49,.08,.15,.06,.29,.15,.41,.27,.12,.12,.21,.26,.27,.41,.06,.15,.09,.32,.08,.49,.03,1.32,0,2.65,0,3.97h.02c0,1.21,0,2.41,0,3.62,0,.27-.03,.54-.1,.79-.08,.26-.25,.48-.47,.63-.22,.15-.49,.23-.75,.22-.27-.01-.53-.11-.73-.28-.21-.17-.35-.41-.41-.67Z"/></g></g></svg>