<svg width="17" height="42" viewBox="0 0 17 42" fill="none" xmlns="http://www.w3.org/2000/svg">
<path d="M16.295 41.103L16.295 0.618011L0.0529823 0.618011L0.0529823 41.103H16.295Z" fill="#535A5B"/>
<path d="M6.182 14.038C6.00155 14.1504 5.84131 14.2924 5.708 14.458C5.42708 14.8086 5.27463 15.2448 5.276 15.694C5.26499 16.069 5.34965 16.4407 5.522 16.774C5.68072 17.0637 5.90715 17.3107 6.182 17.494C6.46951 17.6827 6.78858 17.8182 7.124 17.894C7.4818 17.9787 7.84832 18.021 8.21601 18.02C8.56982 18.0208 8.92242 17.9785 9.266 17.894C9.59355 17.8169 9.90452 17.6814 10.184 17.494C10.4563 17.3096 10.6806 17.0628 10.838 16.774C11.0108 16.4409 11.0955 16.0691 11.084 15.694C11.0983 15.4444 11.0586 15.1946 10.9674 14.9618C10.8763 14.729 10.736 14.5186 10.556 14.345C10.1678 14.0017 9.68011 13.7915 9.164 13.745V11.922C9.66605 11.9613 10.1576 12.0868 10.617 12.293C11.0318 12.4828 11.4054 12.7518 11.717 13.085C12.0257 13.4178 12.2639 13.8097 12.417 14.237C12.5822 14.703 12.6638 15.1946 12.658 15.689C12.6674 16.2964 12.5506 16.8991 12.315 17.459C12.1012 17.9643 11.7797 18.4168 11.373 18.785C10.9625 19.1517 10.4832 19.4331 9.963 19.613C9.40185 19.8085 8.81122 19.906 8.217 19.901C7.61099 19.9065 7.00844 19.8091 6.435 19.613C5.90763 19.4347 5.42017 19.1552 5 18.79C4.5872 18.4232 4.25956 17.9707 4.04 17.464C3.63196 16.4763 3.58104 15.3772 3.89601 14.356C4.02653 13.948 4.22794 13.5661 4.491 13.228C4.75475 12.8925 5.08283 12.613 5.456 12.406C5.86427 12.1831 6.31313 12.0443 6.776 11.998V13.822C6.56535 13.8527 6.3632 13.9262 6.182 14.038Z" fill="#EC8542"/>
<path d="M4 26.352H7.288V22.8849H4V20.9999H12.568V22.8849H8.868V26.352H12.568V28.2359H4V26.352Z" fill="#EC8542"/>
</svg>
