<svg width="17" height="41" viewBox="0 0 17 41" fill="none" xmlns="http://www.w3.org/2000/svg">
<path d="M16.295 40.648L16.295 0.163025L0.0529823 0.163025L0.0529823 40.648H16.295Z" fill="#535A5B"/>
<path d="M6.182 22.9731C6.00155 23.0855 5.84131 23.2275 5.708 23.3931C5.42708 23.7436 5.27463 24.1798 5.276 24.6291C5.26499 25.0041 5.34965 25.3758 5.522 25.7091C5.68046 25.999 5.90694 26.246 6.182 26.4291C6.46951 26.6177 6.78858 26.7532 7.124 26.8291C7.4818 26.9137 7.84832 26.956 8.21601 26.9551C8.56982 26.9559 8.92242 26.9136 9.266 26.8291C9.59355 26.752 9.90452 26.6165 10.184 26.4291C10.4566 26.2449 10.6809 25.998 10.838 25.7091C11.0108 25.3759 11.0955 25.0041 11.084 24.6291C11.0983 24.3794 11.0586 24.1297 10.9674 23.8969C10.8763 23.664 10.736 23.4536 10.556 23.2801C10.1678 22.9368 9.68011 22.7265 9.164 22.6801V20.8571C9.66605 20.8964 10.1576 21.0219 10.617 21.2281C11.0318 21.4179 11.4054 21.6869 11.717 22.0201C12.0257 22.3529 12.2639 22.7447 12.417 23.1721C12.5822 23.6381 12.6638 24.1296 12.658 24.6241C12.6674 25.2314 12.5506 25.8341 12.315 26.3941C12.1012 26.8993 11.7797 27.3519 11.373 27.7201C10.9625 28.0868 10.4832 28.3682 9.963 28.5481C9.40198 28.7441 8.81126 28.8415 8.217 28.8361C7.61095 28.842 7.00831 28.7446 6.435 28.5481C5.90762 28.3698 5.42016 28.0903 5 27.7251C4.5872 27.3583 4.25956 26.9057 4.04 26.3991C3.63196 25.4113 3.58104 24.3123 3.89601 23.2911C4.02695 22.8832 4.22832 22.5014 4.491 22.1631C4.75475 21.8276 5.08283 21.5481 5.456 21.3411C5.86427 21.1181 6.31313 20.9794 6.776 20.9331V22.7571C6.56535 22.7878 6.3632 22.8613 6.182 22.9731Z" fill="#EC8542"/>
<path d="M6.18198 14.081C6.00176 14.1937 5.84157 14.3357 5.70798 14.501C5.4272 14.8521 5.27479 15.2885 5.27598 15.738C5.26498 16.1131 5.34964 16.4847 5.52199 16.818C5.6807 17.1077 5.90713 17.3548 6.18198 17.538C6.46971 17.7263 6.7887 17.8618 7.12398 17.938C7.48178 18.0227 7.84831 18.065 8.21599 18.064C8.56981 18.0648 8.9224 18.0225 9.26598 17.938C9.5934 17.8606 9.9043 17.7251 10.184 17.538C10.4563 17.3537 10.6806 17.1068 10.838 16.818C11.0107 16.4849 11.0954 16.1131 11.084 15.738C11.0983 15.4883 11.0586 15.2383 10.9674 15.0054C10.8763 14.7724 10.736 14.5618 10.556 14.388C10.1673 14.0455 9.67986 13.8354 9.16398 13.788V11.97C9.66603 12.0093 10.1575 12.1349 10.617 12.341C11.0318 12.5308 11.4054 12.7999 11.717 13.133C12.026 13.466 12.2641 13.8583 12.417 14.286C12.5823 14.752 12.6639 15.2436 12.658 15.738C12.6673 16.3451 12.5506 16.9475 12.315 17.507C12.1014 18.0124 11.7799 18.465 11.373 18.833C10.9625 19.2 10.4833 19.4818 9.96298 19.662C9.40183 19.8576 8.8112 19.955 8.21699 19.95C7.61097 19.9555 7.00842 19.8581 6.43498 19.662C5.90716 19.4819 5.41968 19.2003 4.99998 18.833C4.58697 18.4665 4.25928 18.0139 4.03998 17.507C3.63325 16.5192 3.58374 15.4204 3.89999 14.4C4.03049 13.992 4.23191 13.6101 4.49499 13.272C4.75846 12.9363 5.0866 12.6568 5.45998 12.45C5.86819 12.2267 6.31705 12.0877 6.77998 12.041V13.866C6.568 13.8959 6.36444 13.9691 6.18198 14.081Z" fill="#EC8542"/>
</svg>
