<svg width="17" height="41" viewBox="0 0 17 41" fill="none" xmlns="http://www.w3.org/2000/svg">
<path d="M16.295 40.588L16.295 0.102997L0.0530434 0.102997L0.0530434 40.588H16.295Z" fill="#535A5B"/>
<path d="M3.89005 24.671C3.88503 24.3162 3.94852 23.9638 4.07705 23.633C4.19277 23.338 4.36576 23.0688 4.58605 22.841C4.79911 22.6247 5.0544 22.4545 5.33605 22.341C5.62789 22.2241 5.93966 22.165 6.25405 22.167C6.71053 22.1551 7.16197 22.2649 7.56204 22.485C7.95306 22.7244 8.24997 23.0909 8.40305 23.523H8.42605C8.47995 23.3115 8.58039 23.1147 8.72005 22.947C8.85192 22.795 9.01097 22.6688 9.18905 22.575C9.37602 22.4771 9.57604 22.4063 9.78304 22.365C9.99657 22.3212 10.2127 22.2912 10.43 22.275C10.567 22.268 10.7301 22.259 10.9111 22.251C11.0921 22.243 11.283 22.23 11.474 22.209C11.6583 22.1891 11.8407 22.1557 12.02 22.109C12.1776 22.0713 12.3264 22.0034 12.458 21.909V23.8C12.1458 23.9124 11.8185 23.9771 11.487 23.992C11.111 24.016 10.75 24.052 10.407 24.1C10.0435 24.1269 9.69813 24.2699 9.42204 24.508C9.18788 24.7937 9.0761 25.1603 9.11105 25.528V27.412H12.458V29.296H3.89005V24.671ZM7.76605 25.343C7.79244 24.9947 7.68994 24.6488 7.47804 24.371C7.3543 24.2532 7.2067 24.1633 7.04523 24.1074C6.88375 24.0515 6.71216 24.0309 6.54205 24.047C6.37656 24.0319 6.20977 24.0531 6.05329 24.109C5.89682 24.165 5.75443 24.2544 5.63605 24.371C5.42879 24.6508 5.32906 24.9958 5.35505 25.343V27.407H7.76605V25.343Z" fill="#EC8542"/>
<path d="M3.89001 17.975L9.78301 15.975V15.951L3.89001 14.051V11.4H12.458V13.164H6.38602V13.188L12.458 15.288V16.74L6.44701 18.84V18.864H12.458V20.628H3.89001V17.975Z" fill="#EC8542"/>
</svg>
