<?xml version="1.0" encoding="UTF-8"?><svg id="Layer_2" xmlns="http://www.w3.org/2000/svg" viewBox="0 0 200 187.98"><defs><style>.cls-1{fill:#555;}</style></defs><g id="Layer_1-2"><g><path class="cls-1" d="M200,100.01h-27.7v-2.18l27.7-.32v2.5Z"/><path class="cls-1" d="M97.6,0h2.27V27.84h-2.27V0Z"/><path class="cls-1" d="M147.75,12.1l2.19,1.23-13.56,24.39-2.15-1.23,13.52-24.39Z"/><path class="cls-1" d="M185.33,47.94l1.26,2.16-23.97,14.11-1.29-2.14,24-14.13Z"/><path class="cls-1" d="M135.72,162.72l2.15-1.25,14.25,23.85-2.11,1.34-14.28-23.94Z"/><path class="cls-1" d="M47.54,14.83l2.11-1.3,14.54,23.81-2.12,1.29-14.53-23.8Z"/><path class="cls-1" d="M187.83,147.9l-1.24,2.14-24.24-13.61,1.22-2.18,24.26,13.65Z"/><path class="cls-1" d="M0,100.05H27.63v2.34H.01v-2.34Z"/><path class="cls-1" d="M12.03,52.12l1.22-2.15,24.27,13.69-1.22,2.15-24.27-13.68Z"/><path class="cls-1" d="M14.58,152.15l-1.26-2.11,23.84-14.23,1.31,2.13-23.89,14.2Z"/><path class="cls-1" d="M63.5,162.42l2.16,1.2-13.32,24.35-2.16-1.19,13.32-24.36Z"/><path class="cls-1" d="M40.66,38.02l1.8-1.71,9.3,9.68-1.65,1.86-9.44-9.84Z"/><path class="cls-1" d="M107.6,28.21l-2.47-.29,1.5-13.7,2.45,.27-1.48,13.73Z"/><path class="cls-1" d="M122.52,31.47l-2.37-.72,4.16-13.11,2.38,.72-4.17,13.1Z"/><path class="cls-1" d="M129.6,34.19l-2.26-1,5.36-12.5,2.27,1.01-5.37,12.49Z"/><path class="cls-1" d="M82.8,29.86l-3.06-13.27,2.39-.59,3.08,13.3-2.42,.55Z"/><path class="cls-1" d="M38.08,159.09l-1.94-1.58,9.88-9.39,1.72,1.8-9.67,9.17Z"/><path class="cls-1" d="M47.5,32.16l1.94-1.5,8.3,10.79-1.98,1.52-8.26-10.8Z"/><path class="cls-1" d="M166.11,71.02l-1.06-2.21,12.33-5.84,1.08,2.23-12.35,5.82Z"/><path class="cls-1" d="M144.24,157.07l8.06,10.9-2.01,1.46-8.05-10.86,1.99-1.5Z"/><path class="cls-1" d="M182.26,124.26l-.75,2.34-12.99-4.03,.73-2.37,13.01,4.06Z"/><path class="cls-1" d="M62.89,22.72l2.25-1.05,5.84,12.17-2.23,1.09-5.86-12.21Z"/><path class="cls-1" d="M31.37,77.38l-.73,2.37-12.95-3.9,.68-2.38,13,3.91Z"/><path class="cls-1" d="M16.08,82.09l13.28,2.81-.51,2.42-13.22-2.8,.45-2.43Z"/><path class="cls-1" d="M159.45,140.74l11.22,7.67-1.37,2.05-11.22-7.66,1.38-2.05Z"/><path class="cls-1" d="M88.64,15.04l2.46-.29,1.79,13.45-2.43,.4-1.82-13.56Z"/><path class="cls-1" d="M170.6,85.32l-.54-2.4,13.22-2.97,.61,2.41-13.29,2.96Z"/><path class="cls-1" d="M153.75,51.98l-1.68-1.83,10-9.18,1.68,1.83-10,9.19Z"/><path class="cls-1" d="M34.56,44.55l1.6-1.9,10.29,8.72-1.58,1.92-10.32-8.74Z"/><path class="cls-1" d="M165.27,155.69l-1.67,1.83-10.13-9,1.65-1.86,10.16,9.03Z"/><path class="cls-1" d="M179.25,132.58l-.92,2.29-12.52-5.18,.95-2.3,12.49,5.2Z"/><path class="cls-1" d="M57.12,158.21l2.01,1.43-7.82,11.03-2.05-1.43,7.86-11.03Z"/><path class="cls-1" d="M146.68,44.94l8.91-10.21,1.86,1.62-8.88,10.18-1.89-1.59Z"/><path class="cls-1" d="M157,55.79l10.96-8.1,1.5,1.96-10.97,8.1-1.48-1.97Z"/><path class="cls-1" d="M147.96,154.01l1.84-1.67,9.19,9.93-1.8,1.69-9.22-9.94Z"/><path class="cls-1" d="M14.66,108.89l13.34-1.59,.32,2.45-13.32,1.6-.34-2.47Z"/><path class="cls-1" d="M44.26,165.28l-1.85-1.65,8.97-10.09,1.86,1.64-8.98,10.1Z"/><path class="cls-1" d="M20.67,67.37l.98-2.3,12.46,5.22-.97,2.27-12.47-5.2Z"/><path class="cls-1" d="M140.62,40.36l7.92-11.03,2.01,1.43-7.87,10.96-2.06-1.35Z"/><path class="cls-1" d="M14.45,93.49l.23-2.46,13.49,1.38-.29,2.43-13.43-1.35Z"/><path class="cls-1" d="M71.13,19.26l2.32-.85,4.64,12.72-2.31,.88-4.64-12.74Z"/><path class="cls-1" d="M22.69,137.24l-1.03-2.23,12.23-5.7,1.06,2.23-12.26,5.7Z"/><path class="cls-1" d="M171.77,107.89l.23-2.46,13.5,1.22-.29,2.45-13.44-1.21Z"/><path class="cls-1" d="M115.04,29.41l-2.41-.55,2.91-13.17,2.42,.5-2.92,13.22Z"/><path class="cls-1" d="M184.9,88.77l.34,2.45-13.39,1.57-.27-2.44,13.32-1.58Z"/><path class="cls-1" d="M180.85,71.3l.78,2.34-12.92,4.32-.82-2.32,12.96-4.34Z"/><path class="cls-1" d="M29.09,51.78l1.35-2.05,11.32,7.44-1.34,2.05-11.33-7.44Z"/><path class="cls-1" d="M171,112.92l13.23,2.63-.45,2.43-13.24-2.63,.46-2.43Z"/><path class="cls-1" d="M29.23,114.94l.5,2.41-13.08,2.93-.55-2.4,13.13-2.94Z"/><path class="cls-1" d="M31.99,152.32l-1.48-1.98,10.88-8.16,1.46,1.98-10.86,8.16Z"/><path class="cls-1" d="M31.93,124.46l-12.78,4.27-.8-2.32,12.8-4.29,.78,2.35Z"/></g></g></svg>