<?xml version="1.0" encoding="UTF-8"?><svg id="Layer_2" xmlns="http://www.w3.org/2000/svg" viewBox="0 0 126.5 19.17"><defs><style>.cls-1{fill:#fff;}</style></defs><g id="Layer_1-2"><g><path class="cls-1" d="M93.17,18.97c-1.7,0-3.4,.03-5.1,0-1.48,0-2.91-.58-3.97-1.62-1.06-1.04-1.66-2.46-1.67-3.95-.07-2.49-.06-4.98,0-7.47,.02-1.47,.61-2.88,1.64-3.93,1.03-1.05,2.42-1.67,3.89-1.72,.64-.05,1.29-.08,1.93-.08,2.68,0,5.36-.02,8.05,0,.77-.02,1.53,.11,2.25,.39,.72,.28,1.37,.7,1.92,1.23,.55,.53,.99,1.17,1.29,1.88,.3,.71,.45,1.47,.45,2.23,.08,2.49,.07,4.98,0,7.47-.01,1.26-.45,2.49-1.25,3.47-.79,.98-1.9,1.67-3.13,1.95-.61,.12-1.23,.17-1.85,.16-1.49,.02-2.98,0-4.47,0v-.02Zm-.02-14.15c-.88,0-1.76-.01-2.63,0-.37-.02-.73,.03-1.08,.15-.35,.12-.66,.31-.93,.56-.27,.25-.48,.55-.63,.88-.15,.33-.23,.7-.23,1.06-.09,1.28-.09,2.57-.02,3.85-.01,.41,.06,.82,.21,1.2,.15,.38,.38,.73,.68,1.02,.29,.29,.64,.51,1.03,.66,.39,.14,.8,.21,1.21,.18,1.76,.06,3.53,.03,5.3-.05,.35,0,.71-.07,1.03-.21,.33-.14,.62-.34,.87-.6,.25-.26,.44-.56,.56-.89,.13-.33,.18-.69,.17-1.04,.04-1.32,.03-2.64-.03-3.96,0-.39-.07-.77-.23-1.12-.15-.36-.38-.68-.66-.94-.28-.27-.61-.47-.98-.6-.36-.13-.75-.19-1.13-.16-.83,0-1.66,0-2.49,0Z"/><path class="cls-1" d="M0,.47H23.25V4.9H14.25v14.22h-5.12V4.99H0V.47Z"/><path class="cls-1" d="M48.96,7.49h9.14v4.33h-9.14V7.49Z"/><path class="cls-1" d="M24.52,.47V4.77h16.5c.34,.01,.66,.15,.9,.4,.24,.24,.37,.57,.37,.91,0,.34-.13,.67-.36,.91-.23,.25-.56,.39-.9,.4l-16.51,.14,.12,11.64h5.16l-.02-6.55s0-.75,.54-.75h11.24c.26,0,.51,.1,.7,.27,.2,.17,.33,.4,.37,.66,.18,.94,1.38,6.36,1.38,6.36h5.03l-1.59-6.55s-.71-2.24-1.96-2.24c0,0,1.79-1.12,1.79-2.8V3.27c0-.66-.24-1.3-.66-1.81-.42-.51-1.01-.86-1.65-.99H24.52Z"/><path class="cls-1" d="M124.41,1.43c-.85-.77-1.92-1.25-3.05-1.37-.09-.02-.18-.04-.27-.06h-11.24c-.48,.02-.96,.04-1.44,.05-.41-.03-.83,.03-1.21,.18-.39,.15-.74,.37-1.03,.67-.29,.29-.52,.65-.66,1.03-.14,.39-.2,.8-.17,1.21,0,1.65,0,3.3,.03,4.95,0,.43,.05,.86,.12,1.29,.07,.6,.34,1.15,.77,1.57,.43,.42,.99,.67,1.59,.72,.38,.05,.77,.08,1.15,.07,2.48,0,4.97,0,7.45,0,1.15,0,2.3,0,3.44,.01,.16-.02,.31,0,.46,.03,.15,.04,.29,.12,.41,.22,.12,.1,.22,.22,.29,.36,.07,.14,.11,.29,.13,.45,.12,.97-.37,1.52-1.39,1.52-4.47,.02-8.95,.04-13.42,.05h-.46c0,.16-.02,.27-.02,.39v3.75c0,.44,.02,.46,.48,.46,2.93,.01,5.86,.04,8.79,.02,2.05-.01,4.1,0,6.15-.15,1.2-.08,2.35-.55,3.26-1.34,.91-.79,1.53-1.87,1.76-3.05,.07-.31,.11-.62,.16-.93V6.05c0-.87-.17-1.74-.53-2.54-.36-.8-.89-1.51-1.56-2.08Zm-4.25,5.71c-.2,.05-.41,.07-.63,.07-2.41,0-4.82,.02-7.23,.02-.18,0-.35,0-.53-.02-.32-.02-.62-.16-.84-.4-.21-.24-.32-.55-.31-.87,0-.17,.02-.33,.08-.49,.06-.15,.15-.29,.27-.41,.12-.12,.26-.21,.41-.27,.16-.06,.32-.09,.49-.08,1.32-.03,2.65,0,3.97,0v-.02c1.21,0,2.41,0,3.62,0,.27,0,.54,.03,.79,.1,.26,.08,.48,.25,.63,.47,.15,.22,.23,.49,.22,.75-.01,.27-.11,.53-.28,.73-.17,.21-.41,.35-.67,.41Z"/><path class="cls-1" d="M78.72,1.43c-.85-.77-1.92-1.25-3.05-1.37-.09-.02-.18-.04-.27-.06h-11.25c-.48,.02-.96,.04-1.44,.05-.41-.03-.83,.03-1.21,.18-.39,.15-.74,.37-1.03,.67-.29,.29-.52,.65-.66,1.03-.14,.39-.2,.8-.17,1.21,0,1.65,0,3.3,.03,4.95,0,.43,.05,.86,.12,1.29,.07,.59,.34,1.15,.77,1.56,.43,.42,.99,.67,1.59,.72,.38,.05,.77,.08,1.15,.07,2.48,0,4.97,0,7.45,0,1.15,0,2.3,0,3.44,.01,.16-.02,.31,0,.46,.03,.15,.04,.29,.12,.41,.22,.12,.1,.22,.22,.29,.36,.07,.14,.11,.29,.12,.45,.12,.97-.37,1.52-1.39,1.52-4.47,.02-8.95,.04-13.42,.05h-.46c0,.16-.02,.27-.02,.39v3.75c0,.44,.02,.46,.48,.46,2.93,.01,5.86,.04,8.79,.02,2.05-.01,4.1,0,6.15-.15,1.2-.08,2.35-.55,3.26-1.34,.91-.79,1.53-1.87,1.76-3.05,.07-.31,.11-.62,.16-.93V6.05c.01-.87-.17-1.74-.53-2.54-.36-.8-.89-1.51-1.55-2.08Zm-4.25,5.71c-.2,.05-.41,.07-.63,.07-2.41,0-4.82,.02-7.23,.02-.18,0-.35,0-.53-.02-.32-.02-.62-.16-.84-.4-.21-.24-.32-.55-.31-.87,0-.17,.02-.33,.08-.49,.06-.15,.15-.29,.27-.41,.12-.12,.26-.21,.41-.27,.15-.06,.32-.09,.49-.08,1.32-.03,2.65,0,3.97,0v-.02c1.21,0,2.41,0,3.62,0,.27,0,.54,.03,.79,.1,.26,.08,.48,.25,.63,.47,.15,.22,.23,.49,.22,.75-.01,.27-.11,.53-.28,.73-.17,.21-.41,.35-.67,.41Z"/></g></g></svg>