<svg width="17" height="41" viewBox="0 0 17 41" fill="none" xmlns="http://www.w3.org/2000/svg">
<path d="M16.295 40.618L16.295 0.132996L0.0529823 0.132996L0.0529823 40.618H16.295Z" fill="#535A5B"/>
<path d="M6.182 22.313C6.00155 22.4254 5.84131 22.5674 5.708 22.733C5.42708 23.0836 5.27463 23.5198 5.276 23.969C5.26499 24.344 5.34965 24.7157 5.522 25.049C5.68075 25.3387 5.90718 25.5857 6.182 25.769C6.4695 25.9577 6.78857 26.0932 7.124 26.169C7.4818 26.2537 7.84832 26.296 8.21601 26.295C8.56982 26.2958 8.92242 26.2535 9.266 26.169C9.59355 26.0919 9.90452 25.9564 10.184 25.769C10.4563 25.5846 10.6806 25.3378 10.838 25.049C11.0108 24.7159 11.0955 24.3441 11.084 23.969C11.0983 23.7194 11.0586 23.4696 10.9674 23.2368C10.8763 23.004 10.736 22.7936 10.556 22.62C10.1678 22.2767 9.68011 22.0665 9.164 22.02V20.2C9.6662 20.2384 10.1579 20.3639 10.617 20.571C11.0318 20.7608 11.4054 21.0299 11.717 21.363C12.0257 21.6958 12.2639 22.0877 12.417 22.515C12.5822 22.9811 12.6638 23.4726 12.658 23.967C12.6672 24.5744 12.5505 25.1771 12.315 25.737C12.1009 26.2421 11.7795 26.6946 11.373 27.063C10.9625 27.4297 10.4832 27.7111 9.963 27.891C9.40185 28.0865 8.81122 28.1839 8.217 28.179C7.61099 28.1845 7.00844 28.0871 6.435 27.891C5.9074 27.7118 5.41992 27.4312 5 27.065C4.58747 26.698 4.25987 26.2455 4.04 25.739C3.63196 24.7513 3.58104 23.6522 3.89601 22.631C4.02651 22.223 4.22792 21.8411 4.491 21.503C4.75475 21.1675 5.08283 20.888 5.456 20.681C5.86427 20.458 6.31313 20.3193 6.776 20.273V22.1C6.56557 22.1298 6.36344 22.2023 6.182 22.313Z" fill="#EC8542"/>
<path d="M4 17.352H7.288V13.8849H4V11.9999H12.568V13.8849H8.868V17.352H12.568V19.2359H4V17.352Z" fill="#EC8542"/>
</svg>
