<svg width="17" height="42" viewBox="0 0 17 42" fill="none" xmlns="http://www.w3.org/2000/svg">
<path d="M16.295 41.03L16.295 0.546021L0.0529823 0.546021L0.0529823 41.03H16.295Z" fill="#535A5B"/>
<path d="M3.89002 24.772C3.88739 24.3971 3.92426 24.0231 4.00002 23.656C4.06145 23.3479 4.18164 23.0546 4.35402 22.792C4.51899 22.5516 4.74463 22.3591 5.00803 22.234C5.32464 22.0922 5.66924 22.0238 6.01602 22.034C6.39757 22.0197 6.77438 22.1223 7.09603 22.328C7.40538 22.5497 7.64983 22.85 7.80403 23.198C7.92165 22.7214 8.20528 22.3023 8.60402 22.016C9.01124 21.7483 9.49088 21.6121 9.97802 21.626C10.3671 21.6158 10.7526 21.7024 11.1 21.878C11.4084 22.0395 11.674 22.2719 11.875 22.556C12.0796 22.8511 12.2299 23.1802 12.319 23.528C12.415 23.8942 12.463 24.2714 12.462 24.65V28.8H3.89002V24.772ZM7.35903 25.012C7.3713 24.7172 7.28703 24.4265 7.11903 24.184C7.02484 24.0708 6.90454 23.9821 6.76849 23.9256C6.63244 23.8692 6.48471 23.8467 6.33802 23.86C6.16749 23.8534 5.99812 23.8906 5.84603 23.968C5.72255 24.0361 5.61911 24.1354 5.54602 24.256C5.4711 24.3835 5.42057 24.5239 5.39703 24.67C5.36864 24.8304 5.35459 24.9931 5.35503 25.156V26.92H7.35503L7.35903 25.012ZM11 24.9C11.0002 24.7226 10.9821 24.5457 10.946 24.372C10.9137 24.2141 10.8524 24.0635 10.765 23.928C10.6792 23.7983 10.5614 23.693 10.423 23.622C10.2513 23.5399 10.0622 23.5008 9.87203 23.508C9.6966 23.4907 9.51956 23.5154 9.35558 23.5801C9.19159 23.6448 9.04538 23.7476 8.92903 23.88C8.7294 24.1681 8.63029 24.5139 8.64703 24.864V26.916H11V24.9Z" fill="#EC8542"/>
<path d="M3.89002 16.659C3.88596 16.1333 3.9757 15.6112 4.15502 15.117C4.32381 14.6515 4.59439 14.2296 4.94702 13.882C5.32294 13.5184 5.77283 13.2401 6.26602 13.066C6.86371 12.8586 7.4935 12.759 8.12602 12.772C8.71103 12.7664 9.29366 12.8474 9.85503 13.012C10.3554 13.1579 10.8206 13.4046 11.222 13.737C11.6112 14.0678 11.9209 14.4821 12.128 14.949C12.359 15.4889 12.4715 16.072 12.458 16.659V20.359H3.89002V16.659ZM10.874 16.792C10.8743 16.5226 10.83 16.255 10.743 16C10.6525 15.7407 10.5021 15.5063 10.304 15.316C10.075 15.1003 9.80211 14.9366 9.50402 14.836C9.11759 14.7064 8.71151 14.6451 8.30403 14.6551C7.91043 14.6509 7.51771 14.6931 7.13403 14.781C6.81043 14.8543 6.50605 14.9954 6.24102 15.195C5.98726 15.3951 5.79038 15.6581 5.67002 15.958C5.52718 16.3311 5.45922 16.7287 5.47003 17.128V18.472H10.87L10.874 16.792Z" fill="#EC8542"/>
</svg>
