<svg width="17" height="42" viewBox="0 0 17 42" fill="none" xmlns="http://www.w3.org/2000/svg">
<path d="M16.295 41.133L16.295 0.64801L0.0529823 0.64801L0.0529823 41.133H16.295Z" fill="#535A5B"/>
<path d="M6.74202 28.63C6.21428 28.4499 5.72705 28.1679 5.30803 27.8C4.89522 27.4332 4.56758 26.9807 4.34803 26.474C3.88407 25.3375 3.88407 24.0645 4.34803 22.928C4.56899 22.4241 4.8965 21.9741 5.30803 21.609C5.72722 21.2418 6.21443 20.9605 6.74202 20.781C7.31534 20.5844 7.91798 20.487 8.52403 20.493C9.11829 20.4875 9.709 20.585 10.27 20.781C10.7904 20.9605 11.2698 21.242 11.68 21.609C12.0855 21.9756 12.4068 22.4255 12.622 22.928C13.0794 24.0658 13.0794 25.3362 12.622 26.474C12.4082 26.9793 12.0867 27.4318 11.68 27.8C11.2698 28.167 10.7904 28.4485 10.27 28.628C9.709 28.824 9.11829 28.9215 8.52403 28.916C7.91809 28.9226 7.31546 28.8259 6.74202 28.63ZM9.57402 26.909C9.90157 26.8319 10.2125 26.6964 10.492 26.509C10.7643 26.325 10.9886 26.0785 11.146 25.79C11.3077 25.4527 11.3916 25.0835 11.3916 24.7095C11.3916 24.3355 11.3077 23.9663 11.146 23.629C10.9889 23.3403 10.7646 23.0937 10.492 22.91C10.2125 22.7226 9.90157 22.5871 9.57402 22.51C9.23044 22.4255 8.87785 22.3832 8.52403 22.384C8.15635 22.383 7.78983 22.4253 7.43203 22.51C7.09661 22.5859 6.77754 22.7213 6.49002 22.91C6.21501 23.0926 5.98851 23.3394 5.83003 23.629C5.66839 23.9663 5.58447 24.3355 5.58447 24.7095C5.58447 25.0835 5.66839 25.4527 5.83003 25.79C5.98877 26.0794 6.21522 26.3261 6.49002 26.509C6.77754 26.6977 7.09661 26.8331 7.43203 26.909C7.78983 26.9937 8.15635 27.036 8.52403 27.035C8.87785 27.0358 9.23044 26.9935 9.57402 26.909Z" fill="#EC8542"/>
<path d="M4 17.352H7.288V13.8849H4V11.9999H12.568V13.8849H8.868V17.352H12.568V19.2359H4V17.352Z" fill="#EC8542"/>
</svg>
