<svg xmlns="http://www.w3.org/2000/svg" viewBox="0 0 47.72 47.73"><path d="M22.79,0h2.15l.24,0c1.18.15,2.39.22,3.56.47A23.3,23.3,0,0,1,43.05,9.69,23.35,23.35,0,0,1,47.64,25.9a23.2,23.2,0,0,1-1.83,7.36A23.86,23.86,0,0,1,25.12,47.7a23.35,23.35,0,0,1-9.51-1.44A23.65,23.65,0,0,1,3.23,35.86,23.12,23.12,0,0,1,.14,26.41c-.05-.49-.09-1-.14-1.47V22.8l.09-1A22.73,22.73,0,0,1,1.69,15,23.69,23.69,0,0,1,12.43,2.92,23.06,23.06,0,0,1,21.3.14Zm3.6,30-.29.09A4.73,4.73,0,0,1,22.59,30a.34.34,0,0,0-.44.08c-1.19,1.2-2.37,2.4-3.58,3.58a3.21,3.21,0,0,1-4.51-4.57q3.1-3.12,6.22-6.21a3.16,3.16,0,0,1,4.27-.21c.22.18.4.38.61.57a1.39,1.39,0,0,0,1.56.26,1.41,1.41,0,0,0,.89-1.33A1.66,1.66,0,0,0,27,21a6.15,6.15,0,0,0-8.73-.19Q15.08,23.88,12,27.08a5.94,5.94,0,0,0-1.62,5.55A6.13,6.13,0,0,0,15.7,37.5a6.06,6.06,0,0,0,5.05-1.81c1.82-1.81,3.64-3.64,5.45-5.46ZM21.31,17.59l.09.09.22-.07a4.76,4.76,0,0,1,3.52.1.33.33,0,0,0,.43-.09C26.78,16.41,28,15.18,29.22,14a3.16,3.16,0,0,1,4.45.11,3.2,3.2,0,0,1,0,4.47q-3.12,3.17-6.3,6.3a3.18,3.18,0,0,1-4.37,0c-.15-.15-.3-.3-.46-.44A1.36,1.36,0,0,0,21,24.21a1.39,1.39,0,0,0-.9,1.33,1.7,1.7,0,0,0,.63,1.26,6.17,6.17,0,0,0,8.66.23c.37-.34.72-.71,1.07-1.06,1.81-1.81,3.65-3.59,5.41-5.44A6.15,6.15,0,0,0,27,12.06c-1.82,1.8-3.62,3.62-5.43,5.42C21.47,17.54,21.38,17.55,21.31,17.59Z"/></svg>