<svg xmlns="http://www.w3.org/2000/svg" viewBox="0 0 538.43 44.86"><path d="M116.31,22.08c2.86,2.75,2.85,6.5,3.72,9.92s1.68,6.78,2.57,10.15c.23.86,0,1.27-.81,1.28-1.68,0-3.36.06-5,0a2.44,2.44,0,0,1-2.47-2.08q-.7-3.65-1.24-7.31a22.63,22.63,0,0,0-2-7,4.83,4.83,0,0,0-4.4-3C101.94,24,97.25,24,92.55,24c-1.21,0-1.66.65-1.67,2.08,0,4.92,0,9.83,0,14.75,0,2.16-.46,2.63-2.55,2.64H86c-1.82,0-2.34-.52-2.34-2.36q0-17.37,0-34.75V2.44C83.66.57,84.2,0,86.08,0h7.27C98.91,0,104.46,0,110,.06a11.53,11.53,0,0,1,10.21,5.55,11.86,11.86,0,0,1-2.3,15C117.41,21.12,116.88,21.58,116.31,22.08ZM100.27,6V5.77H93.12c-1.68,0-2.22.54-2.23,2.26,0,2.51,0,5,0,7.54,0,2.14.47,2.62,2.55,2.62q6.77,0,13.53,0a10.56,10.56,0,0,0,2.11-.21c2.19-.47,4-1.47,4.79-3.79C115.17,10.24,113,6.43,109,6A84.3,84.3,0,0,0,100.27,6Z" fill="#fff"/><path d="M284.51,21.85V41.28c0,1.64-.52,2.16-2.16,2.18-1.08,0-2.16,0-3.24,0a1.73,1.73,0,0,1-1.94-1.61c-.28-1.45-.45-1.51-1.6-.65A16.89,16.89,0,0,1,251.28,37a15.72,15.72,0,0,1,4.31-21.81c5.24-3.52,10.85-4.51,16.81-2.13a36.52,36.52,0,0,1,3.24,1.77,8.43,8.43,0,0,0,1.08.44,4.51,4.51,0,0,0,.41-1.24c0-3.08,0-6.17,0-9.26,0-.91,0-1.83,0-2.74,0-1.32.54-1.93,1.8-2a34.41,34.41,0,0,1,3.8,0c1.25.06,1.76.69,1.76,2ZM277,28a10.36,10.36,0,0,0-20.71-.1c0,6.12,4.48,10.83,10.26,10.81C272.56,38.71,277,34.2,277,28Z" fill="#fff"/><path d="M25.1,27.63c0,1.32,0,2.42,0,3.52,0,.59.22.84.8.8.29,0,.59,0,.89,0H75.93V35c-.4,0-.79.09-1.18.09q-25.78,0-51.57,0c-.95,0-1.31-.23-1.28-1.26q.11-4.07,0-8.12c0-1.1.36-1.33,1.35-1.32,13.2,0,26.4,0,39.6,0a10.88,10.88,0,0,0,8.31-3.24c4.89-5.08,3.36-13.91-3-16.81a12.36,12.36,0,0,0-4.95-1.11c-19.66-.08-39.31,0-59-.08-1.07,0-1.29.37-1.28,1.38q0,18.51,0,37c0,2.07.22,1.8-1.79,1.82-.36,0-.73,0-1.16,0V.09C.42.07.78,0,1.14,0H63.22A13.63,13.63,0,0,1,77,11.06a13.58,13.58,0,0,1-11.52,16.4,27.33,27.33,0,0,1-3,.17q-18,0-35.91,0Z" fill="#fff"/><path d="M76,40.29v3.16H25.61c-7.27,0-12-3.7-14-10.85a2.49,2.49,0,0,0-.23-.39V43.44c-1,0-2,0-2.87,0-.2,0-.44-.3-.55-.52a1.69,1.69,0,0,1,0-.68Q8,26,7.93,9.75c0-1.07.31-1.34,1.32-1.34q28.08,0,56.15,0c1.12,0,1.38.37,1.35,1.44-.07,2.62-.07,5.26,0,7.88,0,1.11-.31,1.4-1.37,1.4-13.35,0-26.7,0-40,0A10.45,10.45,0,0,0,15.21,33a10.23,10.23,0,0,0,9.07,7.22,17.21,17.21,0,0,0,1.9,0H76ZM11.41,27c1.93-7.69,7.92-11.21,14.6-11.11,11.51.18,23,0,34.55,0,3,0,2.94,0,3-3.06,0-1-.3-1.27-1.27-1.27q-24.83,0-49.65,0c-.39,0-.79,0-1.21.06Z" fill="#fff"/><path d="M208,32.32c0,2.89,0,5.79,0,8.68,0,2-.48,2.46-2.35,2.46-.63,0-1.27,0-1.9,0a2.35,2.35,0,0,1-2.62-1.65c-.41-1.08-1-.71-1.76-.24-5.9,3.82-12.09,4.43-18.33,1.15A9,9,0,0,1,176,34.2c.07-3.73,1.72-6.75,5-8.31a22.26,22.26,0,0,1,6.8-1.57c3.7-.44,7.43-.62,11.14-.9a1.82,1.82,0,0,0,1.44-3,5.92,5.92,0,0,0-4.89-3,33.45,33.45,0,0,0-4.8.05,6.72,6.72,0,0,0-5.25,3,3.24,3.24,0,0,1-2.16,1.12,35,35,0,0,1-4.69,0c-1.24,0-1.66-.72-1.14-1.88a13.45,13.45,0,0,1,10.76-8.11,23.68,23.68,0,0,1,12.22,1.07A11,11,0,0,1,208,23.63c0,2.9,0,5.79,0,8.69Zm-12.2-3v0a26.39,26.39,0,0,0-3.34.2,42.47,42.47,0,0,0-7,1.62c-2.37.9-2.54,4.26-.46,5.78a5.23,5.23,0,0,0,1.47.79,12.63,12.63,0,0,0,10.27-.79,7.18,7.18,0,0,0,3.8-5.71c.17-1.26-.22-1.79-1.48-1.85C198,29.26,196.91,29.31,195.83,29.31Z" fill="#fff"/><path d="M142.71,44.75c-4.65-.23-9.08-1.11-12.9-4a15.78,15.78,0,0,1,1.65-26.47c7.74-4.34,15.83-4.2,23.4.59a14.81,14.81,0,0,1,7,14.81c-.66,6.29-4.17,10.61-9.81,13.11A17,17,0,0,1,148.35,44C146.49,44.34,144.59,44.5,142.71,44.75Zm.44-6.08a24.08,24.08,0,0,0,2.81-.42,10.39,10.39,0,0,0,7.83-7.68c1.11-4-.22-7.38-3.07-10.15-4.21-4.08-11.71-4.05-16,0a10.14,10.14,0,0,0-1.67,13.34C135.31,37.21,138.7,38.53,143.15,38.67Z" fill="#fff"/><path d="M212.66,27.46q0-6.74,0-13.48c0-1.81.5-2.33,2.24-2.34H218c1.41,0,1.93.55,2.06,2a19,19,0,0,0,.33,1.93,19.17,19.17,0,0,0,1.74-.91,17.57,17.57,0,0,1,13.1-3,12.47,12.47,0,0,1,10,12.25c.09,5.79,0,11.58,0,17.37,0,1.56-.58,2.13-2.11,2.15-1.08,0-2.16,0-3.24,0-1.51,0-2.08-.61-2.08-2.18,0-5.6,0-11.2,0-16.79a10,10,0,0,0-.46-3.14c-1-2.8-3.24-3.73-5.9-3.87-6.72-.35-11.34,4.16-11.36,11V41c0,2-.49,2.5-2.43,2.51h-2.9c-1.52,0-2.08-.6-2.09-2.17,0-4.61,0-9.22,0-13.83Z" fill="#fff"/><path d="M172.73,21.83V40.92c0,2.1-.44,2.54-2.49,2.54-1.23,0-2.46,0-3.69,0a1.64,1.64,0,0,1-1.83-1.71,11,11,0,0,1,0-1.15q0-18.85,0-37.72c0-2.47.38-2.85,2.77-2.86,1.08,0,2.16,0,3.24,0,1.42,0,2,.62,2,2.14,0,2.67,0,5.33,0,8Z" fill="#fff"/><path d="M387.69,30.73a12.35,12.35,0,0,0,1.21,4.67,9.22,9.22,0,0,0,2.52,3.13A10.13,10.13,0,0,0,395,40.28a16.71,16.71,0,0,0,4.32.54,14.08,14.08,0,0,0,4.66-.69,8.89,8.89,0,0,0,3.2-1.86A7.28,7.28,0,0,0,409,35.55a9.24,9.24,0,0,0,.59-3.27,6.55,6.55,0,0,0-1.07-3.9,8.19,8.19,0,0,0-2.77-2.44,17,17,0,0,0-3.93-1.52c-1.48-.38-3-.76-4.55-1.12s-3.06-.79-4.54-1.29a13.88,13.88,0,0,1-3.93-2A9.6,9.6,0,0,1,386,16.76a10.48,10.48,0,0,1-1.07-5,10.35,10.35,0,0,1,3.45-7.69,12.58,12.58,0,0,1,4.29-2.46,17.79,17.79,0,0,1,5.95-.92,16.68,16.68,0,0,1,6,1,11.73,11.73,0,0,1,4.24,2.67,11,11,0,0,1,2.52,3.93A13.17,13.17,0,0,1,412.2,13h-3.64a9.29,9.29,0,0,0-.82-4.07,7.35,7.35,0,0,0-2.21-2.81,9.28,9.28,0,0,0-3.2-1.61,13.5,13.5,0,0,0-3.7-.52,12.68,12.68,0,0,0-4.91.84A8.57,8.57,0,0,0,390.55,7a7.23,7.23,0,0,0-1.62,2.92,7,7,0,0,0-.17,3.21,5.62,5.62,0,0,0,1.57,3.21,9.66,9.66,0,0,0,3,2,21.89,21.89,0,0,0,4,1.26c1.44.33,2.91.67,4.4,1a42.22,42.22,0,0,1,4.35,1.29,12.94,12.94,0,0,1,3.73,2,9.17,9.17,0,0,1,2.61,3.24,11.21,11.21,0,0,1,1,5q0,5.74-3.87,8.89t-10.88,3.16a19.79,19.79,0,0,1-5.83-.83,12.89,12.89,0,0,1-4.66-2.53,11.6,11.6,0,0,1-3.06-4.18A14.59,14.59,0,0,1,384,30.73Z" fill="#fff"/><path d="M430.1,43.17c-.41.08-1,.21-1.62.4a8.34,8.34,0,0,1-2.25.29,5.27,5.27,0,0,1-3.84-1.29q-1.32-1.29-1.32-4.62V16.22H417V13.35h4.09V5.09h3.37v8.26h5.44v2.87h-5.44V36.58c0,.72,0,1.36.05,1.89a3.19,3.19,0,0,0,.34,1.32,1.7,1.7,0,0,0,.87.75,4.79,4.79,0,0,0,1.65.22,8.19,8.19,0,0,0,1.38-.11c.46-.08.92-.17,1.37-.29Z" fill="#fff"/><path d="M455.18,13.35h3.36V43.06h-3.36V38.93c-.45.53-.95,1.09-1.52,1.66a11.24,11.24,0,0,1-1.93,1.58,10.75,10.75,0,0,1-2.55,1.2,10.54,10.54,0,0,1-3.37.49,12.65,12.65,0,0,1-4.88-.83,8.05,8.05,0,0,1-3.17-2.32A9.16,9.16,0,0,1,436,37.24a16.84,16.84,0,0,1-.53-4.33V13.35h3.36v19.5a8.82,8.82,0,0,0,1.74,5.88q1.74,2,5.72,2a8.09,8.09,0,0,0,3.73-.83,7.69,7.69,0,0,0,2.78-2.32,11.1,11.1,0,0,0,1.74-3.55,15.87,15.87,0,0,0,.62-4.54Z" fill="#fff"/><path d="M489.12,1.77h3.36V43.06h-3.36V37.84H489a9.22,9.22,0,0,1-1.87,2.61,11.38,11.38,0,0,1-2.53,1.86,13.24,13.24,0,0,1-2.83,1.15,10.66,10.66,0,0,1-2.86.4,13.6,13.6,0,0,1-6-1.2,11.28,11.28,0,0,1-4.07-3.3,13.46,13.46,0,0,1-2.33-5,24.66,24.66,0,0,1-.73-6.14,22.2,22.2,0,0,1,.79-6,15,15,0,0,1,2.38-5,11.92,11.92,0,0,1,4-3.44,12.11,12.11,0,0,1,5.75-1.29,13.24,13.24,0,0,1,5.92,1.4,10.59,10.59,0,0,1,4.46,4.16Zm0,26.32a16.36,16.36,0,0,0-.68-4.79,12.23,12.23,0,0,0-1.93-3.95,9.59,9.59,0,0,0-3.08-2.7,8.44,8.44,0,0,0-4.13-1,8.81,8.81,0,0,0-7.69,4,12.93,12.93,0,0,0-1.79,4.27,20.24,20.24,0,0,0-.45,5.25,14.73,14.73,0,0,0,.76,5,10.55,10.55,0,0,0,2.1,3.64A9.06,9.06,0,0,0,475.37,40a10,10,0,0,0,3.93.77,8.69,8.69,0,0,0,7.29-3.64,12.4,12.4,0,0,0,1.89-4A19.11,19.11,0,0,0,489.12,28.09Z" fill="#fff"/><path d="M501.29,6.87V1.77H505v5.1Zm.17,36.19V13.35h3.37V43.06Z" fill="#fff"/><path d="M525,43.86a14.91,14.91,0,0,1-5.25-1,11.75,11.75,0,0,1-4.26-2.93A13.91,13.91,0,0,1,512.57,35a19.93,19.93,0,0,1-1.07-6.82,21.43,21.43,0,0,1,.84-6.11,14.63,14.63,0,0,1,2.53-5,11.88,11.88,0,0,1,4.21-3.36A13.3,13.3,0,0,1,525,12.55a13.48,13.48,0,0,1,5.95,1.23,12.08,12.08,0,0,1,4.2,3.33,14.05,14.05,0,0,1,2.5,5,22.5,22.5,0,0,1,.81,6.14,20.43,20.43,0,0,1-.95,6.42,14.8,14.8,0,0,1-2.72,4.93,11.87,11.87,0,0,1-4.27,3.18A13.25,13.25,0,0,1,525,43.86Zm9.87-15.65a21,21,0,0,0-.56-4.94,11.63,11.63,0,0,0-1.74-4,8.31,8.31,0,0,0-3-2.67,9.65,9.65,0,0,0-4.54-1,8.68,8.68,0,0,0-7.58,3.87,12.67,12.67,0,0,0-1.74,4,19.6,19.6,0,0,0-.56,4.68,18.91,18.91,0,0,0,.65,5.07,11.89,11.89,0,0,0,1.88,4,8.54,8.54,0,0,0,3.08,2.58,9.54,9.54,0,0,0,4.27.91,9,9,0,0,0,4.51-1.06,8.6,8.6,0,0,0,3.06-2.84,12.61,12.61,0,0,0,1.74-4A19.2,19.2,0,0,0,534.84,28.21Z" fill="#fff"/><path d="M303.83,1.07h18.39a1.58,1.58,0,0,1,1.56,1.6V5.59a1.58,1.58,0,0,1-1.56,1.6H308.81a1.57,1.57,0,0,0-1.54,1.28l-1.85,9.39.11.12A8.56,8.56,0,0,1,309,15.61a11.28,11.28,0,0,1,4.13-.81,13.53,13.53,0,0,1,5.46,1,11.32,11.32,0,0,1,4.05,2.94,12.83,12.83,0,0,1,2.49,4.47,17.64,17.64,0,0,1,.85,5.58,18.14,18.14,0,0,1-.79,5.19,14.45,14.45,0,0,1-2.52,4.86,13.6,13.6,0,0,1-4.43,3.6,13.78,13.78,0,0,1-6.46,1.41,18.23,18.23,0,0,1-5.54-.81,13.09,13.09,0,0,1-4.49-2.43,11.81,11.81,0,0,1-3.08-4,12.46,12.46,0,0,1-1.1-3.71,1.6,1.6,0,0,1,1.56-1.84h3.62a1.55,1.55,0,0,1,1.52,1.27,7.15,7.15,0,0,0,2.11,4,7.52,7.52,0,0,0,5.28,1.83,8.12,8.12,0,0,0,3.59-.72,6.29,6.29,0,0,0,2.37-2,7.85,7.85,0,0,0,1.29-2.94,15.9,15.9,0,0,0,.38-3.6,11.46,11.46,0,0,0-.47-3.33,8.32,8.32,0,0,0-1.4-2.79A6.78,6.78,0,0,0,315,20.92a8,8,0,0,0-3.49-.72,9.74,9.74,0,0,0-4,.81,4.75,4.75,0,0,0-2.32,2.24,1.51,1.51,0,0,1-1.35.79H300a1.6,1.6,0,0,1-1.54-1.9l3.79-19.78A1.58,1.58,0,0,1,303.83,1.07Z" fill="#fff"/><path d="M344.26.23a11.74,11.74,0,0,1,7.19,2.07,14.07,14.07,0,0,1,4.34,5.28,24.15,24.15,0,0,1,2.12,7,50.6,50.6,0,0,1,0,14.88,24.12,24.12,0,0,1-2.12,7,14.07,14.07,0,0,1-4.34,5.28,13.52,13.52,0,0,1-14.38,0,14.26,14.26,0,0,1-4.34-5.28,23.81,23.81,0,0,1-2.11-7,52,52,0,0,1-.56-7.44,52,52,0,0,1,.56-7.44,23.84,23.84,0,0,1,2.11-7,14.26,14.26,0,0,1,4.34-5.28A11.76,11.76,0,0,1,344.26.23Zm0,38a5.31,5.31,0,0,0,3.64-1.29,8.76,8.76,0,0,0,2.32-3.48,20.81,20.81,0,0,0,1.2-5.13,51.46,51.46,0,0,0,.35-6.24,50.72,50.72,0,0,0-.35-6.21,21.17,21.17,0,0,0-1.2-5.12,8.73,8.73,0,0,0-2.32-3.51,5.82,5.82,0,0,0-7.31,0,8.88,8.88,0,0,0-2.28,3.51,21.63,21.63,0,0,0-1.21,5.12,52.79,52.79,0,0,0-.35,6.21,53.57,53.57,0,0,0,.35,6.24,21.25,21.25,0,0,0,1.21,5.13,8.91,8.91,0,0,0,2.28,3.48A5.3,5.3,0,0,0,344.26,38.2Z" fill="#fff"/></svg>