<svg xmlns="http://www.w3.org/2000/svg" viewBox="0 0 217.49 209.83"><path d="M161.59,156.66h33.16a15.1,15.1,0,0,0,15.08-15.09V68.28A15.1,15.1,0,0,0,194.75,53.2h-12.9V51.88h-8.29V53.2h-6.69V51.88H151.7V53.2h-3.77V51.88H132.76V53.2H15.08A15.1,15.1,0,0,0,0,68.28v73.3a15.1,15.1,0,0,0,15.08,15.08H137.56v1.13h24Zm0-4.53H15.08A10.56,10.56,0,0,1,4.53,141.57V68.28A10.57,10.57,0,0,1,15.08,57.72H194.75a10.57,10.57,0,0,1,10.56,10.56V79.11h-3a6.22,6.22,0,0,0-6,6.41v38.63c0,3.53,2.69,5.6,6,5.6h3v11.82a10.56,10.56,0,0,1-10.56,10.56Z"/><path d="M213.68,31.86l3.69-8A1.29,1.29,0,0,0,215,22.79h0l-2.46,5.33c-1.86-7.35-4.95-12.43-8.41-15.89a24.28,24.28,0,0,0-12.07-6.61A20.71,20.71,0,0,0,186,5.11a1.28,1.28,0,0,0-1.15,1.41,1.22,1.22,0,0,0,.37.78,1.29,1.29,0,0,0,1,.37h0a19,19,0,0,1,5.54.53,21.69,21.69,0,0,1,10.51,5.85c3.11,3.12,6,7.76,7.75,14.76l-5.26-2.38a1.29,1.29,0,0,0-1.44,2.09,1.5,1.5,0,0,0,.38.26L212,32.49a1.29,1.29,0,0,0,1.7-.63Z"/><path d="M156.69,48.24V15.08A15.1,15.1,0,0,0,141.61,0H68.32A15.1,15.1,0,0,0,53.24,15.08V28H51.92v8.29h1.32V43H51.92V58.13h1.32V61.9H51.92V77.07h1.32V194.75a15.09,15.09,0,0,0,15.08,15.08h73.29a15.1,15.1,0,0,0,15.09-15.08V72.27h1.14v-24Zm-4.52,0V194.75a10.57,10.57,0,0,1-10.56,10.56H68.32a10.58,10.58,0,0,1-10.56-10.56V15.08A10.58,10.58,0,0,1,68.32,4.52H79.15v3a6.22,6.22,0,0,0,6.41,6h38.62c3.53,0,5.6-2.69,5.6-6v-3h11.83a10.58,10.58,0,0,1,10.56,10.56Z" opacity="0.24"/></svg>